<svg xmlns="http://www.w3.org/2000/svg" viewBox="0 0 35 35"><path d="M17.5 35A17.5 17.5 0 1 1 35 17.5 17.52 17.52 0 0 1 17.5 35zm0-33.06A15.56 15.56 0 1 0 33.06 17.5 15.57 15.57 0 0 0 17.5 1.94zm6.44 24.29a1 1 0 0 1-.34-.06l-3.78-1.42a10.75 10.75 0 0 1-2.32.25c-4.95 0-9-3.36-9-7.5s4-7.5 9-7.5 9 3.36 9 7.5a6.75 6.75 0 0 1-1.88 4.6l.32 3.06a1 1 0 0 1-1 1.07zm-4.06-3.47a1 1 0 0 1 .34.06l2.59 1-.2-2a1 1 0 0 1 .3-.8 4.91 4.91 0 0 0 1.62-3.54c0-3.06-3.15-5.55-7-5.55s-7 2.49-7 5.55 3.15 5.55 7 5.55a8.74 8.74 0 0 0 2.14-.26 1 1 0 0 1 .21-.01z"/></svg>