<svg xmlns="http://www.w3.org/2000/svg" xmlns:xlink="http://www.w3.org/1999/xlink" id="Layer_1" width="1280" height="720" x="0" y="0" enable-background="new 0 0 1280 720" version="1.1" viewBox="0 0 1280 720" xml:space="preserve"><switch><g><circle cx="422.012" cy="361.35" r="17.008" fill="none" stroke="#777677" stroke-linecap="round" stroke-linejoin="round" stroke-miterlimit="10" stroke-width="2"/><line x1="412.216" x2="431.809" y1="358.438" y2="358.438" fill="none" stroke="#777677" stroke-linecap="round" stroke-linejoin="round" stroke-miterlimit="10" stroke-width="2"/><line x1="412.216" x2="431.809" y1="362.223" y2="362.223" fill="none" stroke="#777677" stroke-linecap="round" stroke-linejoin="round" stroke-miterlimit="10" stroke-width="2"/><line x1="412.216" x2="426.909" y1="366.008" y2="366.008" fill="none" stroke="#777677" stroke-linecap="round" stroke-linejoin="round" stroke-miterlimit="10" stroke-width="2"/><circle cx="357.996" cy="361.35" r="17.008" fill="none" stroke="#777677" stroke-linecap="round" stroke-linejoin="round" stroke-miterlimit="10" stroke-width="2"/><line x1="353.267" x2="362.726" y1="369.224" y2="369.224" fill="none" stroke="#777677" stroke-linecap="round" stroke-linejoin="round" stroke-miterlimit="10" stroke-width="2"/><line x1="353.267" x2="359.996" y1="358.357" y2="358.357" fill="none" stroke="#777677" stroke-linecap="round" stroke-linejoin="round" stroke-miterlimit="10" stroke-width="2"/><line x1="359.996" x2="359.996" y1="368.224" y2="358.357" fill="none" stroke="#777677" stroke-linecap="round" stroke-linejoin="round" stroke-miterlimit="10" stroke-width="2"/><circle cx="358.022" cy="353.834" r="2.023" fill="none" stroke="#777677" stroke-linecap="round" stroke-linejoin="round" stroke-miterlimit="10" stroke-width="2"/><line x1="355.996" x2="355.996" y1="368.224" y2="358.357" fill="none" stroke="#777677" stroke-linecap="round" stroke-linejoin="round" stroke-miterlimit="10" stroke-width="2"/><circle cx="486.028" cy="361.35" r="17.008" fill="none" stroke="#777677" stroke-linecap="round" stroke-linejoin="round" stroke-miterlimit="10" stroke-width="2"/><polyline fill="none" stroke="#777677" stroke-linecap="round" stroke-linejoin="round" stroke-miterlimit="10" stroke-width="2" points="480.282 361.35 484.476 365.479 493.423 355.653"/><circle cx="550.044" cy="359.65" r="17.008" fill="none" stroke="#777677" stroke-linecap="round" stroke-linejoin="round" stroke-miterlimit="10" stroke-width="2"/><path fill="none" stroke="#777677" stroke-linecap="round" stroke-linejoin="round" stroke-miterlimit="10" stroke-width="2" d="M556.671,367.635l-4.178-1.572c-0.773,0.195-1.596,0.301-2.449,0.301c-4.547,0-8.232-3.006-8.232-6.713 c0-3.708,3.686-6.714,8.232-6.714s8.232,3.006,8.232,6.714c0,1.667-0.744,3.193-1.979,4.368L556.671,367.635z"/><circle cx="614.059" cy="359.65" r="17.008" fill="none" stroke="#777677" stroke-linecap="round" stroke-linejoin="round" stroke-miterlimit="10" stroke-width="2"/><line x1="614.381" x2="606.243" y1="351.976" y2="358.115" fill="none" stroke="#777677" stroke-linecap="round" stroke-linejoin="round" stroke-miterlimit="10" stroke-width="2"/><line x1="622.709" x2="614.571" y1="358.115" y2="351.976" fill="none" stroke="#777677" stroke-linecap="round" stroke-linejoin="round" stroke-miterlimit="10" stroke-width="2"/><rect width="1800" height="2455" x="-260" y="-868" fill="none"/><polyline fill="none" stroke="#777677" stroke-linecap="round" stroke-linejoin="round" stroke-miterlimit="10" stroke-width="2" points="608.571 356.553 608.571 365.378 620.571 365.378 620.571 356.553"/><circle cx="678.074" cy="359.65" r="17.008" fill="none" stroke="#777677" stroke-linecap="round" stroke-linejoin="round" stroke-miterlimit="10" stroke-width="2"/><circle cx="678.074" cy="356.65" r="3.096" fill="none" stroke="#777677" stroke-linecap="round" stroke-linejoin="round" stroke-miterlimit="10" stroke-width="2"/><path fill="none" stroke="#777677" stroke-linecap="round" stroke-linejoin="round" stroke-miterlimit="10" stroke-width="2" d="M678.074,349.456c-3.747,0-6.783,3.036-6.783,6.783c0,7.105,6.783,13.226,6.783,13.226s6.783-6.121,6.783-13.226 C684.857,352.492,681.821,349.456,678.074,349.456z"/><circle cx="742.09" cy="359.65" r="17.008" fill="none" stroke="#777677" stroke-linecap="round" stroke-linejoin="round" stroke-miterlimit="10" stroke-width="2"/><path fill="none" stroke="#777677" stroke-linecap="round" stroke-linejoin="round" stroke-miterlimit="10" stroke-width="2" d="M736.66,355.983c-2.664,2.663-2.664,6.979-0.001,9.642c2.662,2.662,6.979,2.662,9.642,0l3.813-3.813"/><line x1="744.237" x2="749.757" y1="362.811" y2="357.29" fill="none" stroke="#777677" stroke-linecap="round" stroke-linejoin="round" stroke-miterlimit="10" stroke-width="2"/><line x1="741.797" x2="748.538" y1="360.371" y2="353.631" fill="none" stroke="#777677" stroke-linecap="round" stroke-linejoin="round" stroke-miterlimit="10" stroke-width="2"/><line x1="739.358" x2="744.878" y1="357.931" y2="352.411" fill="none" stroke="#777677" stroke-linecap="round" stroke-linejoin="round" stroke-miterlimit="10" stroke-width="2"/><path fill="none" stroke="#777677" stroke-linecap="round" stroke-linejoin="round" stroke-miterlimit="10" stroke-width="2" d="M736.821,355.822c1.05-1.049,1.05-2.75,0.001-3.799"/><text font-family="'OpenSans-Extrabold'" font-size="6" transform="matrix(1 0 0 1 349.0957 405.3115)">info</text><text font-family="'OpenSans-Light'" font-size="18" transform="matrix(1 0 0 1 349.0957 278.6011)">sin trazar</text><text font-family="'OpenSans-Extrabold'" font-size="6" transform="matrix(1 0 0 1 402.0669 405.3115)">propuestas</text><text font-family="'OpenSans-Extrabold'" font-size="6" transform="matrix(1 0 0 1 466.8398 405.3115)">actuaciones</text><text font-family="'OpenSans-Extrabold'" font-size="6" transform="matrix(1 0 0 1 539.0234 405.7012)">debates</text><text font-family="'OpenSans-Extrabold'" font-size="6" transform="matrix(1 0 0 1 605.1538 405.3115)">inicio</text><text font-family="'OpenSans-Extrabold'" font-size="6" transform="matrix(1 0 0 1 667.3145 405.3115)">encuentro</text><text font-family="'OpenSans-Extrabold'" font-size="6" transform="matrix(1 0 0 1 734.6621 405.3115)">help</text><circle cx="804.789" cy="359.65" r="17.008" fill="none" stroke="#777677" stroke-linecap="round" stroke-linejoin="round" stroke-miterlimit="10" stroke-width="2"/><text font-family="'OpenSans-Extrabold'" font-size="6" transform="matrix(1 0 0 1 787.7822 405.3115)">compartir</text><path fill="none" stroke="#777677" stroke-linecap="round" stroke-linejoin="round" stroke-miterlimit="10" stroke-width="2" d="M799.659,366.066c0-5.38,4.361-9.742,9.742-9.742"/><polyline fill="none" stroke="#777677" stroke-linecap="round" stroke-linejoin="round" stroke-miterlimit="10" stroke-width="2" points="807.801 352.934 811.192 356.324 807.801 359.715"/><polyline fill="none" stroke="#777677" stroke-linecap="round" stroke-linejoin="round" stroke-miterlimit="10" stroke-width="2" points="1000.146 365.623 996.756 369.016 993.365 365.623"/><circle cx="868.805" cy="359.65" r="17.008" fill="none" stroke="#777677" stroke-linecap="round" stroke-linejoin="round" stroke-miterlimit="10" stroke-width="2"/><text font-family="'OpenSans-Extrabold'" font-size="6" transform="matrix(1 0 0 1 856.3105 405.3115)">proceso</text><text font-family="'OpenSans-Extrabold'" font-size="6" transform="matrix(1 0 0 1 924.5938 405.3115)">fases</text><circle cx="868.805" cy="359.65" r="1.914" fill="none" stroke="#777677" stroke-linecap="round" stroke-linejoin="round" stroke-miterlimit="10" stroke-width="2"/><circle cx="868.805" cy="352.08" r="1.914" fill="none" stroke="#777677" stroke-linecap="round" stroke-linejoin="round" stroke-miterlimit="10" stroke-width="2"/><circle cx="868.805" cy="367.222" r="1.914" fill="none" stroke="#777677" stroke-linecap="round" stroke-linejoin="round" stroke-miterlimit="10" stroke-width="2"/><path fill="none" stroke="#777677" stroke-linecap="round" stroke-linejoin="round" stroke-miterlimit="10" stroke-width="2" d="M866.517,352.08c-2.097,0-3.795,1.699-3.795,3.794c0,2.095,1.698,3.794,3.795,3.794"/><path fill="none" stroke="#777677" stroke-linecap="round" stroke-linejoin="round" stroke-miterlimit="10" stroke-width="2" d="M871.094,367.288c2.096,0,3.794-1.699,3.794-3.795c0-2.095-1.698-3.794-3.794-3.794"/><circle cx="932.82" cy="359.65" r="17.008" fill="none" stroke="#777677" stroke-linecap="round" stroke-linejoin="round" stroke-miterlimit="10" stroke-width="2"/><rect width="18.969" height="16.051" x="923.336" y="352.08" fill="none" stroke="#777677" stroke-linecap="round" stroke-linejoin="round" stroke-miterlimit="10" stroke-width="2"/><line x1="927.82" x2="927.82" y1="354.08" y2="349.634" fill="none" stroke="#777677" stroke-linecap="round" stroke-linejoin="round" stroke-miterlimit="10" stroke-width="2"/><line x1="937.82" x2="937.82" y1="354.08" y2="349.634" fill="none" stroke="#777677" stroke-linecap="round" stroke-linejoin="round" stroke-miterlimit="10" stroke-width="2"/><line x1="923.336" x2="942.305" y1="357.143" y2="357.143" fill="none" stroke="#777677" stroke-linecap="round" stroke-linejoin="round" stroke-miterlimit="10" stroke-width="2"/><line x1="927.82" x2="927.82" y1="360.372" y2="361.282" fill="none" stroke="#777677" stroke-linecap="round" stroke-linejoin="round" stroke-miterlimit="10" stroke-width="2"/><line x1="932.82" x2="932.82" y1="360.372" y2="361.282" fill="none" stroke="#777677" stroke-linecap="round" stroke-linejoin="round" stroke-miterlimit="10" stroke-width="2"/><line x1="937.82" x2="937.82" y1="360.372" y2="361.282" fill="none" stroke="#777677" stroke-linecap="round" stroke-linejoin="round" stroke-miterlimit="10" stroke-width="2"/><line x1="927.82" x2="927.82" y1="364.168" y2="365.078" fill="none" stroke="#777677" stroke-linecap="round" stroke-linejoin="round" stroke-miterlimit="10" stroke-width="2"/><line x1="932.82" x2="932.82" y1="364.168" y2="365.078" fill="none" stroke="#777677" stroke-linecap="round" stroke-linejoin="round" stroke-miterlimit="10" stroke-width="2"/><line x1="937.82" x2="937.82" y1="364.168" y2="365.078" fill="none" stroke="#777677" stroke-linecap="round" stroke-linejoin="round" stroke-miterlimit="10" stroke-width="2"/><text font-family="'OpenSans-Extrabold'" font-size="6" transform="matrix(1 0 0 1 988.6094 405.3115)">download</text><circle cx="996.836" cy="359.65" r="17.008" fill="none" stroke="#777677" stroke-linecap="round" stroke-linejoin="round" stroke-miterlimit="10" stroke-width="2"/><line x1="996.756" x2="996.756" y1="369.016" y2="358.419" fill="none" stroke="#777677" stroke-linecap="round" stroke-linejoin="round" stroke-miterlimit="10" stroke-width="2"/><path fill="none" stroke="#777677" stroke-linecap="round" stroke-linejoin="round" stroke-miterlimit="10" stroke-width="2" d="M1003.531,362.203c1.632,0,2.956-1.324,2.956-2.957c0-1.633-1.324-2.956-2.956-2.956c-0.001,0-0.003,0-0.005,0 c0.001-0.027,0.005-0.054,0.005-0.082c0-3.311-2.685-5.994-5.994-5.994c-2.676,0-4.94,1.754-5.711,4.173 c-0.272-0.06-0.555-0.096-0.846-0.096c-2.185,0-3.955,1.771-3.955,3.955s1.771,3.956,3.955,3.956h5.775"/><g><path fill="#777677" d="M422.012,555.541c-9.93,0-18.008-8.078-18.008-18.008s8.079-18.008,18.008-18.008 s18.008,8.078,18.008,18.008S431.942,555.541,422.012,555.541z M422.012,521.525c-8.827,0-16.008,7.181-16.008,16.008 s7.181,16.008,16.008,16.008c8.827,0,16.008-7.181,16.008-16.008S430.839,521.525,422.012,521.525z"/></g><g><path fill="#777677" d="M431.809,535.621h-19.593c-0.552,0-1-0.447-1-1s0.448-1,1-1h19.593c0.552,0,1,0.447,1,1 S432.361,535.621,431.809,535.621z"/></g><g><path fill="#777677" d="M431.809,539.406h-19.593c-0.552,0-1-0.447-1-1s0.448-1,1-1h19.593c0.552,0,1,0.447,1,1 S432.361,539.406,431.809,539.406z"/></g><g><path fill="#777677" d="M426.909,543.191h-14.693c-0.552,0-1-0.447-1-1s0.448-1,1-1h14.693c0.552,0,1,0.447,1,1 S427.461,543.191,426.909,543.191z"/></g><g><path fill="#777677" d="M357.996,555.541c-9.93,0-18.008-8.078-18.008-18.008s8.079-18.008,18.008-18.008 s18.008,8.078,18.008,18.008S367.926,555.541,357.996,555.541z M357.996,521.525c-8.827,0-16.008,7.181-16.008,16.008 s7.181,16.008,16.008,16.008c8.827,0,16.008-7.181,16.008-16.008S366.823,521.525,357.996,521.525z"/></g><g><path fill="#777677" d="M362.726,546.407h-9.459c-0.552,0-1-0.447-1-1s0.448-1,1-1h9.459c0.552,0,1,0.447,1,1 S363.278,546.407,362.726,546.407z"/></g><g><path fill="#777677" d="M359.996,535.541h-6.729c-0.552,0-1-0.447-1-1s0.448-1,1-1h6.729c0.552,0,1,0.447,1,1 S360.548,535.541,359.996,535.541z"/></g><g><path fill="#777677" d="M359.996,545.407c-0.552,0-1-0.447-1-1v-9.866c0-0.553,0.448-1,1-1s1,0.447,1,1v9.866 C360.996,544.96,360.548,545.407,359.996,545.407z"/></g><g><path fill="#777677" d="M358.022,533.041c-1.667,0-3.023-1.356-3.023-3.023s1.356-3.023,3.023-3.023s3.023,1.356,3.023,3.023 S359.689,533.041,358.022,533.041z M358.022,528.994c-0.564,0-1.023,0.459-1.023,1.023s0.459,1.023,1.023,1.023 s1.023-0.459,1.023-1.023S358.586,528.994,358.022,528.994z"/></g><g><path fill="#777677" d="M355.996,545.407c-0.552,0-1-0.447-1-1v-9.866c0-0.553,0.448-1,1-1s1,0.447,1,1v9.866 C356.996,544.96,356.548,545.407,355.996,545.407z"/></g><g><path fill="#777677" d="M486.028,555.541c-9.93,0-18.008-8.078-18.008-18.008s8.079-18.008,18.008-18.008 s18.008,8.078,18.008,18.008S495.958,555.541,486.028,555.541z M486.028,521.525c-8.827,0-16.008,7.181-16.008,16.008 s7.181,16.008,16.008,16.008c8.827,0,16.008-7.181,16.008-16.008S494.855,521.525,486.028,521.525z"/></g><g><path fill="#777677" d="M484.476,542.662c-0.262,0-0.514-0.103-0.702-0.287l-4.193-4.129c-0.394-0.388-0.398-1.021-0.011-1.414 c0.387-0.395,1.021-0.398,1.414-0.012l3.453,3.399l8.247-9.056c0.372-0.408,1.004-0.439,1.413-0.066 c0.408,0.372,0.438,1.004,0.066,1.412l-8.947,9.825c-0.183,0.201-0.44,0.319-0.712,0.327 C484.494,542.662,484.484,542.662,484.476,542.662z"/></g><g><path fill="#777677" d="M550.044,553.842c-9.93,0-18.008-8.078-18.008-18.008s8.078-18.008,18.008-18.008 s18.008,8.078,18.008,18.008S559.974,553.842,550.044,553.842z M550.044,519.826c-8.827,0-16.008,7.181-16.008,16.008 s7.181,16.008,16.008,16.008s16.008-7.181,16.008-16.008S558.871,519.826,550.044,519.826z"/></g><g><path fill="#777677" d="M556.671,544.818c-0.119,0-0.238-0.021-0.352-0.064l-3.893-1.465c-0.774,0.171-1.574,0.258-2.382,0.258 c-5.091,0-9.232-3.46-9.232-7.713c0-4.254,4.142-7.714,9.232-7.714s9.232,3.46,9.232,7.714c0,1.723-0.684,3.387-1.936,4.734 l0.305,2.95c0.029,0.095,0.045,0.195,0.045,0.3c0,0.553-0.448,1-1,1C556.684,544.818,556.678,544.818,556.671,544.818z M552.493,541.246c0.12,0,0.239,0.021,0.352,0.064l2.665,1.003l-0.207-2.009c-0.032-0.308,0.081-0.613,0.305-0.827 c1.076-1.023,1.668-2.317,1.668-3.644c0-3.15-3.245-5.714-7.232-5.714s-7.232,2.563-7.232,5.714s3.245,5.713,7.232,5.713 c0.752,0,1.494-0.091,2.205-0.271C552.329,541.256,552.411,541.246,552.493,541.246z"/></g><g><path fill="#777677" d="M614.059,553.842c-9.929,0-18.007-8.078-18.007-18.008s8.078-18.008,18.007-18.008 c9.93,0,18.008,8.078,18.008,18.008S623.989,553.842,614.059,553.842z M614.059,519.826c-8.827,0-16.007,7.181-16.007,16.008 s7.181,16.008,16.007,16.008s16.008-7.181,16.008-16.008S622.886,519.826,614.059,519.826z"/></g><g><path fill="#777677" d="M606.244,535.299c-0.303,0-0.603-0.137-0.799-0.397c-0.333-0.441-0.245-1.068,0.196-1.401l8.139-6.139 c0.441-0.332,1.068-0.245,1.4,0.196c0.333,0.441,0.245,1.068-0.196,1.401l-8.139,6.139 C606.665,535.233,606.453,535.299,606.244,535.299z"/></g><g><path fill="#777677" d="M622.708,535.299c-0.209,0-0.421-0.065-0.601-0.201l-8.139-6.139c-0.441-0.333-0.529-0.96-0.196-1.401 c0.332-0.44,0.959-0.528,1.4-0.196l8.139,6.139c0.441,0.333,0.529,0.96,0.196,1.401 C623.311,535.161,623.012,535.299,622.708,535.299z"/></g><g><path fill="#777677" d="M620.571,542.562h-12c-0.552,0-1-0.447-1-1v-8.825c0-0.553,0.448-1,1-1s1,0.447,1,1v7.825h10v-7.825 c0-0.553,0.448-1,1-1s1,0.447,1,1v8.825C621.571,542.114,621.123,542.562,620.571,542.562z"/></g><g><path fill="#777677" d="M678.074,553.842c-9.93,0-18.008-8.078-18.008-18.008s8.078-18.008,18.008-18.008 s18.008,8.078,18.008,18.008S688.004,553.842,678.074,553.842z M678.074,519.826c-8.827,0-16.008,7.181-16.008,16.008 s7.181,16.008,16.008,16.008s16.008-7.181,16.008-16.008S686.901,519.826,678.074,519.826z"/></g><g><path fill="#777677" d="M678.074,536.93c-2.259,0-4.096-1.837-4.096-4.096s1.837-4.096,4.096-4.096s4.096,1.837,4.096,4.096 S680.333,536.93,678.074,536.93z M678.074,530.738c-1.155,0-2.096,0.94-2.096,2.096s0.94,2.096,2.096,2.096 s2.096-0.94,2.096-2.096S679.229,530.738,678.074,530.738z"/></g><g><path fill="#777677" d="M678.074,546.648c-0.24,0-0.479-0.086-0.67-0.258c-0.29-0.262-7.113-6.505-7.113-13.969 c0-4.291,3.491-7.782,7.783-7.782s7.783,3.491,7.783,7.782c0,7.464-6.823,13.707-7.113,13.969 C678.554,546.562,678.314,546.648,678.074,546.648z M678.074,526.64c-3.188,0-5.783,2.594-5.783,5.782 c0,5.294,4.13,10.108,5.782,11.821c1.651-1.716,5.784-6.54,5.784-11.821C683.857,529.233,681.263,526.64,678.074,526.64z"/></g><g><path fill="#777677" d="M742.09,553.842c-9.93,0-18.008-8.078-18.008-18.008s8.078-18.008,18.008-18.008 s18.008,8.078,18.008,18.008S752.02,553.842,742.09,553.842z M742.09,519.826c-8.827,0-16.008,7.181-16.008,16.008 s7.181,16.008,16.008,16.008s16.008-7.181,16.008-16.008S750.917,519.826,742.09,519.826z"/></g><g><path fill="#777677" d="M741.479,544.802c-2.001,0-4.003-0.762-5.527-2.286c-1.477-1.477-2.29-3.44-2.29-5.528 s0.813-4.051,2.291-5.527c0.391-0.391,1.023-0.391,1.414,0s0.391,1.023,0,1.414c-1.1,1.1-1.705,2.561-1.705,4.114 c0,1.553,0.605,3.014,1.704,4.113c2.267,2.267,5.959,2.269,8.228,0l3.813-3.813c0.391-0.391,1.023-0.391,1.414,0 s0.391,1.023,0,1.414l-3.813,3.813C745.483,544.04,743.481,544.802,741.479,544.802z"/></g><g><path fill="#777677" d="M744.237,539.994c-0.256,0-0.512-0.098-0.707-0.293c-0.391-0.391-0.391-1.023,0-1.414l5.52-5.521 c0.391-0.391,1.023-0.391,1.414,0s0.391,1.023,0,1.414l-5.52,5.521C744.749,539.896,744.493,539.994,744.237,539.994z"/></g><g><path fill="#777677" d="M741.797,537.555c-0.256,0-0.512-0.098-0.707-0.293c-0.391-0.391-0.391-1.023,0-1.414l6.741-6.74 c0.391-0.391,1.023-0.391,1.414,0s0.391,1.023,0,1.414l-6.741,6.74C742.309,537.457,742.053,537.555,741.797,537.555z"/></g><g><path fill="#777677" d="M739.358,535.115c-0.256,0-0.512-0.098-0.707-0.293c-0.391-0.391-0.391-1.023,0-1.414l5.52-5.521 c0.391-0.391,1.023-0.391,1.414,0s0.391,1.023,0,1.414l-5.52,5.521C739.87,535.018,739.614,535.115,739.358,535.115z"/></g><g><path fill="#777677" d="M736.821,533.006c-0.256,0-0.512-0.098-0.707-0.293c-0.391-0.391-0.391-1.023,0-1.414 c0.657-0.658,0.658-1.729,0.001-2.386c-0.391-0.391-0.391-1.024,0-1.414c0.391-0.391,1.023-0.391,1.414,0 c1.437,1.438,1.437,3.776-0.001,5.214C737.333,532.908,737.077,533.006,736.821,533.006z"/></g><g><path fill="#777677" d="M804.789,553.842c-9.93,0-18.008-8.078-18.008-18.008s8.078-18.008,18.008-18.008 s18.008,8.078,18.008,18.008S814.719,553.842,804.789,553.842z M804.789,519.826c-8.827,0-16.008,7.181-16.008,16.008 s7.181,16.008,16.008,16.008s16.008-7.181,16.008-16.008S813.616,519.826,804.789,519.826z"/></g><g><path fill="#777677" d="M799.659,543.25c-0.553,0-1-0.447-1-1c0-5.923,4.819-10.742,10.742-10.742c0.553,0,1,0.447,1,1 s-0.447,1-1,1c-4.82,0-8.742,3.922-8.742,8.742C800.659,542.803,800.212,543.25,799.659,543.25z"/></g><g><path fill="#777677" d="M807.801,536.898c-0.256,0-0.512-0.098-0.707-0.293c-0.391-0.391-0.391-1.023,0-1.414l2.685-2.684 l-2.685-2.684c-0.391-0.391-0.391-1.023,0-1.414s1.023-0.391,1.414,0l3.392,3.391c0.188,0.188,0.293,0.441,0.293,0.707 s-0.105,0.52-0.293,0.707l-3.392,3.391C808.312,536.801,808.057,536.898,807.801,536.898z"/></g><g><path fill="#777677" d="M996.756,546.199c-0.266,0-0.52-0.105-0.707-0.293l-3.391-3.393c-0.391-0.391-0.391-1.024,0-1.414 c0.391-0.391,1.023-0.391,1.414,0l2.684,2.685l2.684-2.685c0.391-0.391,1.023-0.391,1.414,0c0.391,0.39,0.391,1.023,0,1.414 l-3.391,3.393C997.275,546.094,997.021,546.199,996.756,546.199z"/></g><g><path fill="#777677" d="M868.805,553.842c-9.93,0-18.008-8.078-18.008-18.008s8.078-18.008,18.008-18.008 s18.008,8.078,18.008,18.008S878.734,553.842,868.805,553.842z M868.805,519.826c-8.827,0-16.008,7.181-16.008,16.008 s7.181,16.008,16.008,16.008s16.008-7.181,16.008-16.008S877.632,519.826,868.805,519.826z"/></g><g><path fill="#777677" d="M868.805,538.748c-1.606,0-2.914-1.308-2.914-2.914c0-1.607,1.308-2.915,2.914-2.915 s2.914,1.308,2.914,2.915C871.719,537.44,870.411,538.748,868.805,538.748z M868.805,534.919c-0.504,0-0.914,0.41-0.914,0.915 c0,0.504,0.41,0.914,0.914,0.914s0.914-0.41,0.914-0.914C869.719,535.329,869.309,534.919,868.805,534.919z"/></g><g><path fill="#777677" d="M868.805,531.178c-1.606,0-2.914-1.308-2.914-2.914c0-1.607,1.308-2.915,2.914-2.915 s2.914,1.308,2.914,2.915C871.719,529.87,870.411,531.178,868.805,531.178z M868.805,527.349c-0.504,0-0.914,0.41-0.914,0.915 c0,0.504,0.41,0.914,0.914,0.914s0.914-0.41,0.914-0.914C869.719,527.759,869.309,527.349,868.805,527.349z"/></g><g><path fill="#777677" d="M868.805,546.319c-1.606,0-2.914-1.308-2.914-2.914c0-1.607,1.308-2.916,2.914-2.916 s2.914,1.309,2.914,2.916C871.719,545.012,870.411,546.319,868.805,546.319z M868.805,542.489c-0.504,0-0.914,0.411-0.914,0.916 c0,0.504,0.41,0.914,0.914,0.914s0.914-0.41,0.914-0.914C869.719,542.9,869.309,542.489,868.805,542.489z"/></g><g><path fill="#777677" d="M866.517,536.853c-2.644,0-4.795-2.15-4.795-4.794s2.151-4.795,4.795-4.795c0.553,0,1,0.447,1,1 s-0.447,1-1,1c-1.541,0-2.795,1.254-2.795,2.795s1.254,2.794,2.795,2.794c0.553,0,1,0.447,1,1S867.069,536.853,866.517,536.853z"/></g><g><path fill="#777677" d="M871.094,544.472c-0.553,0-1-0.447-1-1s0.447-1,1-1c1.541,0,2.794-1.254,2.794-2.795 s-1.253-2.794-2.794-2.794c-0.553,0-1-0.447-1-1s0.447-1,1-1c2.644,0,4.794,2.15,4.794,4.794S873.737,544.472,871.094,544.472z"/></g><g><path fill="#777677" d="M932.82,553.842c-9.93,0-18.008-8.078-18.008-18.008s8.078-18.008,18.008-18.008 s18.008,8.078,18.008,18.008S942.75,553.842,932.82,553.842z M932.82,519.826c-8.827,0-16.008,7.181-16.008,16.008 s7.181,16.008,16.008,16.008s16.008-7.181,16.008-16.008S941.647,519.826,932.82,519.826z"/></g><g><path fill="#777677" d="M942.305,545.314h-18.969c-0.553,0-1-0.447-1-1v-16.051c0-0.553,0.447-1,1-1h18.969c0.553,0,1,0.447,1,1 v16.051C943.305,544.867,942.857,545.314,942.305,545.314z M924.336,543.314h16.969v-14.051h-16.969V543.314z"/></g><g><path fill="#777677" d="M927.82,531.264c-0.553,0-1-0.447-1-1v-4.445c0-0.553,0.447-1,1-1s1,0.447,1,1v4.445 C928.82,530.816,928.373,531.264,927.82,531.264z"/></g><g><path fill="#777677" d="M937.82,531.264c-0.553,0-1-0.447-1-1v-4.445c0-0.553,0.447-1,1-1s1,0.447,1,1v4.445 C938.82,530.816,938.373,531.264,937.82,531.264z"/></g><g><path fill="#777677" d="M942.305,534.326h-18.969c-0.553,0-1-0.447-1-1s0.447-1,1-1h18.969c0.553,0,1,0.447,1,1 S942.857,534.326,942.305,534.326z"/></g><g><path fill="#777677" d="M927.82,538.466c-0.553,0-1-0.447-1-1v-0.91c0-0.553,0.447-1,1-1s1,0.447,1,1v0.91 C928.82,538.019,928.373,538.466,927.82,538.466z"/></g><g><path fill="#777677" d="M932.82,538.466c-0.553,0-1-0.447-1-1v-0.91c0-0.553,0.447-1,1-1s1,0.447,1,1v0.91 C933.82,538.019,933.373,538.466,932.82,538.466z"/></g><g><path fill="#777677" d="M937.82,538.466c-0.553,0-1-0.447-1-1v-0.91c0-0.553,0.447-1,1-1s1,0.447,1,1v0.91 C938.82,538.019,938.373,538.466,937.82,538.466z"/></g><g><path fill="#777677" d="M927.82,542.262c-0.553,0-1-0.447-1-1v-0.91c0-0.553,0.447-1,1-1s1,0.447,1,1v0.91 C928.82,541.814,928.373,542.262,927.82,542.262z"/></g><g><path fill="#777677" d="M932.82,542.262c-0.553,0-1-0.447-1-1v-0.91c0-0.553,0.447-1,1-1s1,0.447,1,1v0.91 C933.82,541.814,933.373,542.262,932.82,542.262z"/></g><g><path fill="#777677" d="M937.82,542.262c-0.553,0-1-0.447-1-1v-0.91c0-0.553,0.447-1,1-1s1,0.447,1,1v0.91 C938.82,541.814,938.373,542.262,937.82,542.262z"/></g><g><path fill="#777677" d="M996.836,553.842c-9.93,0-18.008-8.078-18.008-18.008s8.078-18.008,18.008-18.008 s18.008,8.078,18.008,18.008S1006.766,553.842,996.836,553.842z M996.836,519.826c-8.827,0-16.008,7.181-16.008,16.008 s7.181,16.008,16.008,16.008s16.008-7.181,16.008-16.008S1005.663,519.826,996.836,519.826z"/></g><g><path fill="#777677" d="M996.756,546.199c-0.553,0-1-0.447-1-1v-10.596c0-0.553,0.447-1,1-1s1,0.447,1,1v10.596 C997.756,545.752,997.309,546.199,996.756,546.199z"/></g><g><path fill="#777677" d="M1003.531,539.387c-0.553,0-1-0.447-1-1s0.447-1,1-1c1.078,0,1.956-0.878,1.956-1.957 c0-1.078-0.878-1.955-1.956-1.955c-0.271,0-0.533-0.11-0.722-0.306s-0.292-0.459-0.282-0.73c0.004-2.8-2.236-5.04-4.99-5.04 c-2.184,0-4.096,1.397-4.758,3.478c-0.157,0.494-0.671,0.781-1.17,0.673c-1.95-0.438-3.584,1.051-3.584,2.883 c0,1.63,1.325,2.955,2.955,2.955h5.775c0.553,0,1,0.447,1,1s-0.447,1-1,1h-5.775c-2.732,0-4.955-2.223-4.955-4.955 c0-2.798,2.354-5.073,5.151-4.951c1.126-2.472,3.587-4.082,6.36-4.082c3.586,0,6.55,2.712,6.948,6.193 c1.724,0.429,3.002,1.987,3.002,3.838C1007.487,537.611,1005.713,539.387,1003.531,539.387z"/></g><text font-family="'OpenSans-Light'" font-size="18" transform="matrix(1 0 0 1 349.0957 488.0898)">trazados</text></g></switch></svg>