<svg xmlns="http://www.w3.org/2000/svg" xmlns:xlink="http://www.w3.org/1999/xlink" width="960" height="560" x="0" y="0" enable-background="new 0 0 960 560" version="1.1" viewBox="0 0 960 560" xml:space="preserve"><switch><g><g id="Layer_1"><g><path fill="#0E161C" d="M441.143,121.063v5.778c0,14.446-10.297,22.521-22.67,22.521h-19.26v-50.82h19.26 C430.846,98.542,441.143,106.617,441.143,121.063z M410.694,140.25h7.778c6.076,0,10.669-4.001,10.669-11.78v-9.038 c0-7.778-4.593-11.78-10.669-11.78h-7.778V140.25z"/><path fill="#0E161C" d="M466.408,150.104h-1.187c-10.519,0-18.52-6.816-18.52-18.596v-2.147c0-11.78,8.149-18.596,18.52-18.596 h1.187c9.038,0,17.187,5.706,17.187,15.854v5.631h-25.93v1.778c0,4.815,2.963,8.667,8.149,8.667 c4.444,0,7.333-2.444,7.333-7.482h10.373C483.521,145.657,475.148,150.104,466.408,150.104z M457.665,126.323h14.965 c0-4.667-1.926-8.149-7.335-8.149C460.851,118.174,458.036,121.729,457.665,126.323z"/><path fill="#0E161C" d="M507.821,142.694c4.444,0,7.334-2.741,7.334-8.37h10.222c0,10.964-7.853,15.779-16.371,15.779h-1.185 c-10.966,0-18.076-6.816-18.076-18.596v-2.147c0-11.78,7.63-18.596,18.076-18.596h1.185c8.593,0,16.371,5.706,16.371,15.854 h-10.741c0-4.889-2.147-8.444-6.742-8.444c-4.593,0-7.185,4.148-7.185,9.26v6.594 C500.709,138.843,503.301,142.694,507.821,142.694z"/><path fill="#0E161C" d="M542.419,96.023v8.519h-10.964v-8.519H542.419z M531.529,111.506h10.815v37.856h-10.815V111.506z"/><path fill="#0E161C" d="M574.349,144.621c-2.37,3.111-5.704,5.482-10.667,5.482c-8.667,0-15.706-6.15-15.706-19.484v-0.816 c0-12.668,6.52-19.039,14.595-19.039c5.185,0,8.741,2.668,10.594,5.112V96.023h10.815v53.339h-8.519L574.349,144.621z M566.053,142.694c4,0,7.111-2.963,7.111-8.963v-6.148c0-6-3.111-8.965-7.111-8.965c-4.001,0-7.112,2.965-7.112,8.965v6.148 C558.94,139.731,562.052,142.694,566.053,142.694z"/><path fill="#0E161C" d="M603.762,96.023v8.519h-10.964v-8.519H603.762z M592.872,111.506h10.815v37.856h-10.815V111.506z"/><path fill="#0E161C" d="M643.989,116.841c2.74-4.298,6.593-6.076,11.038-6.076c6.815,0,12.371,4.224,12.371,12.151v26.447 h-10.815v-24.3c0-4.148-1.927-6.445-5.038-6.445c-3.408,0-6.148,3.039-6.148,7.261v23.484H634.58v-24.3 c0-4.148-2-6.445-5.111-6.445c-3.408,0-6.074,3.039-6.074,7.261v23.484h-10.816v-37.856h8.149 c0.443,1.853,0.814,3.705,1.185,5.555c2.741-4.296,6.668-6.297,11.113-6.297C637.766,110.765,641.914,112.84,643.989,116.841z"/></g><g><path fill="#0E161C" d="M435.107,184.771c0,5.852-2.815,10.149-8.889,11.854v0.369c5.555,0.891,10.074,5.188,10.074,12.299 c0,8.446-6.888,13.854-14.075,13.854h-22.964v-50.82h22.52C429.106,172.325,435.107,177.806,435.107,184.771z M406.511,178.919 v15.037h13.779c3.779,0,7.558-3.111,7.558-7.481c0-4.148-3.408-7.556-7.558-7.556H406.511z M406.511,200.55v16.002h14.52 c4.445,0,8.001-3.557,8.001-8.001s-3.556-8.001-8.001-8.001H406.511z"/><path fill="#0E161C" d="M472.302,196.105v19.631c0,1.854,0.964,2.594,2.075,2.594c1.185,0,2.297-0.369,3.408-1.037v5.11 c-1.63,0.965-3.556,1.483-5.706,1.483c-4.444,0-6.223-2.889-6.443-6.815c-3.039,4.519-7.409,6.815-13.261,6.815 c-8.149,0-12.372-3.334-12.372-11.262c0-8.964,6.297-12.224,25.336-12.224v-3.482c0-5.258-3.408-6.814-8.668-6.814 c-5.333,0-8.444,2.149-8.444,5.927v0.888h-6.816c-0.074-0.517-0.148-1.331-0.148-2.443c0-5.259,6.742-9.928,15.557-9.928h0.667 C467.561,184.548,472.302,188.697,472.302,196.105z M446.966,213.218c0,3.408,2.594,5.112,7.778,5.112 c5.483,0,10.595-4.223,10.595-11.038v-1.481C449.411,205.811,446.966,208.182,446.966,213.218z"/><path fill="#0E161C" d="M544.543,200.179h-6.891c0-5.926-3.037-10.074-9.037-10.074c-6.074,0-10.002,4.297-10.002,11.483v4 c0,8.816,3.928,12.742,10.225,12.742c6.223,0,9.037-4.148,9.037-10h6.668c0,9.557-6.223,15.557-15.631,15.557h-0.594 c-10.223,0-16.668-7.483-16.668-18.742v-1.78c0-11.333,6.666-18.816,16.594-18.816h0.594 C537.949,184.548,544.543,190.771,544.543,200.179z"/><path fill="#0E161C" d="M581.736,200.55v5.261h-26.447c0.223,7.853,3.631,12.52,10.742,12.52c6.741,0,9.113-4.815,9.113-9.26 h6.592c0,8.963-6.592,14.816-15.854,14.816h-0.295c-10.743,0-17.262-7.483-17.262-18.891v-1.483 c0-11.259,6.519-18.965,17.039-18.965h0.518C575.219,184.548,581.736,190.771,581.736,200.55z M555.438,200.401h19.41v-0.888 c0-5.632-3.705-9.409-9.334-9.409C559.956,190.104,556.253,193.513,555.438,200.401z"/><path fill="#0E161C" d="M592.484,223.146h-6.965v-53.339h6.965V223.146z"/><path fill="#0E161C" d="M631.304,202.847v2.741c0,11.335-6.667,18.299-17.409,18.299c-10.743,0-17.409-6.964-17.409-18.299 v-2.741c0-11.482,6.889-18.299,17.409-18.299C624.414,184.548,631.304,191.364,631.304,202.847z M603.448,203.513v1.409 c0,8.519,3.705,13.408,10.446,13.408c6.443,0,10.445-4.519,10.445-13.408v-1.409c0-8.519-3.705-13.408-10.445-13.408 C607.375,190.104,603.448,194.624,603.448,203.513z"/><path fill="#0E161C" d="M667.092,197.661v25.484h-6.965v-24.224c0-6.445-3.26-8.817-8.001-8.817 c-5.332,0-10.073,4.668-10.073,10.52v22.521h-6.965V185.29h5.038l0.962,5.555c3.186-4.222,7.409-6.297,12.668-6.297 C661.831,184.548,667.092,188.92,667.092,197.661z"/><path fill="#0E161C" d="M702.878,196.105v19.631c0,1.854,0.964,2.594,2.074,2.594c1.186,0,2.298-0.369,3.408-1.037v5.11 c-1.63,0.965-3.557,1.483-5.705,1.483c-4.444,0-6.223-2.889-6.443-6.815c-3.039,4.519-7.41,6.815-13.262,6.815 c-8.149,0-12.371-3.334-12.371-11.262c0-8.964,6.297-12.224,25.336-12.224v-3.482c0-5.258-3.408-6.814-8.669-6.814 c-5.332,0-8.443,2.149-8.443,5.927v0.888h-6.816c-0.074-0.517-0.148-1.331-0.148-2.443c0-5.259,6.742-9.928,15.557-9.928h0.668 C698.137,184.548,702.878,188.697,702.878,196.105z M677.542,213.218c0,3.408,2.594,5.112,7.778,5.112 c5.482,0,10.595-4.223,10.595-11.038v-1.481C679.987,205.811,677.542,208.182,677.542,213.218z"/></g><path fill="#ED6A5A" d="M326.36,223.146c19.882-0.197,35.959-16.276,36.158-36.153v-0.742 c-0.199-19.885-16.276-35.959-36.158-36.155h-0.005v-0.731l0,0c19.887-0.197,35.961-16.276,36.164-36.16v-0.736 c-0.202-19.884-16.276-35.961-36.158-36.157h-73.79h0.003v73.05h-0.003v0.735h0.003v73.045h-0.003h0.003v0.005 c0.022,0,0.042-0.005,0.069-0.005L326.36,223.146z M325.625,150.095L325.625,150.095v-0.731l0,0V150.095z"/><g><path fill="#31536E" d="M325.614,150.095c-19.877,0.196-35.953,16.27-36.155,36.155 C309.342,186.053,325.423,169.978,325.614,150.095z"/><path fill="#31536E" d="M289.458,186.992c0.202,19.877,16.278,35.956,36.155,36.153 C325.423,203.267,309.342,187.189,289.458,186.992z"/><path fill="#31536E" d="M288.73,186.25c-0.195-19.885-16.277-35.959-36.157-36.155 C252.772,169.978,268.85,186.053,288.73,186.25z"/><path fill="#31536E" d="M288.73,186.992c-19.882,0.197-35.963,16.274-36.157,36.153 C272.454,222.948,288.535,206.869,288.73,186.992z"/><path fill="#31536E" d="M288.73,112.467c-0.195-19.884-16.277-35.961-36.157-36.157 C252.772,96.189,268.85,112.267,288.73,112.467z"/><path fill="#31536E" d="M288.73,113.204c-19.882,0.199-35.963,16.277-36.157,36.16 C272.454,149.167,288.535,133.087,288.73,113.204z"/><path fill="#31536E" d="M325.614,76.311c-19.877,0.195-35.953,16.273-36.155,36.157 C309.342,112.267,325.423,96.189,325.614,76.311z"/><path fill="#31536E" d="M289.458,113.21c0.202,19.877,16.278,35.956,36.155,36.153 C325.423,129.482,309.342,113.402,289.458,113.21z"/></g><g><path fill="#A0C3BF" d="M252.574,223.146c0.194-19.879,16.275-35.956,36.157-36.153v-0.742 c-19.88-0.197-35.958-16.272-36.157-36.155V223.146z"/><path fill="#A0C3BF" d="M362.519,186.25c-19.883-0.197-35.961-16.272-36.158-36.155h-0.747 c-0.191,19.882-16.272,35.958-36.155,36.155v0.742c19.883,0.197,35.964,16.274,36.155,36.153h0.747 c0.192-19.879,16.275-35.956,36.158-36.153V186.25z"/><path fill="#A0C3BF" d="M252.574,149.364c0.194-19.883,16.275-35.961,36.157-36.16v-0.736 c-19.88-0.201-35.958-16.278-36.157-36.157V149.364z"/><path fill="#A0C3BF" d="M362.519,112.467c-19.883-0.201-35.961-16.278-36.158-36.157h-0.747 c-0.191,19.878-16.272,35.956-36.155,36.157v0.743c19.883,0.192,35.964,16.271,36.155,36.153h0.741 c0.197-19.883,16.28-35.961,36.164-36.16V112.467z"/></g><path fill="#0E161C" d="M509.242,196.402l-0.223,2.814h-6.148v-1.63c0-4.741-4.074-7.482-7.334-7.482 c-4.741,0-7.556,4.074-7.556,10.445v22.596h-6.964V185.29h4.963l1.037,5.629c0.89-2.814,5.111-6.371,11.038-6.371 C505.391,184.548,509.242,189.883,509.242,196.402z"/></g><g id="Negativo"><g><path fill="#D9E7E5" d="M441.143,350.557v5.777c0,14.446-10.297,22.521-22.67,22.521h-19.26v-50.82h19.26 C430.846,328.035,441.143,336.109,441.143,350.557z M410.694,369.744h7.778c6.076,0,10.669-4.002,10.669-11.78v-9.038 c0-7.777-4.593-11.779-10.669-11.779h-7.778V369.744z"/><path fill="#D9E7E5" d="M466.408,379.597h-1.187c-10.519,0-18.52-6.815-18.52-18.596v-2.147c0-11.779,8.149-18.596,18.52-18.596 h1.187c9.038,0,17.187,5.705,17.187,15.854v5.631h-25.93v1.779c0,4.814,2.963,8.666,8.149,8.666 c4.444,0,7.333-2.443,7.333-7.482h10.373C483.521,375.15,475.148,379.597,466.408,379.597z M457.665,355.816h14.965 c0-4.667-1.926-8.148-7.335-8.148C460.851,347.668,458.036,351.223,457.665,355.816z"/><path fill="#D9E7E5" d="M507.821,372.188c4.444,0,7.334-2.74,7.334-8.37h10.222c0,10.964-7.853,15.779-16.371,15.779h-1.185 c-10.966,0-18.076-6.815-18.076-18.596v-2.147c0-11.779,7.63-18.596,18.076-18.596h1.185c8.593,0,16.371,5.705,16.371,15.854 h-10.741c0-4.889-2.147-8.443-6.742-8.443c-4.593,0-7.185,4.147-7.185,9.26v6.594 C500.709,368.336,503.301,372.188,507.821,372.188z"/><path fill="#D9E7E5" d="M542.419,325.517v8.519h-10.964v-8.519H542.419z M531.529,341h10.815v37.855h-10.815V341z"/><path fill="#D9E7E5" d="M574.349,374.114c-2.37,3.111-5.704,5.482-10.667,5.482c-8.667,0-15.706-6.149-15.706-19.483v-0.816 c0-12.668,6.52-19.039,14.595-19.039c5.185,0,8.741,2.668,10.594,5.112v-19.854h10.815v53.339h-8.519L574.349,374.114z M566.053,372.188c4,0,7.111-2.963,7.111-8.963v-6.148c0-6.001-3.111-8.966-7.111-8.966c-4.001,0-7.112,2.965-7.112,8.966v6.148 C558.94,369.225,562.052,372.188,566.053,372.188z"/><path fill="#D9E7E5" d="M603.762,325.517v8.519h-10.964v-8.519H603.762z M592.872,341h10.815v37.855h-10.815V341z"/><path fill="#D9E7E5" d="M643.989,346.334c2.74-4.298,6.593-6.076,11.038-6.076c6.815,0,12.371,4.225,12.371,12.15v26.447 h-10.815v-24.3c0-4.147-1.927-6.445-5.038-6.445c-3.408,0-6.148,3.039-6.148,7.261v23.484H634.58v-24.3 c0-4.147-2-6.445-5.111-6.445c-3.408,0-6.074,3.039-6.074,7.261v23.484h-10.816V341h8.149c0.443,1.852,0.814,3.704,1.185,5.555 c2.741-4.296,6.668-6.297,11.113-6.297C637.766,340.258,641.914,342.333,643.989,346.334z"/></g><g><path fill="#D9E7E5" d="M435.107,414.264c0,5.852-2.815,10.149-8.889,11.854v0.369c5.555,0.891,10.074,5.188,10.074,12.299 c0,8.446-6.888,13.854-14.075,13.854h-22.964v-50.82h22.52C429.106,401.818,435.107,407.299,435.107,414.264z M406.511,408.412 v15.037h13.779c3.779,0,7.558-3.111,7.558-7.481c0-4.148-3.408-7.556-7.558-7.556H406.511z M406.511,430.043v16.002h14.52 c4.445,0,8.001-3.557,8.001-8.001s-3.556-8.001-8.001-8.001H406.511z"/><path fill="#D9E7E5" d="M472.302,425.599v19.631c0,1.854,0.964,2.594,2.075,2.594c1.185,0,2.297-0.369,3.408-1.037v5.11 c-1.63,0.965-3.556,1.483-5.706,1.483c-4.444,0-6.223-2.889-6.443-6.815c-3.039,4.519-7.409,6.815-13.261,6.815 c-8.149,0-12.372-3.334-12.372-11.262c0-8.964,6.297-12.224,25.336-12.224v-3.482c0-5.258-3.408-6.814-8.668-6.814 c-5.333,0-8.444,2.149-8.444,5.927v0.888h-6.816c-0.074-0.517-0.148-1.331-0.148-2.443c0-5.259,6.742-9.928,15.557-9.928h0.667 C467.561,414.041,472.302,418.19,472.302,425.599z M446.966,442.711c0,3.408,2.594,5.112,7.778,5.112 c5.483,0,10.595-4.223,10.595-11.038v-1.481C449.411,435.304,446.966,437.675,446.966,442.711z"/><path fill="#D9E7E5" d="M509.242,425.896l-0.223,2.814h-6.148v-1.63c0-4.741-4.074-7.482-7.334-7.482 c-4.741,0-7.556,4.074-7.556,10.445v22.596h-6.964v-37.855h4.963l1.037,5.629c0.89-2.814,5.111-6.371,11.038-6.371 C505.391,414.041,509.242,419.376,509.242,425.896z"/><path fill="#D9E7E5" d="M544.543,429.672h-6.891c0-5.926-3.037-10.074-9.037-10.074c-6.074,0-10.002,4.297-10.002,11.483v4 c0,8.816,3.928,12.742,10.225,12.742c6.223,0,9.037-4.148,9.037-10h6.668c0,9.557-6.223,15.557-15.631,15.557h-0.594 c-10.223,0-16.668-7.483-16.668-18.742v-1.78c0-11.333,6.666-18.816,16.594-18.816h0.594 C537.949,414.041,544.543,420.264,544.543,429.672z"/><path fill="#D9E7E5" d="M581.736,430.043v5.261h-26.447c0.223,7.853,3.631,12.52,10.742,12.52c6.741,0,9.113-4.815,9.113-9.26 h6.592c0,8.963-6.592,14.816-15.854,14.816h-0.295c-10.743,0-17.262-7.483-17.262-18.891v-1.483 c0-11.259,6.519-18.965,17.039-18.965h0.518C575.219,414.041,581.736,420.264,581.736,430.043z M555.438,429.895h19.41v-0.888 c0-5.632-3.705-9.409-9.334-9.409C559.956,419.598,556.253,423.006,555.438,429.895z"/><path fill="#D9E7E5" d="M592.484,452.639h-6.965V399.3h6.965V452.639z"/><path fill="#D9E7E5" d="M631.304,432.34v2.741c0,11.335-6.667,18.299-17.409,18.299c-10.743,0-17.409-6.964-17.409-18.299 v-2.741c0-11.482,6.889-18.299,17.409-18.299C624.414,414.041,631.304,420.857,631.304,432.34z M603.448,433.006v1.409 c0,8.519,3.705,13.408,10.446,13.408c6.443,0,10.445-4.519,10.445-13.408v-1.409c0-8.519-3.705-13.408-10.445-13.408 C607.375,419.598,603.448,424.117,603.448,433.006z"/><path fill="#D9E7E5" d="M667.092,427.154v25.484h-6.965v-24.224c0-6.445-3.26-8.817-8.001-8.817 c-5.332,0-10.073,4.668-10.073,10.52v22.521h-6.965v-37.855h5.038l0.962,5.555c3.186-4.222,7.409-6.297,12.668-6.297 C661.831,414.041,667.092,418.413,667.092,427.154z"/><path fill="#D9E7E5" d="M702.878,425.599v19.631c0,1.854,0.964,2.594,2.074,2.594c1.186,0,2.298-0.369,3.408-1.037v5.11 c-1.63,0.965-3.557,1.483-5.705,1.483c-4.444,0-6.223-2.889-6.443-6.815c-3.039,4.519-7.41,6.815-13.262,6.815 c-8.149,0-12.371-3.334-12.371-11.262c0-8.964,6.297-12.224,25.336-12.224v-3.482c0-5.258-3.408-6.814-8.669-6.814 c-5.332,0-8.443,2.149-8.443,5.927v0.888h-6.816c-0.074-0.517-0.148-1.331-0.148-2.443c0-5.259,6.742-9.928,15.557-9.928h0.668 C698.137,414.041,702.878,418.19,702.878,425.599z M677.542,442.711c0,3.408,2.594,5.112,7.778,5.112 c5.482,0,10.595-4.223,10.595-11.038v-1.481C679.987,435.304,677.542,437.675,677.542,442.711z"/></g><path fill="#ED6A5A" d="M326.36,452.639c19.882-0.197,35.959-16.276,36.158-36.153v-0.742 c-0.199-19.885-16.276-35.959-36.158-36.155h-0.005v-0.73l0,0c19.887-0.197,35.961-16.277,36.164-36.16v-0.736 c-0.202-19.885-16.276-35.962-36.158-36.157h-73.79h0.003v73.05h-0.003v0.734h0.003v73.046h-0.003h0.003v0.005 c0.022,0,0.042-0.005,0.069-0.005L326.36,452.639z M325.625,379.588L325.625,379.588v-0.73l0,0V379.588z"/><g><path fill="#31536E" d="M325.614,379.588c-19.877,0.196-35.953,16.271-36.155,36.155 C309.342,415.546,325.423,399.471,325.614,379.588z"/><path fill="#31536E" d="M289.458,416.485c0.202,19.877,16.278,35.956,36.155,36.153 C325.423,432.76,309.342,416.683,289.458,416.485z"/><path fill="#31536E" d="M288.73,415.743c-0.195-19.885-16.277-35.959-36.157-36.155 C252.772,399.471,268.85,415.546,288.73,415.743z"/><path fill="#31536E" d="M288.73,416.485c-19.882,0.197-35.963,16.274-36.157,36.153 C272.454,452.441,288.535,436.362,288.73,416.485z"/><path fill="#31536E" d="M288.73,341.961c-0.195-19.885-16.277-35.962-36.157-36.157 C252.772,325.682,268.85,341.76,288.73,341.961z"/><path fill="#31536E" d="M288.73,342.697c-19.882,0.198-35.963,16.276-36.157,36.16 C272.454,378.66,288.535,362.58,288.73,342.697z"/><path fill="#31536E" d="M325.614,305.804c-19.877,0.195-35.953,16.272-36.155,36.157 C309.342,341.76,325.423,325.682,325.614,305.804z"/><path fill="#31536E" d="M289.458,342.703c0.202,19.877,16.278,35.957,36.155,36.154 C325.423,358.975,309.342,342.896,289.458,342.703z"/></g><g><path fill="#A0C3BF" d="M252.574,452.639c0.194-19.879,16.275-35.956,36.157-36.153v-0.742 c-19.88-0.197-35.958-16.272-36.157-36.155V452.639z"/><path fill="#A0C3BF" d="M362.519,415.743c-19.883-0.197-35.961-16.272-36.158-36.155h-0.747 c-0.191,19.883-16.272,35.958-36.155,36.155v0.742c19.883,0.197,35.964,16.274,36.155,36.153h0.747 c0.192-19.879,16.275-35.956,36.158-36.153V415.743z"/><path fill="#A0C3BF" d="M252.574,378.857c0.194-19.884,16.275-35.962,36.157-36.16v-0.736 c-19.88-0.201-35.958-16.279-36.157-36.157V378.857z"/><path fill="#A0C3BF" d="M362.519,341.961c-19.883-0.201-35.961-16.279-36.158-36.157h-0.747 c-0.191,19.878-16.272,35.956-36.155,36.157v0.742c19.883,0.192,35.964,16.271,36.155,36.154h0.741 c0.197-19.884,16.28-35.962,36.164-36.16V341.961z"/></g></g></g></switch></svg>