<svg xmlns="http://www.w3.org/2000/svg" xmlns:xlink="http://www.w3.org/1999/xlink" id="Layer_1" width="1350" height="768" x="0" y="0" enable-background="new 0 0 1350 768" version="1.1" viewBox="0 0 1350 768" xml:space="preserve"><switch><g><path fill="#F47731" d="M574.882,295.754c-0.029,5.892-4.776,10.667-10.667,10.667H122.679v-10.667 c0.117-11.611,9.507-21.001,21.118-21.116v-0.433c-11.611-0.115-21.003-9.506-21.118-21.117v-10.667h441.536 c5.891,0,10.638,4.775,10.667,10.667c0.059,11.611,9.505,21.002,21.118,21.117v0.433 C584.387,274.753,574.94,284.142,574.882,295.754z"/><line x1="668" x2="668" y1="305" y2="342" fill="none" stroke="#297789" stroke-miterlimit="10" stroke-width="4"/><line x1="667" x2="667" y1="405" y2="537" fill="none" stroke="#DAD7C4" stroke-miterlimit="10" stroke-width="4"/><circle cx="667.65" cy="374.42" r="31.999" fill="#297789"/><path fill="#DAD7C4" d="M761,503.756c0,5.891,4.548,10.244,10.44,10.244h431.324c5.893,0,10.235-4.354,10.235-10.244V406H771.439 c-5.893,0-10.439,5.065-10.439,10.956V503.756z"/><circle cx="667.65" cy="274.42" r="31.999" fill="#297789"/><path fill="#F47731" d="M760.797,395.754c0.029,5.892,4.776,10.667,10.667,10.667H1213v-10.667 c-0.117-11.611-9.507-21.001-21.118-21.116v-0.433c11.611-0.115,21.003-9.506,21.118-21.117v-10.667H771.464 c-5.891,0-10.638,4.775-10.667,10.667c-0.059,11.611-9.505,21.002-21.118,21.117v0.433 C751.292,374.753,760.738,384.142,760.797,395.754z"/><text fill="#DAD7C4" font-family="'OpenSans-Extrabold'" font-size="19.717" transform="matrix(1 0 0 1 167.3335 280.8521)">INFORMACIÓN &gt;</text><text fill="#DAD7C4" font-family="'OpenSans-Extrabold'" font-size="19.717" transform="matrix(1 0 0 1 660.667 280.8521)">1</text><g><text fill="#DAD7C4" font-family="'OpenSans-Extrabold'" font-size="19.717" transform="matrix(1 0 0 1 660.667 380.8521)">2</text></g><circle cx="667.65" cy="563.42" r="31.999" fill="#DAD7C4"/><g><text fill="#FFF" font-family="'OpenSans-Extrabold'" font-size="19.717" transform="matrix(1 0 0 1 660.667 569.8516)">2</text></g><text fill="#DAD7C4" font-family="'OpenSans-Extrabold'" font-size="19.717" transform="matrix(1 0 0 1 785.334 380.8521)">REFLEXIÓN</text><g><text fill="#DAD7C4" font-family="'RobotoSlab-Bold'" font-size="34.202" transform="matrix(1 0 0 1 196.1553 103.2632)">Decidim</text><text fill="#DAD7C4" font-family="'RobotoSlab-Light'" font-size="34.202" transform="matrix(1 0 0 1 195.5312 139.1118)">Barcelona</text><g><path fill="#F47731" d="M121.971,139.111c0.096-9.755,7.986-17.645,17.744-17.742v-0.362 c-9.758-0.098-17.646-7.988-17.744-17.744"/><path fill="#DAD7C4" d="M139.715,121.007c-0.098-9.758-7.986-17.648-17.744-17.744 C122.069,113.019,129.958,120.909,139.715,121.007z"/><path fill="#DAD7C4" d="M139.715,121.369c-9.758,0.098-17.648,7.987-17.744,17.742 C131.729,139.016,139.618,131.123,139.715,121.369z"/></g><g><path fill="#F47731" d="M175.926,121.007c-9.757-0.098-17.646-7.988-17.746-17.744h-0.361 c-0.098,9.756-7.986,17.646-17.746,17.744v0.362c9.76,0.098,17.648,7.987,17.746,17.742h0.361 c0.098-9.755,7.989-17.645,17.746-17.742V121.007z"/><path fill="#DAD7C4" d="M157.819,103.263c-9.757,0.096-17.648,7.986-17.746,17.744 C149.833,120.909,157.721,113.019,157.819,103.263z"/><path fill="#297789" d="M175.926,121.007c-0.098-9.758-7.986-17.648-17.746-17.744 C158.28,113.019,166.169,120.909,175.926,121.007z"/><path fill="#DAD7C4" d="M140.073,121.369c0.098,9.754,7.989,17.646,17.746,17.742 C157.721,129.356,149.833,121.467,140.073,121.369z"/><path fill="#297789" d="M175.926,121.369c-9.757,0.098-17.648,7.987-17.746,17.742 C167.94,139.016,175.829,131.123,175.926,121.369z"/></g><g><path fill="#F47731" d="M121.971,102.904c0.096-9.758,7.986-17.649,17.744-17.744v-0.362 c-9.758-0.097-17.646-7.988-17.744-17.746"/><path fill="#DAD7C4" d="M139.715,84.798c-0.098-9.757-7.986-17.646-17.744-17.746C122.069,76.81,129.958,84.701,139.715,84.798z"/><path fill="#DAD7C4" d="M139.715,85.16c-9.758,0.095-17.648,7.986-17.744,17.744C131.729,102.808,139.618,94.917,139.715,85.16z"/></g><g><path fill="#F47731" d="M175.926,84.798c-9.757-0.097-17.646-7.988-17.746-17.746h-0.361 c-0.098,9.758-7.986,17.649-17.746,17.746v0.363c9.76,0.097,17.648,7.987,17.746,17.743h0.359 c0.1-9.758,7.991-17.649,17.748-17.744V84.798z"/><path fill="#DAD7C4" d="M157.819,67.052c-9.757,0.1-17.648,7.989-17.746,17.746C149.833,84.701,157.721,76.81,157.819,67.052z"/><path fill="#297789" d="M175.926,84.798c-0.102-9.757-7.986-17.646-17.746-17.746C158.28,76.81,166.169,84.701,175.926,84.798z"/><path fill="#DAD7C4" d="M140.073,85.161c0.098,9.756,7.989,17.646,17.746,17.743C157.721,93.148,149.833,85.258,140.073,85.161z"/><path fill="#297789" d="M175.926,85.16c-9.757,0.095-17.648,7.986-17.748,17.744C167.94,102.808,175.825,94.917,175.926,85.16z"/></g><path fill="#297789" d="M157.819,102.901c-9.756-0.098-17.645-7.985-17.74-17.741h-0.365 c-0.098,9.756-7.984,17.643-17.743,17.741v0.362c9.759,0.1,17.646,7.99,17.743,17.746h0.365 c0.096-9.756,7.984-17.646,17.74-17.746V102.901z"/><path fill="#297789" d="M121.97,67.052c9.759,0.1,17.646,7.989,17.743,17.746h0.365c0.096-9.757,7.984-17.649,17.74-17.746"/><path fill="#297789" d="M157.819,139.109c-9.756-0.099-17.645-7.986-17.74-17.743h-0.365 c-0.098,9.757-7.984,17.645-17.743,17.743"/></g></g></switch></svg>