<?xml version="1.0" encoding="UTF-8"?>
<!DOCTYPE svg PUBLIC "-//W3C//DTD SVG 1.1//EN"
  "http://www.w3.org/Graphics/SVG/1.1/DTD/svg11.dtd">
<!-- Created with Inkpad (http://www.taptrix.com/) --><svg xmlns:inkpad="http://taptrix.com/inkpad/svg_extensions" height="1001pt" xmlns:xlink="http://www.w3.org/1999/xlink" xmlns="http://www.w3.org/2000/svg" width="1001pt" version="1.1" viewBox="0,0,1001,1001">
<defs>
<path id="TextPath" d="M427.708+679.558L2427.71+679.558" transform="matrix(1 -0 -0 1 0 0)"/>
</defs>
<g id="Untitled" inkpad:layerName="Untitled">
<g opacity="1">
<path d="M500.499+999.999C225.774+999.999+0.999+775.224+0.999+500.499C0.999+225.774+225.774+0.999+500.499+0.999C775.224+0.999+999.999+225.774+999.999+500.499C999.999+775.224+775.224+999.999+500.499+999.999ZM500.499+56.499C256.299+56.499+56.499+256.299+56.499+500.499C56.499+744.699+256.299+944.499+500.499+944.499C744.699+944.499+944.499+744.699+944.499+500.499C944.499+256.299+744.699+56.499+500.499+56.499Z" opacity="1" fill="#000000"/>
<g opacity="1">
<path d="M475.524+786.324C328.449+786.324+200.799+664.224+200.799+514.374C200.799+361.749+336.774+250.749+458.874+250.749L500.499+250.749L500.499+500.499L750.249+500.499L750.249+525.474C750.249+644.799+630.925+786.324+475.524+786.324ZM444.999+297.924C333.999+314.574+264.624+400.599+264.624+508.824C264.624+628.149+364.524+730.825+478.299+730.825C586.524+730.825+672.549+639.249+689.199+556L444.999+556L444.999+297.924Z" opacity="1" fill="#000000"/>
<path d="M833.499+444.999L556+444.999L556+167.499L572.649+167.499C697.524+167.499+833.499+289.599+833.499+414.474L833.499+444.999ZM611.499+389.499L764.124+389.499C750.249+306.249+666.999+239.649+611.499+222.999L611.499+389.499Z" opacity="1" fill="#000000"/>
</g>
</g>
</g>
<g id=" G" inkpad:layerName=" G">
<path d="M527.059+639.877L527.059+635.921L527.059+631.964L527.059+628.008L531.911+628L536.762+627.992L541.614+627.985L546.466+627.977L551.317+627.969L556.169+627.962L561.02+627.954L565.872+627.946L570.723+627.939L570.723+632.631L570.723+637.324L570.723+642.017L570.723+646.709L570.723+651.402L570.723+656.095L570.723+660.788L570.723+665.48C564.02+670.725+557.106+674.67+549.981+677.316C542.856+679.961+535.544+681.284+528.044+681.284C517.919+681.284+508.72+679.156+500.446+674.9C492.173+670.644+485.927+664.491+481.708+656.44C477.489+648.389+475.38+639.394+475.38+629.457C475.38+619.611+477.477+610.421+481.673+601.887C485.868+593.353+491.903+587.015+499.778+582.875C507.653+578.734+516.723+576.664+526.989+576.664C534.442+576.664+541.18+577.848+547.204+580.218C553.227+582.587+557.95+585.888+561.372+590.121C564.794+594.353+567.395+599.874+569.176+606.683L565.075+607.788L560.973+608.892L556.872+609.996C555.325+604.843+553.403+600.794+551.106+597.85C548.809+594.906+545.528+592.548+541.262+590.776C536.997+589.005+532.262+588.12+527.059+588.12C520.825+588.12+515.434+589.051+510.887+590.914C506.341+592.778+502.673+595.228+499.884+598.264C497.095+601.301+494.927+604.636+493.38+608.271C490.755+614.528+489.442+621.314+489.442+628.629C489.442+637.646+491.024+645.191+494.188+651.264C497.352+657.337+501.958+661.846+508.005+664.79C514.052+667.735+520.473+669.207+527.27+669.207C533.177+669.207+538.942+668.091+544.567+665.86C550.192+663.628+554.458+661.248+557.364+658.717L557.364+654.007L557.364+649.297L557.364+644.587L557.364+639.877L553.035+639.877L548.706+639.877L544.376+639.877L540.047+639.877L535.718+639.877L531.389+639.877L527.059+639.877Z" stroke="#000000" stroke-width="0" fill="#000000" opacity="1" stroke-linejoin="round"/>
</g>
</svg>
