<svg xmlns="http://www.w3.org/2000/svg" viewBox="0 0 34 34"><path d="M31.593 20.937c.338-1.255.518-2.575.518-3.937 0-8.346-6.765-15.111-15.111-15.111S1.889 8.654 1.889 17c0 1.362.18 2.682.518 3.937a10.378 10.378 0 0 1 2.712-.36c2.422 0 4.717.835 6.55 2.328a10.348 10.348 0 0 1 5.177-1.383c1.95 0 3.786.542 5.357 1.49a10.338 10.338 0 0 1 6.678-2.434c.925 0 1.836.121 2.712.359zm-.606 1.793a8.487 8.487 0 0 0-2.106-.263 8.448 8.448 0 0 0-5.107 1.707 10.355 10.355 0 0 1 2.913 4.425 15.151 15.151 0 0 0 4.3-5.869zm-27.974 0c.9 2.195 2.302 4.13 4.062 5.665a10.357 10.357 0 0 1 2.982-4.345 8.45 8.45 0 0 0-4.938-1.583c-.718 0-1.424.089-2.106.263zm23.805 8.15a.94.94 0 0 1-.324.224A16.921 16.921 0 0 1 17 34C7.611 34 0 26.389 0 17S7.611 0 17 0s17 7.611 17 17c0 5.732-2.836 10.8-7.182 13.88zm-1.75-1.1a8.492 8.492 0 0 0-16.398-.17A15.04 15.04 0 0 0 17 32.11a15.04 15.04 0 0 0 8.067-2.331zm-3.042-14.33a5.18 5.18 0 1 1-10.36 0 5.18 5.18 0 0 1 10.36 0zm-1.89 0a3.291 3.291 0 1 0-6.582 0 3.291 3.291 0 0 0 6.583 0zm-11.333.944a3.062 3.062 0 1 1-6.124.001 3.062 3.062 0 0 1 6.124-.001zm-1.888 0a1.173 1.173 0 1 0-2.347 0 1.173 1.173 0 0 0 2.347 0zm18.28 0a3.063 3.063 0 1 1 6.127.002 3.063 3.063 0 0 1-6.126-.002zm1.89 0a1.174 1.174 0 1 0 2.348 0 1.174 1.174 0 0 0-2.348 0z"/></svg>