<svg xmlns="http://www.w3.org/2000/svg" xmlns:svg="http://www.w3.org/2000/svg" id="svg32" width="256.001" height="72.826" version="1.1" viewBox="0 0 256.001 72.826"><metadata id="metadata36"/><defs id="defs4"><style id="style2">.cls-1{fill:#f33}</style></defs><g id="g20" transform="matrix(0.3867083,0,0,0.3867083,9.572728e-6,0)"><path id="path6" fill="#f33" d="m 287.55,99.52 h 14.67 a 1.45,1.45 0 0 1 1.5,1.51 v 84.77 a 1.44,1.44 0 0 1 -1.5,1.5 h -14.67 a 1.45,1.45 0 0 1 -1.51,-1.5 v -4.14 c 0,-0.5 -0.37,-0.63 -0.75,-0.25 a 17.17,17.17 0 0 1 -14.42,6.9 c -11.79,0 -20.56,-7 -24.2,-18.31 a 49.17,49.17 0 0 1 -2.13,-15.17 47.81,47.81 0 0 1 2.26,-15.55 c 3.63,-10.29 11.91,-17.43 24.45,-17.43 6.39,0 10.91,2.38 14,6.27 0.38,0.5 0.75,0.25 0.75,-0.26 V 101 a 1.45,1.45 0 0 1 1.55,-1.48 z m -1.63,55.56 c 0,-5.52 -0.88,-9.91 -2.76,-13.17 a 9.44,9.44 0 0 0 -8.4,-4.89 9.73,9.73 0 0 0 -8.91,4.89 c -2,3.13 -3.13,7.65 -3.13,13.29 a 27.75,27.75 0 0 0 2.63,12.54 10.34,10.34 0 0 0 9.28,5.39 c 3.89,0 6.77,-2 8.78,-5.39 1.59,-3.01 2.51,-7.52 2.51,-12.66 z" class="cls-1"/><path id="path8" fill="#f33" d="m 371.57,159.09 a 1.55,1.55 0 0 1 -1.63,1.5 h -38.75 c -0.38,0 -0.63,0.25 -0.5,0.63 a 19.51,19.51 0 0 0 1.38,5 c 2,4.26 6,7 13.29,7 A 15.35,15.35 0 0 0 358,166.74 c 0.62,-0.88 1.25,-1 2,-0.25 l 9,8.9 a 1.37,1.37 0 0 1 0.13,2.13 c -5.65,7 -14.93,10.91 -25.46,10.79 -14.3,0 -24.2,-7.15 -28.47,-18.56 a 40.4,40.4 0 0 1 -2.63,-15.3 37.55,37.55 0 0 1 1.88,-13.29 c 3.76,-11.79 13.92,-19.44 27.21,-19.44 17.18,0 27.21,11 29.35,26.71 a 59.71,59.71 0 0 1 0.56,10.66 z m -40.13,-14.67 a 30.73,30.73 0 0 0 -0.88,4 0.59,0.59 0 0 0 0.63,0.63 h 21.69 c 0.38,0 0.63,-0.25 0.51,-0.63 -0.26,-1.38 -0.38,-2.51 -0.63,-3.51 -1.51,-5 -5.27,-7.9 -10.91,-7.9 -5.39,-0.01 -8.78,2.64 -10.41,7.41 z" class="cls-1"/><path id="path10" fill="#f33" d="m 380,169.5 a 46,46 0 0 1 -2.13,-14.8 44.19,44.19 0 0 1 2.13,-14.55 c 4,-11.28 14.42,-18.3 27.84,-18.3 13.79,0 24.45,7.77 27.71,17.68 a 15.57,15.57 0 0 1 1,4.51 1.36,1.36 0 0 1 -1.26,1.63 l -14.42,2.13 a 1.45,1.45 0 0 1 -1.76,-1.25 l -0.37,-2 c -1.13,-4.14 -5.27,-7.52 -11,-7.52 -5.39,0 -9.15,2.88 -10.65,7.52 a 31.18,31.18 0 0 0 -1.38,10.29 34,34 0 0 0 1.25,10.28 10.71,10.71 0 0 0 10.78,8 11,11 0 0 0 10.91,-7.77 1.53,1.53 0 0 0 0.13,-0.75 0.48,0.48 0 0 0 0.12,-0.38 1.4,1.4 0 0 1 1.7,-1.22 l 14.4,2.23 a 1.36,1.36 0 0 1 1.25,1.63 21,21 0 0 1 -0.75,3.51 c -3.63,11.29 -14.67,17.94 -27.71,17.94 -13.4,0 -23.68,-7.31 -27.79,-18.81 z" class="cls-1"/><path id="path12" fill="#f33" d="m 443.42,105.67 a 9.91,9.91 0 0 1 19.82,0 9.91,9.91 0 0 1 -19.82,0 z m 0.88,80.13 v -61.57 a 1.45,1.45 0 0 1 1.51,-1.51 h 14.67 a 1.45,1.45 0 0 1 1.5,1.51 v 61.57 a 1.44,1.44 0 0 1 -1.5,1.5 h -14.67 a 1.45,1.45 0 0 1 -1.51,-1.5 z" class="cls-1"/><path id="path14" fill="#f33" d="M 514.27,99.52 H 529 a 1.45,1.45 0 0 1 1.5,1.51 v 84.77 a 1.44,1.44 0 0 1 -1.5,1.5 h -14.73 a 1.44,1.44 0 0 1 -1.5,-1.5 v -4.14 c 0,-0.5 -0.38,-0.63 -0.75,-0.25 a 17.17,17.17 0 0 1 -14.42,6.9 c -11.79,0 -20.57,-7 -24.21,-18.31 a 49.47,49.47 0 0 1 -2.13,-15.17 48.08,48.08 0 0 1 2.26,-15.55 c 3.64,-10.29 11.91,-17.43 24.45,-17.43 6.4,0 10.91,2.38 14,6.27 0.37,0.5 0.75,0.25 0.75,-0.26 V 101 a 1.45,1.45 0 0 1 1.55,-1.48 z m -1.63,55.56 c 0,-5.52 -0.87,-9.91 -2.76,-13.17 a 9.42,9.42 0 0 0 -8.4,-4.89 9.71,9.71 0 0 0 -8.9,4.89 c -2,3.13 -3.13,7.65 -3.13,13.29 a 27.75,27.75 0 0 0 2.63,12.54 10.34,10.34 0 0 0 9.28,5.39 c 3.89,0 6.77,-2 8.78,-5.39 1.63,-3.01 2.5,-7.52 2.5,-12.66 z" class="cls-1"/><path id="path16" fill="#f33" d="m 540.36,105.67 a 9.91,9.91 0 1 1 19.81,0 9.91,9.91 0 1 1 -19.81,0 z m 0.88,80.13 v -61.57 a 1.45,1.45 0 0 1 1.5,-1.51 h 14.67 a 1.45,1.45 0 0 1 1.51,1.51 v 61.57 a 1.45,1.45 0 0 1 -1.51,1.5 h -14.67 a 1.44,1.44 0 0 1 -1.5,-1.5 z" class="cls-1"/><path id="path18" fill="#f33" d="m 662,144.29 v 41.51 a 1.45,1.45 0 0 1 -1.51,1.5 h -14.67 a 1.45,1.45 0 0 1 -1.51,-1.5 v -37.62 c 0,-6.77 -3.76,-11.16 -9.65,-11.16 -5.89,0 -9.91,4.26 -9.91,11 v 37.78 a 1.44,1.44 0 0 1 -1.5,1.5 H 608.7 a 1.44,1.44 0 0 1 -1.5,-1.5 v -37.62 c 0,-6.77 -4,-11.16 -9.91,-11.16 -5.39,0 -9.15,3.38 -9.91,9 v 39.78 a 1.44,1.44 0 0 1 -1.5,1.5 h -14.67 a 1.45,1.45 0 0 1 -1.51,-1.5 v -61.45 a 1.45,1.45 0 0 1 1.51,-1.5 h 14.67 a 1.44,1.44 0 0 1 1.5,1.5 v 4.89 c 0,0.51 0.38,0.76 0.76,0.26 3.51,-5.27 9,-7.65 15.92,-7.65 8.4,0 14.8,3.76 18.18,10.15 0.26,0.5 0.51,0.5 0.88,0 3.76,-7 10.41,-10.15 18.06,-10.15 13.04,0 20.82,8.27 20.82,22.44 z" class="cls-1"/></g><g id="g30" transform="matrix(0.3867083,0,0,0.3867083,9.572728e-6,0)"><g id="g26"><path id="path22" fill="#f33" d="m 0,77.49 v 0 A 32.32,32.32 0 0 1 32.31,45.13 h 25.86 a 6.47,6.47 0 0 1 6.46,6.46 v 129.25 a 6.46,6.46 0 0 1 -6.46,6.46 H 32.31 A 32.32,32.32 0 0 1 0,155 Z" class="cls-1"/><path id="rect24" fill="#f33" d="M 84.010003,0 H 135.72 c 3.57884,0 6.46,2.88116 6.46,6.46 v 174.38 c 0,3.57884 -2.88116,6.46 -6.46,6.46 H 84.010003 c -3.57884,0 -6.46,-2.88116 -6.46,-6.46 V 6.46 c 0,-3.57884 2.88116,-6.46 6.46,-6.46 z"/></g><path id="path28" fill="#f33" d="M 226.19,155 A 32.31,32.31 0 1 1 193.88,122.68 32.32,32.32 0 0 1 226.19,155 Z" class="cls-1"/></g></svg>