<?xml version="1.0" encoding="utf-8"?>
<!-- Generator: Adobe Illustrator 21.1.0, SVG Export Plug-In . SVG Version: 6.00 Build 0)  -->
<svg version="1.1" id="Layer_1" xmlns="http://www.w3.org/2000/svg" xmlns:xlink="http://www.w3.org/1999/xlink" x="0px" y="0px"
	 viewBox="0 0 255.8 57" style="enable-background:new 0 0 255.8 57;" xml:space="preserve">
<style type="text/css">
  .center{
    fill: #dfe3e9;
  }
  .top-right-circle{
    fill: #ED4D4F;
  }
  .bottom-right-circle{
    fill: #ED4D4F;
  }
  .top-left-circle{
    fill: #A93C3E;
  }
  .bottom-left-circle{
    fill: #A93C3E;
  }
  .square-top-left{
    fill: #A93C3E;
  }
  .square-bottom-left{
    fill: #A93C3E;
  }
  .text{
    fill: #dfe3e9;
  }
</style>
<g>
	<g>
		<path class="text" d="M74.3,42.2v-13c0-13.8,6.6-14.1,9-14.1c3,0,5.2,1.8,6.3,3.4l0,0l-0.2-5.2V2.4h7.5v54.1h-5.9l-0.7-3.8
			c-1.3,2.2-3.5,4.3-7.3,4.3C80.4,57,74.3,56.1,74.3,42.2z M89.4,48.2V23.6c-0.7-1.6-2-3-3.8-3c-2.2,0-3.8,1.3-3.8,7.4v15.7
			c0,6.1,1.6,7.5,3.8,7.5C87.6,51.1,88.8,49.7,89.4,48.2z"/>
		<path class="text" d="M103.6,39.7V32c0-15.7,7.5-16.9,11.8-16.9c5.4,0,10.3,2.9,10.3,12.8c0,3.3-0.4,7-1,9.6h-13.6v4.2
			c0,7.1,1,9.6,4.4,9.6c1.8,0,3.6-1.3,3.6-5.7v-1.3h6.3v1.6c0,7.8-3.8,11.2-10.8,11.2C107.5,57,103.6,51.9,103.6,39.7z M118.7,32.4
			c0.1-0.9,0.1-3.1,0.1-4.2c0-5.4-1.3-7.6-3.8-7.6c-2.6,0-3.9,2.3-3.9,9.3v2.5H118.7z"/>
		<path class="text" d="M131,39.7V32c0-15.7,7.4-16.9,11.5-16.9c5.6,0,9.4,2.9,9.4,9c0,1.9-0.2,3.2-0.5,4.4h-6v-1.4
			c0-4.1-0.9-6.6-3.1-6.6c-2.4,0-3.7,2.1-3.7,9.1v11.6c0,7.1,0.9,9.8,3.8,9.8c1.5,0,2.9-1.3,2.9-5.7v-1.3h6.5v1.6
			c0,7.8-3.5,11.2-10.3,11.2C134.7,57,131,51.3,131,39.7z"/>
		<path class="text" d="M157.5,4.8c0-3.5,1.7-4.8,4.5-4.8c2.9,0,4.6,1.5,4.6,4.8c0,3.1-1.6,4.9-4.6,4.9
			C159.3,9.7,157.5,7.9,157.5,4.8z M158.1,15.5h7.5v41h-7.5V15.5z"/>
		<path class="text" d="M172.6,42.2v-13c0-13.8,6.6-14.1,9-14.1c3,0,5.2,1.8,6.3,3.4l0,0l-0.2-5.2V2.4h7.5v54.1h-5.9l-0.7-3.8
			c-1.3,2.2-3.5,4.3-7.3,4.3C178.6,57,172.6,56.1,172.6,42.2z M187.7,48.2V23.6c-0.7-1.6-2-3-3.8-3c-2.2,0-3.8,1.3-3.8,7.4v15.7
			c0,6.1,1.6,7.5,3.8,7.5C185.9,51.1,187,49.7,187.7,48.2z"/>
		<path class="text" d="M202.4,4.8c0-3.5,1.7-4.8,4.5-4.8c2.9,0,4.6,1.5,4.6,4.8c0,3.1-1.6,4.9-4.6,4.9
			C204.2,9.7,202.4,7.9,202.4,4.8z M203,15.5h7.5v41H203V15.5z"/>
		<path class="text" d="M218.4,15.5h5.8l0.7,4.4v0c2.3-3.7,5.5-4.9,8.5-4.9c3.2,0,5.5,1.5,6.6,4.6c2.3-3.5,5.4-4.6,8.4-4.6
			c4.7,0,7.5,3.4,7.5,10.1v31.4h-7.5V25.4c0-3.6-1-4.8-3.5-4.8c-1.4,0-2.9,1.1-4,2.9c0,0.4,0,0.7,0,1.1v32h-7.5V25.4
			c0-3.6-1-4.8-3.5-4.8c-1.3,0-2.8,1.1-3.9,2.8v33.1h-7.5V15.5z"/>
	</g>
</g>
<path class="center" d="M54.1,29.1C39.4,28.9,27.5,17,27.3,2.3h-0.5C26.6,17,14.7,28.9,0,29.1v0.5c14.7,0.1,26.6,12,26.8,26.8h0.5
	c0.1-14.7,12-26.6,26.8-26.8V29.1z"/>
<path class="top-right-circle" d="M54.1,29.1C53.9,14.4,42,2.5,27.3,2.3C27.5,17,39.4,28.9,54.1,29.1z"/>
<path class="bottom-right-circle" d="M54.1,29.6c-14.7,0.1-26.6,12-26.8,26.8C42,56.2,53.9,44.3,54.1,29.6z"/>
<path class="square-top-left" d="M0,2.3v26.8h0c14.7-0.1,26.6-12,26.8-26.8H0z"/>
<path class="square-bottom-left" d="M0,29.6L0,29.6l0,26.8h26.8C26.6,41.7,14.7,29.8,0,29.6z"/>
<path class="bottom-left-circle" d="M0,29.6c0.1,14.7,12,26.6,26.8,26.8C26.6,41.7,14.7,29.8,0,29.6z"/>
<path class="top-left-circle" d="M0,29.1c14.7-0.1,26.6-12,26.8-26.8C12,2.5,0.1,14.4,0,29.1z"/>
</svg>
