<svg xmlns="http://www.w3.org/2000/svg" xmlns:xlink="http://www.w3.org/1999/xlink" viewBox="2 -2 42 42" height="42" width="42"><defs><filter id="b" filterUnits="objectBoundingBox" height="2" width="2" y="-.5" x="-.5"><feOffset result="shadowOffsetOuter1" in="SourceAlpha" dy="1"/><feGaussianBlur result="shadowBlurOuter1" in="shadowOffsetOuter1" stdDeviation=".5"/><feColorMatrix result="shadowMatrixOuter1" in="shadowBlurOuter1" values="0 0 0 0 0 0 0 0 0 0 0 0 0 0 0 0 0 0 0.168 0"/><feOffset result="shadowOffsetOuter2" in="SourceAlpha"/><feGaussianBlur result="shadowBlurOuter2" in="shadowOffsetOuter2" stdDeviation=".5"/><feColorMatrix result="shadowMatrixOuter2" in="shadowBlurOuter2" values="0 0 0 0 0 0 0 0 0 0 0 0 0 0 0 0 0 0 0.084 0"/><feMerge><feMergeNode in="shadowMatrixOuter1"/><feMergeNode in="shadowMatrixOuter2"/><feMergeNode in="SourceGraphic"/></feMerge></filter><rect rx="2" height="40" width="40" y="0" x="0" id="a"/></defs><use transform="translate(3 -1)" height="100%" width="100%" xlink:href="#a" fill="#fff" fill-rule="evenodd" filter="url(#b)"/><use transform="translate(3 -1)" height="100%" width="100%" xlink:href="#a" fill="none" fill-rule="evenodd" filter="url(#b)"/><use transform="translate(3 -1)" height="100%" width="100%" xlink:href="#a" fill="none" fill-rule="evenodd" filter="url(#b)"/><use transform="translate(3 -1)" height="100%" width="100%" xlink:href="#a" fill="none" fill-rule="evenodd" filter="url(#b)"/><path d="M31.64 19.205c0-.639-.057-1.252-.164-1.841H23v3.481h4.844a4.14 4.14 0 01-1.796 2.716v2.259h2.908c1.702-1.567 2.684-3.875 2.684-6.615z" fill="#4285f4" fill-rule="evenodd"/><path d="M23 28c2.43 0 4.467-.806 5.956-2.18l-2.908-2.259c-.806.54-1.837.86-3.048.86-2.344 0-4.328-1.584-5.036-3.711h-3.007v2.332A8.997 8.997 0 0023 28z" fill="#34a853" fill-rule="evenodd"/><path d="M17.964 20.71a5.41 5.41 0 01-.282-1.71c0-.593.102-1.17.282-1.71v-2.332h-3.007A8.996 8.996 0 0014 19c0 1.452.348 2.827.957 4.042z" fill="#fbbc05" fill-rule="evenodd"/><path d="M23 13.58c1.321 0 2.508.454 3.44 1.345l2.582-2.58C27.463 10.891 25.426 10 23 10a8.997 8.997 0 00-8.043 4.958l3.007 2.332c.708-2.127 2.692-3.71 5.036-3.71z" fill="#ea4335" fill-rule="evenodd"/><path d="M14 10h18v18H14z" fill="none"/></svg>
