<svg xmlns="http://www.w3.org/2000/svg" x="0" y="0" enable-background="new 0 0 36 36" viewBox="0 0 36 36" xml:space="preserve"><g><path d="M18,36C8.1,36,0,27.9,0,18S8.1,0,18,0s18,8.1,18,18S27.9,36,18,36z M18,2C9.2,2,2,9.2,2,18s7.2,16,16,16s16-7.2,16-16 S26.8,2,18,2z"/></g><g><g><path d="M17.1,28.3c-5.3,0-9.9-4.4-9.9-9.8c0-5.5,4.9-9.5,9.3-9.5H18v9h9v0.9C27,23.2,22.7,28.3,17.1,28.3z M16,10.7 c-4,0.6-6.5,3.7-6.5,7.6c0,4.3,3.6,8,7.7,8c3.9,0,7-3.3,7.6-6.3H16V10.7z"/></g><path d="M30,16H20V6h0.6c4.5,0,9.4,4.4,9.4,8.9V16z M22,14h5.5C27,11,24,8.6,22,8V14z"/></g></svg>