<svg xmlns="http://www.w3.org/2000/svg" viewBox="0 0 36.02 36.02"><path d="M373,545.54a18,18,0,1,1,18-18A18,18,0,0,1,373,545.54Zm0-34a16,16,0,1,0,16,16A16,16,0,0,0,373,511.53Z" transform="translate(-354.99 -509.53)"/><path d="M377.73,536.41h-9.46a1,1,0,1,1,0-2h9.46A1,1,0,0,1,377.73,536.41Z" transform="translate(-354.99 -509.53)"/><path d="M375,525.54h-6.73a1,1,0,1,1,0-2H375A1,1,0,1,1,375,525.54Z" transform="translate(-354.99 -509.53)"/><path d="M375,535.41a1,1,0,0,1-1-1v-9.87a1,1,0,1,1,2,0v9.87A1,1,0,0,1,375,535.41Z" transform="translate(-354.99 -509.53)"/><path d="M373,523a3,3,0,1,1,3-3A3,3,0,0,1,373,523Zm0-4a1,1,0,1,0,1,1A1,1,0,0,0,373,519Z" transform="translate(-354.99 -509.53)"/><path d="M371,535.41a1,1,0,0,1-1-1v-9.87a1,1,0,1,1,2,0v9.87A1,1,0,0,1,371,535.41Z" transform="translate(-354.99 -509.53)"/></svg>