<svg xmlns="http://www.w3.org/2000/svg" viewBox="0 0 36.02 36.02">
  <path d="M883.8,543.84a18,18,0,1,1,18-18A18,18,0,0,1,883.8,543.84Zm0-34a16,16,0,1,0,16,16A16,16,0,0,0,883.8,509.83Z" transform="translate(-865.8 -507.83)" />
  <ellipse ry="5.504777" rx="5.5598245" cy="17.971844" cx="18" />
  <path d="M883.8,543.84a18,18,0,1,1,18-18A18,18,0,0,1,883.8,543.84Zm0-34a16,16,0,1,0,16,16A16,16,0,0,0,883.8,509.83Z" transform="translate(-865.8 -507.83)" />
  <path d="m 6.3078227,-25.154474 a 9.3338938,9.0435648 0 0 1 -8.7369752,9.025052 9.3338938,9.0435648 0 0 1 -9.8544645,-7.870717 9.3338938,9.0435648 0 0 1 7.4765554,-10.031744" transform="matrix(-0.78352169,0.62136443,-0.62136443,-0.78352169,0,0)" class="stroked-shape" />
</svg>
