<svg xmlns="http://www.w3.org/2000/svg" width="2000" height="2000" viewBox="0 0 36.02 36.02"><path d="M693.07,543.84a18,18,0,1,1,18-18A18,18,0,0,1,693.07,543.84Zm0-34a16,16,0,1,0,16,16A16,16,0,0,0,693.07,509.83Z" transform="translate(-675.07 -507.83)"/><path d="M693.07,526.93a4.1,4.1,0,1,1,4.1-4.1A4.1,4.1,0,0,1,693.07,526.93Zm0-6.19a2.1,2.1,0,1,0,2.1,2.1A2.1,2.1,0,0,0,693.07,520.74Z" transform="translate(-675.07 -507.83)"/><path d="M693.07,536.65a1,1,0,0,1-.67-0.26c-0.29-.26-7.11-6.5-7.11-14a7.78,7.78,0,0,1,15.57,0c0,7.46-6.82,13.71-7.11,14A1,1,0,0,1,693.07,536.65Zm0-20a5.79,5.79,0,0,0-5.78,5.78c0,5.29,4.13,10.11,5.78,11.82,1.65-1.72,5.78-6.54,5.78-11.82A5.79,5.79,0,0,0,693.07,516.64Z" transform="translate(-675.07 -507.83)"/></svg>