<svg xmlns="http://www.w3.org/2000/svg" viewBox="0 0 34 34"><path d="M17 1.889C8.654 1.889 1.889 8.654 1.889 17S8.654 32.111 17 32.111 32.111 25.346 32.111 17 25.346 1.889 17 1.889zM17 0c9.389 0 17 7.611 17 17s-7.611 17-17 17S0 26.389 0 17 7.611 0 17 0zm4.722 18.082v-2.97a.944.944 0 1 0-1.889 0v2.97a.944.944 0 1 0 1.89 0zm-2.833 0v-2.97a.944.944 0 0 0-1.889 0v2.97a.944.944 0 1 0 1.889 0zm-3.778.488V8.5a.944.944 0 0 0-1.889 0v10.07a.944.944 0 0 0 1.89 0zM8.5 16.92c.814 0 1.593.78 1.593 1.594v.2c0 4.131 3.302 7.432 7.373 7.356 4.114 0 7.415-3.301 7.339-7.373V15.11a.944.944 0 0 0-1.889 0v3.603c.056 3.025-2.385 5.468-5.467 5.468-3.025.056-5.467-2.386-5.467-5.468v-.2c0-1.857-1.625-3.482-3.482-3.482a.944.944 0 0 0 0 1.889z"/></svg>