<svg viewBox="0 0 434 160" preserveAspectRatio="xMidYMid slice"
     id="ri-proposal-placeholder-card-g">
  <rect opacity="0.106" fill="fill-current" width="434" height="160"></rect>
  <g opacity="0.2" clip-path="url(#clip0_256_5589)">
    <path
      d="M331.544 115.752C331.543 114.67 331.753 113.598 332.163 112.597C332.574 111.596 333.175 110.687 333.935 109.921C334.694 109.155 335.596 108.547 336.588 108.132C337.581 107.718 338.645 107.504 339.719 107.504H346.262C346.696 107.504 347.111 107.678 347.417 107.987C347.724 108.295 347.896 108.714 347.897 109.15V142.096C347.897 142.312 347.855 142.526 347.773 142.726C347.69 142.926 347.57 143.107 347.418 143.26C347.266 143.413 347.086 143.535 346.888 143.617C346.69 143.7 346.477 143.743 346.262 143.743H339.719C337.552 143.742 335.473 142.874 333.94 141.331C332.407 139.787 331.545 137.693 331.544 135.509V115.752Z"
      fill="fill-current"/>
    <path
      d="M365.884 96H352.801C351.898 96 351.166 96.7372 351.166 97.6466V142.096C351.166 143.005 351.898 143.743 352.801 143.743H365.884C366.787 143.743 367.519 143.005 367.519 142.096V97.6466C367.519 96.7372 366.787 96 365.884 96Z"
      fill="fill-current"/>
    <path
      d="M388.776 135.509C388.775 137.138 388.295 138.73 387.397 140.084C386.498 141.438 385.221 142.493 383.727 143.116C382.233 143.739 380.59 143.902 379.004 143.584C377.418 143.266 375.962 142.481 374.819 141.329C373.676 140.178 372.897 138.71 372.582 137.113C372.267 135.515 372.429 133.859 373.048 132.354C373.667 130.85 374.715 129.564 376.059 128.659C377.403 127.754 378.984 127.271 380.601 127.271C382.769 127.272 384.848 128.14 386.381 129.685C387.915 131.23 388.776 133.325 388.776 135.509Z"
      fill="fill-current"/>
  </g>
</svg>
