<svg xmlns="http://www.w3.org/2000/svg" id="Layer_1" data-name="Layer 1" viewBox="0 0 16 16"><defs><style>.cls-1{fill:#ef604d}</style></defs><title>heading-icon</title><path d="M874.25,381.07a8,8,0,0,0-7.92,7.92A8,8,0,0,0,874.25,381.07Z" class="cls-1" transform="translate(-866.33 -381.07)"/><path d="M882.33,389a8,8,0,0,0-7.92-7.92A8,8,0,0,0,882.33,389Z" class="cls-1" transform="translate(-866.33 -381.07)"/><path d="M882.33,389.15a8,8,0,0,0-7.92,7.92A8,8,0,0,0,882.33,389.15Z" class="cls-1" transform="translate(-866.33 -381.07)"/><path d="M866.33,389.15a8,8,0,0,0,7.92,7.92A8,8,0,0,0,866.33,389.15Z" class="cls-1" transform="translate(-866.33 -381.07)"/></svg>