<?xml version="1.0" encoding="utf-8"?>
<!-- Generator: Adobe Illustrator 19.2.1, SVG Export Plug-In . SVG Version: 6.00 Build 0)  -->
<svg version="1.1" id="Layer_1" xmlns="http://www.w3.org/2000/svg" xmlns:xlink="http://www.w3.org/1999/xlink" x="0px" y="0px"
	 viewBox="0 0 96 129" style="enable-background:new 0 0 96 129;" xml:space="preserve">
<style type="text/css">
	.st0{fill:#FFFFFF;}
</style>
<title>pattern</title>
<path class="st0" d="M0,97.8V129h30.6C13.8,128.3,0.4,114.6,0,97.8z"/>
<path class="st0" d="M0,33.1v63.2C0.3,78.8,14.6,64.9,32,65v-0.7C14.6,64.4,0.3,50.5,0,33.1z"/>
<path class="st0" d="M0,96.7v0.7c17.4,0.2,31.5,14.3,31.7,31.7h0.7c0.3-17.4,14.3-31.3,31.7-31.7v-0.7C46.6,96.4,32.6,82.4,32.3,65
	h-0.7C31.5,82.4,17.4,96.5,0,96.7z"/>
<path class="st0" d="M0,32v0.6C17.3,32.8,31.3,46.7,31.7,64h0.7C32.5,47,47,32.8,64,32.6V33l0,0v-1C46.5,31.7,32.4,17.5,32.3,0h-0.7
	C31.7,17.6,17.6,31.9,0,32z"/>
<path class="st0" d="M32,64L32,64v1c0.1,0,0.3,0,0.4,0C49.9,65.1,64.1,79.4,64,97h0.6c0-17.4,13.9-31.7,31.4-32v-0.7
	C78.8,64,65,50.2,64.7,33H64c-0.2,17-14,31.1-32,31.3V64z"/>
<path class="st0" d="M32.3,64.3L32.3,64.3z"/>
<path class="st0" d="M64,32.6L64,32.6z"/>
</svg>
