<svg id="Layer_1" data-name="Layer 1" xmlns="http://www.w3.org/2000/svg" viewBox="0 0 129 129"><defs><style>.cls-1{fill:#fff;}</style></defs><title>pattern-big</title><path class="cls-1" d="M614.63,65H584V96.22A32,32,0,0,1,614.63,65Z" transform="translate(-584 -65)"/><path class="cls-1" d="M648,97h0.65c0.17-17,13.7-31.29,30.64-32H617.32C634.26,65.71,647.79,80,648,97Z" transform="translate(-584 -65)"/><path class="cls-1" d="M616,129.68V129a31.81,31.81,0,0,1-32-31.26v63.16A31.81,31.81,0,0,1,616,129.68Z" transform="translate(-584 -65)"/><path class="cls-1" d="M615.68,129h0.65A32.28,32.28,0,0,1,648,97.32V96.68A32.28,32.28,0,0,1,616.33,65h-0.65A32,32,0,0,1,584,96.68v0.65A32,32,0,0,1,615.68,129Z" transform="translate(-584 -65)"/><path class="cls-1" d="M615.68,194h0.65A32.17,32.17,0,0,1,648,162v-1h0v0.36c-17-.19-31.5-14.36-31.67-31.36h-0.65A32,32,0,0,1,584,161.36V162A31.9,31.9,0,0,1,615.68,194Z" transform="translate(-584 -65)"/><path class="cls-1" d="M649,96.68v0.65A31.94,31.94,0,0,1,680.28,129h0.65A32,32,0,0,1,713,97.32V96.68A32,32,0,0,1,680.93,65h-0.65C680.1,82.42,666,96.5,649,96.68Z" transform="translate(-584 -65)"/><path class="cls-1" d="M616,129.68c18,0.19,31.8,14.32,32,31.32h0.65A32,32,0,0,1,680,129.68V129a32,32,0,0,1-31.38-32H648a31.81,31.81,0,0,1-32,32v1h0v-0.32Z" transform="translate(-584 -65)"/><path class="cls-1" d="M616.33,129.68h0Z" transform="translate(-584 -65)"/><path class="cls-1" d="M648,161.36h0Z" transform="translate(-584 -65)"/></svg>