<svg xmlns="http://www.w3.org/2000/svg" viewBox="0 0 34 34"><path d="M17 1.889C8.654 1.889 1.889 8.654 1.889 17S8.654 32.111 17 32.111 32.111 25.346 32.111 17 25.346 1.889 17 1.889zM17 0c9.389 0 17 7.611 17 17s-7.611 17-17 17S0 26.389 0 17 7.611 0 17 0zm-2.327 14.005c.026-1.153.867-2.08 2.024-2.099h.137c1.901.032 2.584 2.347 1.065 3.915-.12.123-.951.935-1.16 1.17-.688.776-.982 1.563-.982 2.793a.944.944 0 1 0 1.89 0c0-.772.126-1.113.505-1.54.155-.174.942-.942 1.104-1.11 2.59-2.672 1.298-7.055-2.406-7.116h-.168c-2.232.036-3.85 1.817-3.898 3.945a.944.944 0 1 0 1.889.042zm2.029 10.327a1.168 1.168 0 1 0 0-2.336 1.168 1.168 0 0 0 0 2.336zm0-.945a.224.224 0 1 1 0-.447.224.224 0 0 1 0 .447z"/></svg>