<svg xmlns="http://www.w3.org/2000/svg" viewBox="0 0 36.02 36.02">
  <path d="M883.8,543.84a18,18,0,1,1,18-18A18,18,0,0,1,883.8,543.84Zm0-34a16,16,0,1,0,16,16A16,16,0,0,0,883.8,509.83Z" transform="translate(-865.8 -507.83)"/>
  <g transform="rotate(60 18.1 18.1)">
    <path d="M883.8,528.75a2.91,2.91,0,1,1,2.91-2.91A2.92,2.92,0,0,1,883.8,528.75Zm0-3.83a0.91,0.91,0,1,0,.91.92A0.92,0.92,0,0,0,883.8,524.92Z" transform="translate(-865.8 -507.83)"/>
    <path d="M883.8,521.18a2.91,2.91,0,1,1,2.91-2.91A2.92,2.92,0,0,1,883.8,521.18Zm0-3.83a0.91,0.91,0,1,0,.91.92A0.92,0.92,0,0,0,883.8,517.35Z" transform="translate(-865.8 -507.83)"/>
    <path d="M883.8,536.32a2.92,2.92,0,1,1,2.91-2.91A2.92,2.92,0,0,1,883.8,536.32Zm0-3.83a0.92,0.92,0,1,0,.91.92A0.92,0.92,0,0,0,883.8,532.49Z" transform="translate(-865.8 -507.83)"/>
    <path d="M881.52,526.85a4.79,4.79,0,1,1,0-9.59,1,1,0,0,1,0,2,2.79,2.79,0,1,0,0,5.59A1,1,0,0,1,881.52,526.85Z" transform="translate(-865.8 -507.83)"/>
    <path d="M886.09,534.47a1,1,0,0,1,0-2,2.79,2.79,0,0,0,0-5.59,1,1,0,0,1,0-2A4.79,4.79,0,0,1,886.09,534.47Z" transform="translate(-865.8 -507.83)"/>
  </g>
</svg>
