<svg xmlns="http://www.w3.org/2000/svg" xmlns:xlink="http://www.w3.org/1999/xlink" width="42" height="42" viewBox="2 -2 42 42"><defs><filter id="b" width="2" height="2" x="-.5" y="-.5" filterUnits="objectBoundingBox"><feOffset dy="1" in="SourceAlpha" result="shadowOffsetOuter1"/><feGaussianBlur in="shadowOffsetOuter1" result="shadowBlurOuter1" stdDeviation=".5"/><feColorMatrix in="shadowBlurOuter1" result="shadowMatrixOuter1" values="0 0 0 0 0 0 0 0 0 0 0 0 0 0 0 0 0 0 0.168 0"/><feOffset in="SourceAlpha" result="shadowOffsetOuter2"/><feGaussianBlur in="shadowOffsetOuter2" result="shadowBlurOuter2" stdDeviation=".5"/><feColorMatrix in="shadowBlurOuter2" result="shadowMatrixOuter2" values="0 0 0 0 0 0 0 0 0 0 0 0 0 0 0 0 0 0 0.084 0"/><feMerge><feMergeNode in="shadowMatrixOuter1"/><feMergeNode in="shadowMatrixOuter2"/><feMergeNode in="SourceGraphic"/></feMerge></filter><rect id="a" width="40" height="40" x="0" y="0" rx="2"/></defs><use width="100%" height="100%" fill="#fff" fill-rule="evenodd" filter="url(#b)" transform="translate(3 -1)" xlink:href="#a"/><use width="100%" height="100%" fill="none" fill-rule="evenodd" filter="url(#b)" transform="translate(3 -1)" xlink:href="#a"/><use width="100%" height="100%" fill="none" fill-rule="evenodd" filter="url(#b)" transform="translate(3 -1)" xlink:href="#a"/><use width="100%" height="100%" fill="none" fill-rule="evenodd" filter="url(#b)" transform="translate(3 -1)" xlink:href="#a"/><path fill="#4285f4" fill-rule="evenodd" d="M31.64 19.205c0-.639-.057-1.252-.164-1.841H23v3.481h4.844a4.14 4.14 0 01-1.796 2.716v2.259h2.908c1.702-1.567 2.684-3.875 2.684-6.615z"/><path fill="#34a853" fill-rule="evenodd" d="M23 28c2.43 0 4.467-.806 5.956-2.18l-2.908-2.259c-.806.54-1.837.86-3.048.86-2.344 0-4.328-1.584-5.036-3.711h-3.007v2.332A8.997 8.997 0 0023 28z"/><path fill="#fbbc05" fill-rule="evenodd" d="M17.964 20.71a5.41 5.41 0 01-.282-1.71c0-.593.102-1.17.282-1.71v-2.332h-3.007A8.996 8.996 0 0014 19c0 1.452.348 2.827.957 4.042z"/><path fill="#ea4335" fill-rule="evenodd" d="M23 13.58c1.321 0 2.508.454 3.44 1.345l2.582-2.58C27.463 10.891 25.426 10 23 10a8.997 8.997 0 00-8.043 4.958l3.007 2.332c.708-2.127 2.692-3.71 5.036-3.71z"/><path fill="none" d="M14 10h18v18H14z"/></svg>