<svg width="58" height="48" viewBox="0 0 58 48" fill="none" xmlns="http://www.w3.org/2000/svg">
<path d="M6.31044e-06 19.7521C-0.00133349 18.6696 0.210684 17.5974 0.62394 16.5969C1.0372 15.5964 1.64359 14.6871 2.40845 13.921C3.17331 13.155 4.08165 12.5472 5.08154 12.1324C6.08143 11.7176 7.15327 11.5039 8.23579 11.5036H14.8275C15.264 11.5043 15.6824 11.678 15.9911 11.9866C16.2997 12.2953 16.4734 12.7137 16.4741 13.1502V46.0959C16.4741 46.3121 16.4315 46.5263 16.3488 46.726C16.266 46.9258 16.1447 47.1073 15.9918 47.2603C15.8389 47.4132 15.6574 47.5345 15.4576 47.6172C15.2578 47.7 15.0437 47.7425 14.8275 47.7425H8.23579C6.05217 47.7419 3.95815 46.8743 2.41386 45.3305C0.869569 43.7867 0.00135745 41.6929 6.31044e-06 39.5093V19.7521Z" fill="currentColor"/>
<path d="M34.5949 0H21.4141C20.5046 0 19.7674 0.737229 19.7674 1.64665V46.0959C19.7674 47.0053 20.5046 47.7426 21.4141 47.7426H34.5949C35.5043 47.7426 36.2415 47.0053 36.2415 46.0959V1.64665C36.2415 0.737229 35.5043 0 34.5949 0Z" fill="currentColor"/>
<path d="M57.6556 39.5093C57.6551 41.1381 57.1716 42.7301 56.2663 44.0842C55.3611 45.4382 54.0746 46.4934 52.5697 47.1164C51.0648 47.7393 49.4089 47.9021 47.8115 47.584C46.2141 47.2659 44.7468 46.4813 43.5953 45.3294C42.4438 44.1775 41.6596 42.7101 41.3421 41.1125C41.0245 39.515 41.1877 37.8592 41.8112 36.3545C42.4346 34.8497 43.4902 33.5636 44.8445 32.6588C46.1988 31.7539 47.791 31.271 49.4198 31.271C51.6043 31.2717 53.6991 32.1399 55.2435 33.6848C56.7879 35.2298 57.6556 37.3248 57.6556 39.5093Z" fill="currentColor"/>
</svg>
