<svg xmlns="http://www.w3.org/2000/svg" xmlns:xlink="http://www.w3.org/1999/xlink" id="Layer_1" width="200" height="200" x="0" y="0" enable-background="new 0 0 200 200" version="1.1" viewBox="0 0 200 200" xml:space="preserve"><g><path fill="#908e8e" d="M200-0.5H0v200h26.099c2.885-35.293,24.07-64.381,52.419-74.319C64.372,117.596,54.75,102.674,54.75,85.5 c0-24.853,20.146-45,45-45c24.853,0,45,20.147,45,45c0,17.095-9.533,31.963-23.572,39.58c28.5,9.837,49.828,39.002,52.724,74.42 H200V-0.5z"/><path fill="#FFF" d="M121.178,125.08c14.039-7.617,23.572-22.485,23.572-39.58c0-24.853-20.147-45-45-45 c-24.854,0-45,20.147-45,45c0,17.174,9.622,32.096,23.768,39.681c-28.349,9.938-49.534,39.026-52.419,74.319h147.803 C171.006,164.082,149.678,134.917,121.178,125.08z"/></g></svg>
