<svg xmlns="http://www.w3.org/2000/svg" display="none" viewBox="0 0 100 100"><defs><style/></defs><symbol id="icon-account-login" viewBox="0 0 8 8"><path d="M3 0v1h4v5h-4v1h5v-7h-5zm1 2v1h-4v1h4v1l2-1.5-2-1.5z"/></symbol><symbol id="icon-account-logout" viewBox="0 0 8 8"><path d="M3 0v1h4v5h-4v1h5v-7h-5zm-1 2l-2 1.5 2 1.5v-1h4v-1h-4v-1z"/></symbol><symbol id="icon-action-redo" viewBox="0 0 8 8"><path d="M3.5 0c-1.93 0-3.5 1.57-3.5 3.5 0-1.38 1.12-2.5 2.5-2.5s2.5 1.12 2.5 2.5v.5h-1l2 2 2-2h-1v-.5c0-1.93-1.57-3.5-3.5-3.5z" transform="translate(0 1)"/></symbol><symbol id="icon-action-undo" viewBox="0 0 8 8"><path d="M4.5 0c-1.93 0-3.5 1.57-3.5 3.5v.5h-1l2 2 2-2h-1v-.5c0-1.38 1.12-2.5 2.5-2.5s2.5 1.12 2.5 2.5c0-1.93-1.57-3.5-3.5-3.5z" transform="translate(0 1)"/></symbol><symbol id="icon-actions" viewBox="0 0 35 35"><path d="M17.5 35A17.5 17.5 0 1 1 35 17.5 17.52 17.52 0 0 1 17.5 35zm0-33.06A15.56 15.56 0 1 0 33.06 17.5 15.57 15.57 0 0 0 17.5 1.94zM16 22.48a1 1 0 0 1-.68-.28l-4.08-4a1 1 0 0 1 1.36-1.39l3.4 3.3 8-8.8a1 1 0 0 1 1.44 1.31l-8.69 9.55a1 1 0 0 1-.69.32z"/></symbol><symbol id="icon-align-center" viewBox="0 0 8 8"><path d="M0 0v1h8v-1h-8zm1 2v1h6v-1h-6zm-1 2v1h8v-1h-8zm1 2v1h6v-1h-6z"/></symbol><symbol id="icon-align-left" viewBox="0 0 8 8"><path d="M0 0v1h8v-1h-8zm0 2v1h6v-1h-6zm0 2v1h8v-1h-8zm0 2v1h6v-1h-6z"/></symbol><symbol id="icon-align-right" viewBox="0 0 8 8"><path d="M0 0v1h8v-1h-8zm2 2v1h6v-1h-6zm-2 2v1h8v-1h-8zm2 2v1h6v-1h-6z"/></symbol><symbol id="icon-aperture" viewBox="0 0 8 8"><path d="M4 0c-.69 0-1.34.19-1.91.5l3.22 2.34.75-2.25c-.6-.36-1.31-.59-2.06-.59zm-2.75 1.13c-.76.73-1.25 1.74-1.25 2.88 0 .25.02.48.06.72l3.09-2.22-1.91-1.38zm5.63.13l-1.22 3.75h2.19c.08-.32.16-.65.16-1 0-1.07-.44-2.03-1.13-2.75zm-4.72 3.22l-1.75 1.25c.55 1.13 1.6 1.99 2.88 2.22l-1.13-3.47zm1.56 1.53l.63 1.97c1.33-.12 2.46-.88 3.09-1.97h-3.72z"/></symbol><symbol id="icon-arrow-bottom" viewBox="0 0 8 8"><path d="M2 0v5h-2l2.53 3 2.47-3h-2v-5h-1z" transform="translate(1)"/></symbol><symbol id="icon-arrow-circle-bottom" viewBox="0 0 8 8"><path d="M4 0c-2.21 0-4 1.79-4 4s1.79 4 4 4 4-1.79 4-4-1.79-4-4-4zm-1 1h2v3h2l-3 3-3-3h2v-3z"/></symbol><symbol id="icon-arrow-circle-left" viewBox="0 0 8 8"><path d="M4 0c-2.21 0-4 1.79-4 4s1.79 4 4 4 4-1.79 4-4-1.79-4-4-4zm0 1v2h3v2h-3v2l-3-3 3-3z"/></symbol><symbol id="icon-arrow-circle-right" viewBox="0 0 8 8"><path d="M4 0c-2.21 0-4 1.79-4 4s1.79 4 4 4 4-1.79 4-4-1.79-4-4-4zm0 1l3 3-3 3v-2h-3v-2h3v-2z"/></symbol><symbol id="icon-arrow-circle-top" viewBox="0 0 8 8"><path d="M4 0c-2.21 0-4 1.79-4 4s1.79 4 4 4 4-1.79 4-4-1.79-4-4-4zm0 1l3 3h-2v3h-2v-3h-2l3-3z"/></symbol><symbol id="icon-arrow-left" viewBox="0 0 8 8"><path d="M3 0l-3 2.53 3 2.47v-2h5v-1h-5v-2z" transform="translate(0 1)"/></symbol><symbol id="icon-arrow-right" viewBox="0 0 8 8"><path d="M5 0v2h-5v1h5v2l3-2.53-3-2.47z" transform="translate(0 1)"/></symbol><symbol id="icon-arrow-thick-bottom" viewBox="0 0 8 8"><path d="M2 0v5h-2l3.03 3 2.97-3h-2v-5h-2z" transform="translate(1)"/></symbol><symbol id="icon-arrow-thick-left" viewBox="0 0 8 8"><path d="M3 0l-3 3.03 3 2.97v-2h5v-2h-5v-2z" transform="translate(0 1)"/></symbol><symbol id="icon-arrow-thick-right" viewBox="0 0 8 8"><path d="M5 0v2h-5v2h5v2l3-3.03-3-2.97z" transform="translate(0 1)"/></symbol><symbol id="icon-arrow-thick-top" viewBox="0 0 8 8"><path d="M2.97 0l-2.97 3h2v5h2v-5h2l-3.03-3z" transform="translate(1)"/></symbol><symbol id="icon-arrow-top" viewBox="0 0 8 8"><path d="M2.47 0l-2.47 3h2v5h1v-5h2l-2.53-3z" transform="translate(1)"/></symbol><symbol id="icon-audio-spectrum" viewBox="0 0 8 8"><path d="M4 0v8h1v-8h-1zm-2 1v6h1v-6h-1zm4 1v4h1v-4h-1zm-6 1v2h1v-2h-1z"/></symbol><symbol id="icon-audio" viewBox="0 0 8 8"><path d="M1.16 0c-.72.72-1.16 1.71-1.16 2.81s.43 2.12 1.16 2.84l.72-.72c-.54-.54-.88-1.29-.88-2.13 0-.83.33-1.55.88-2.09l-.72-.72zm5.69 0l-.72.72c.54.54.88 1.26.88 2.09 0 .83-.33 1.58-.88 2.13l.72.72c.72-.72 1.16-1.74 1.16-2.84 0-1.1-.43-2.09-1.16-2.81zm-4.25 1.41c-.36.36-.59.86-.59 1.41 0 .55.23 1.08.59 1.44l.69-.72c-.18-.18-.28-.44-.28-.72 0-.28.1-.5.28-.69l-.69-.72zm2.81 0l-.69.72c.18.18.28.41.28.69 0 .28-.1.54-.28.72l.69.72c.36-.36.59-.89.59-1.44 0-.55-.23-1.05-.59-1.41z" transform="translate(0 1)"/></symbol><symbol id="icon-badge" viewBox="0 0 8 8"><path d="M2 0c-1.1 0-2 .9-2 2s.9 2 2 2 2-.9 2-2-.9-2-2-2zm-1 4.81v3.19l1-1 1 1v-3.19c-.31.11-.65.19-1 .19s-.69-.08-1-.19z" transform="translate(2)"/></symbol><symbol id="icon-ban" viewBox="0 0 8 8"><path d="M4 0c-2.2 0-4 1.8-4 4s1.8 4 4 4 4-1.8 4-4-1.8-4-4-4zm0 1c.66 0 1.26.21 1.75.56l-4.19 4.19c-.35-.49-.56-1.09-.56-1.75 0-1.66 1.34-3 3-3zm2.44 1.25c.35.49.56 1.09.56 1.75 0 1.66-1.34 3-3 3-.66 0-1.26-.21-1.75-.56l4.19-4.19z"/></symbol><symbol id="icon-bar-chart" viewBox="0 0 8 8"><path d="M0 0v7h8v-1h-7v-6h-1zm5 0v5h2v-5h-2zm-3 2v3h2v-3h-2z"/></symbol><symbol id="icon-basket" viewBox="0 0 8 8"><path d="M3.97 0c-.13.01-.26.08-.34.19l-2.34 2.81h-1.28v1h1v3.66c0 .18.16.34.34.34h5.31c.18 0 .34-.16.34-.34v-3.66h1v-1h-1.28c-.27-.33-2.39-2.86-2.41-2.88-.11-.09-.22-.14-.34-.13zm.03 1.28l1.44 1.72h-2.88l1.44-1.72zm-1.5 3.72c.28 0 .5.22.5.5v1c0 .28-.22.5-.5.5s-.5-.22-.5-.5v-1c0-.28.22-.5.5-.5zm3 0c.28 0 .5.22.5.5v1c0 .28-.22.5-.5.5s-.5-.22-.5-.5v-1c0-.28.22-.5.5-.5z"/></symbol><symbol id="icon-battery-empty" viewBox="0 0 8 8"><path d="M.09 0c-.06 0-.09.04-.09.09v5.81c0 .05.04.09.09.09h6.81c.05 0 .09-.04.09-.09v-1.91h1v-2h-1v-1.91c0-.06-.04-.09-.09-.09h-6.81zm.91 1h5v4h-5v-4z" transform="translate(0 1)"/></symbol><symbol id="icon-battery-full" viewBox="0 0 8 8"><path d="M.09 0c-.06 0-.09.04-.09.09v5.81c0 .05.04.09.09.09h6.81c.05 0 .09-.04.09-.09v-1.91h1v-2h-1v-1.91c0-.06-.04-.09-.09-.09h-6.81z" transform="translate(0 1)"/></symbol><symbol id="icon-beaker" viewBox="0 0 8 8"><path d="M1.34 0a.5.5 0 0 0 .16 1h.5v1.41c-.09.17-1.2 2.31-1.66 3.09-.16.26-.34.61-.34 1.06 0 .39.15.77.41 1.03s.64.41 1.03.41h5.13c.38 0 .74-.16 1-.41h.03c.26-.26.41-.64.41-1.03 0-.45-.19-.8-.34-1.06-.46-.78-1.57-2.92-1.66-3.09v-1.41h.5a.5.5 0 1 0 0-1h-5a.5.5 0 0 0-.09 0 .5.5 0 0 0-.06 0zm1.66 1h2v1.63l.06.09s.63 1.23 1.19 2.28h-4.5c.56-1.05 1.19-2.28 1.19-2.28l.06-.09v-1.63z"/></symbol><symbol id="icon-bell" viewBox="0 0 8 8"><path d="M4 0c-1.1 0-2 .9-2 2 0 1.04-.52 1.98-1.34 2.66-.41.34-.66.82-.66 1.34h8c0-.52-.24-1-.66-1.34-.82-.68-1.34-1.62-1.34-2.66 0-1.1-.89-2-2-2zm-1 7c0 .55.45 1 1 1s1-.45 1-1h-2z"/></symbol><symbol id="icon-bluetooth" viewBox="0 0 8 8"><path d="M1.5 0v2.5l-.75-.75-.75.75 1.5 1.5-1.5 1.5.75.75.75-.75v2.5h.5l3.5-2.5-2.25-1.53 2.25-1.47-3.5-2.5h-.5zm1 1.5l1.5 1-1.5 1v-2zm0 3l1.5 1-1.5 1v-2z" transform="translate(1)"/></symbol><symbol id="icon-bold" viewBox="0 0 8 8"><path d="M0 0v1c.55 0 1 .45 1 1v4c0 .55-.45 1-1 1v1h5.5c1.38 0 2.5-1.12 2.5-2.5 0-1-.59-1.85-1.44-2.25.27-.34.44-.78.44-1.25 0-1.1-.89-2-2-2h-5zm3 1h1c.55 0 1 .45 1 1s-.45 1-1 1h-1v-2zm0 3h1.5c.83 0 1.5.67 1.5 1.5s-.67 1.5-1.5 1.5h-1.5v-3z"/></symbol><symbol id="icon-bolt" viewBox="0 0 8 8"><path d="M3 0l-3 5h2v3l3-5h-2v-3z" transform="translate(1)"/></symbol><symbol id="icon-book" viewBox="0 0 8 8"><path d="M1 0c-.07 0-.13.01-.19.03-.39.08-.7.39-.78.78-.03.06-.03.12-.03.19v5.5c0 .83.67 1.5 1.5 1.5h5.5v-1h-5.5c-.28 0-.5-.22-.5-.5s.22-.5.5-.5h5.5v-5.5c0-.28-.22-.5-.5-.5h-.5v3l-1-1-1 1v-3h-3z"/></symbol><symbol id="icon-bookmark" viewBox="0 0 8 8"><path d="M0 0v8l2-2 2 2v-8h-4z" transform="translate(2)"/></symbol><symbol id="icon-box" viewBox="0 0 8 8"><path d="M0 0v1h8v-1h-8zm0 2v5.91c0 .05.04.09.09.09h7.81c.05 0 .09-.04.09-.09v-5.91h-2.97v1.03h-2.03v-1.03h-3z"/></symbol><symbol id="icon-briefcase" viewBox="0 0 8 8"><path d="M3 0c-.55 0-1 .45-1 1v1h-1.91c-.06 0-.09.04-.09.09v2.41c0 .28.22.5.5.5h7c.28 0 .5-.22.5-.5v-2.41c0-.06-.04-.09-.09-.09h-1.91v-1c0-.55-.45-1-1-1h-2zm0 1h2v1h-2v-1zm-3 4.91v2c0 .05.04.09.09.09h7.81c.05 0 .09-.04.09-.09v-2c-.16.06-.32.09-.5.09h-7c-.18 0-.34-.04-.5-.09z"/></symbol><symbol id="icon-british-pound" viewBox="0 0 8 8"><path d="M3 0c-.62 0-1.16.26-1.5.69-.34.43-.5.99-.5 1.56 0 .69.16 1.25.25 1.75h-1.25v1h1.22c-.11.45-.37.96-1.06 1.66l-.16.13v1.22h6v-1h-4.91c.64-.73.98-1.4 1.13-2h1.78v-1h-1.72c-.08-.68-.28-1.24-.28-1.75 0-.39.11-.73.28-.94.17-.21.37-.31.72-.31.39 0 .61.11.75.25s.25.36.25.75h1c0-.58-.17-1.1-.53-1.47-.37-.37-.89-.53-1.47-.53z" transform="translate(1)"/></symbol><symbol id="icon-browser" viewBox="0 0 8 8"><path d="M.34 0a.5.5 0 0 0-.34.5v7a.5.5 0 0 0 .5.5h7a.5.5 0 0 0 .5-.5v-7a.5.5 0 0 0-.5-.5h-7a.5.5 0 0 0-.09 0 .5.5 0 0 0-.06 0zm1.16 1c.28 0 .5.22.5.5s-.22.5-.5.5-.5-.22-.5-.5.22-.5.5-.5zm2 0h3c.28 0 .5.22.5.5s-.22.5-.5.5h-3c-.28 0-.5-.22-.5-.5s.22-.5.5-.5zm-2.5 2h6v4h-6v-4z"/></symbol><symbol id="icon-brush" viewBox="0 0 8 8"><path d="M7.44.03c-.03 0-.04.02-.06.03l-3.75 2.66c-.04.03-.1.11-.13.16l-.13.25c.72.23 1.27.78 1.5 1.5l.25-.13c.05-.03.12-.08.16-.13l2.66-3.75c.03-.05.04-.09 0-.13l-.44-.44c-.02-.02-.04-.03-.06-.03zm-4.78 3.97c-.74 0-1.31.61-1.31 1.34 0 .99-.55 1.85-1.34 2.31.39.22.86.34 1.34.34 1.47 0 2.66-1.18 2.66-2.66 0-.74-.61-1.34-1.34-1.34z"/></symbol><symbol id="icon-bug" viewBox="0 0 8 8"><path d="M3.5 0c-1.19 0-1.98 1.69-1.19 2.5-.09.07-.2.14-.28.22l-1.31-.66a.5.5 0 0 0-.34-.06.5.5 0 0 0-.09.94l1.16.56c-.09.16-.19.33-.25.5h-.69a.5.5 0 0 0-.09 0 .5.5 0 1 0 .09 1h.5c0 .23.02.45.06.66l-.78.41a.5.5 0 1 0 .44.88l.66-.34c.25.46.62.85 1.03 1.09.35-.19.59-.44.59-.72v-1.44a.5.5 0 0 0 0-.09v-.81a.5.5 0 0 0 0-.22c.05-.23.26-.41.5-.41.28 0 .5.22.5.5v.88a.5.5 0 0 0 0 .09v.06a.5.5 0 0 0 0 .09v1.34c0 .27.24.53.59.72.41-.25.79-.63 1.03-1.09l.66.34a.5.5 0 1 0 .44-.88l-.78-.41c.04-.21.06-.43.06-.66h.5a.5.5 0 1 0 0-1h-.69c-.06-.17-.16-.34-.25-.5l1.16-.56a.5.5 0 0 0-.31-.94.5.5 0 0 0-.13.06l-1.31.66c-.09-.08-.19-.15-.28-.22.78-.83 0-2.5-1.19-2.5z"/></symbol><symbol id="icon-bullhorn" viewBox="0 0 8 8"><path d="M6 0v6c.03.01.07 0 .09 0h.81c.05 0 .09-.04.09-.09v-5.81c0-.06-.04-.09-.09-.09h-.91zm-1 .5l-2.91 1.47c-.05.02-.13.03-.19.03h-1.81c-.06 0-.09.04-.09.09v1.81c0 .06.04.09.09.09h.91l1.03 2.72c.11.25.44.36.69.25.25-.11.36-.44.25-.69l-.75-1.78c.03-.14.13-.22.28-.22v-.03l2.5 1.25v-5z"/></symbol><symbol id="icon-calculator" viewBox="0 0 8 8"><path d="M.09 0c-.06 0-.09.04-.09.09v7.81c0 .05.04.09.09.09h6.81c.05 0 .09-.04.09-.09v-7.81c0-.06-.04-.09-.09-.09h-6.81zm.91 1h5v2h-5v-2zm0 3h1v1h-1v-1zm2 0h1v1h-1v-1zm2 0h1v3h-1v-3zm-4 2h1v1h-1v-1zm2 0h1v1h-1v-1z"/></symbol><symbol id="icon-calendar" viewBox="0 0 8 8"><path d="M0 0v2h7v-2h-7zm0 3v4.91c0 .05.04.09.09.09h6.81c.05 0 .09-.04.09-.09v-4.91h-7zm1 1h1v1h-1v-1zm2 0h1v1h-1v-1zm2 0h1v1h-1v-1zm-4 2h1v1h-1v-1zm2 0h1v1h-1v-1z"/></symbol><symbol id="icon-camera-slr" viewBox="0 0 8 8"><path d="M4.09 0c-.05 0-.1.04-.13.09l-.94 1.81c-.02.05-.07.09-.13.09h-1.41c-.83 0-1.5.67-1.5 1.5v4.41c0 .05.04.09.09.09h7.81c.05 0 .09-.04.09-.09v-5.81c0-.06-.04-.09-.09-.09h-.81c-.05 0-.1-.04-.13-.09l-.94-1.81c-.03-.05-.07-.09-.13-.09h-1.81zm-2.59 3c.28 0 .5.22.5.5s-.22.5-.5.5-.5-.22-.5-.5.22-.5.5-.5zm3.5 0c1.1 0 2 .9 2 2s-.9 2-2 2-2-.9-2-2 .9-2 2-2zm0 1c-.55 0-1 .45-1 1s.45 1 1 1 1-.45 1-1-.45-1-1-1z"/></symbol><symbol id="icon-caret-bottom" viewBox="0 0 8 8"><path d="M0 0l4 4 4-4h-8z" transform="translate(0 2)"/></symbol><symbol id="icon-caret-left" viewBox="0 0 8 8"><path d="M4 0l-4 4 4 4v-8z" transform="translate(2)"/></symbol><symbol id="icon-caret-right" viewBox="0 0 8 8"><path d="M0 0v8l4-4-4-4z" transform="translate(2)"/></symbol><symbol id="icon-caret-top" viewBox="0 0 8 8"><path d="M4 0l-4 4h8l-4-4z" transform="translate(0 2)"/></symbol><symbol id="icon-cart" viewBox="0 0 8 8"><path d="M.34 0a.5.5 0 0 0 .16 1h1.5l.09.25.41 1.25.41 1.25c.04.13.21.25.34.25h3.5c.14 0 .3-.12.34-.25l.81-2.5c.04-.13-.02-.25-.16-.25h-4.44l-.38-.72a.5.5 0 0 0-.44-.28h-2a.5.5 0 0 0-.09 0 .5.5 0 0 0-.06 0zm3.16 5c-.28 0-.5.22-.5.5s.22.5.5.5.5-.22.5-.5-.22-.5-.5-.5zm3 0c-.28 0-.5.22-.5.5s.22.5.5.5.5-.22.5-.5-.22-.5-.5-.5z" transform="translate(0 1)"/></symbol><symbol id="icon-chat" viewBox="0 0 8 8"><path d="M0 0v5l1-1h1v-3h3v-1h-5zm3 2v4h4l1 1v-5h-5z"/></symbol><symbol id="icon-check" viewBox="0 0 8 8"><path d="M6.41 0l-.69.72-2.78 2.78-.81-.78-.72-.72-1.41 1.41.72.72 1.5 1.5.69.72.72-.72 3.5-3.5.72-.72-1.44-1.41z" transform="translate(0 1)"/></symbol><symbol id="icon-chevron-bottom" viewBox="0 0 8 8"><path d="M1.5 0l-1.5 1.5 4 4 4-4-1.5-1.5-2.5 2.5-2.5-2.5z" transform="translate(0 1)"/></symbol><symbol id="icon-chevron-left" viewBox="0 0 8 8"><path d="M4 0l-4 4 4 4 1.5-1.5-2.5-2.5 2.5-2.5-1.5-1.5z" transform="translate(1)"/></symbol><symbol id="icon-chevron-right" viewBox="0 0 8 8"><path d="M1.5 0l-1.5 1.5 2.5 2.5-2.5 2.5 1.5 1.5 4-4-4-4z" transform="translate(1)"/></symbol><symbol id="icon-chevron-top" viewBox="0 0 8 8"><path d="M4 0l-4 4 1.5 1.5 2.5-2.5 2.5 2.5 1.5-1.5-4-4z" transform="translate(0 1)"/></symbol><symbol id="icon-circle-check" viewBox="0 0 8 8"><path d="M4 0C1.79 0 0 1.79 0 4s1.79 4 4 4 4-1.79 4-4-1.79-4-4-4zm1.385 2L6 2.68 3.25 5.72 1.78 4.096l.615-.68.854.944L5.385 2z"/></symbol><symbol id="icon-circle-check-old" viewBox="0 0 8 8"><path d="M4 0c-2.21 0-4 1.79-4 4s1.79 4 4 4 4-1.79 4-4-1.79-4-4-4zm2 1.78l.72.72-3.22 3.22-1.72-1.72.72-.72 1 1 2.5-2.5z"/></symbol><symbol id="icon-circle-x" viewBox="0 0 8 8"><path d="M4 0c-2.21 0-4 1.79-4 4s1.79 4 4 4 4-1.79 4-4-1.79-4-4-4zm-1.5 1.78l1.5 1.5 1.5-1.5.72.72-1.5 1.5 1.5 1.5-.72.72-1.5-1.5-1.5 1.5-.72-.72 1.5-1.5-1.5-1.5.72-.72z"/></symbol><symbol id="icon-clipboard" viewBox="0 0 8 8"><path d="M3.5 0c-.28 0-.5.22-.5.5v.5h-.75c-.14 0-.25.11-.25.25v.75h3v-.75c0-.14-.11-.25-.25-.25h-.75v-.5c0-.28-.22-.5-.5-.5zm-3.25 1c-.14 0-.25.11-.25.25v6.5c0 .14.11.25.25.25h6.5c.14 0 .25-.11.25-.25v-6.5c0-.14-.11-.25-.25-.25h-.75v2h-5v-2h-.75z"/></symbol><symbol id="icon-clock" viewBox="0 0 8 8"><path d="M4 0c-2.2 0-4 1.8-4 4s1.8 4 4 4 4-1.8 4-4-1.8-4-4-4zm0 1c1.66 0 3 1.34 3 3s-1.34 3-3 3-3-1.34-3-3 1.34-3 3-3zm-.5 1v2.22l.16.13.5.5.34.38.72-.72-.38-.34-.34-.34v-1.81h-1z"/></symbol><symbol id="icon-cloud-download" viewBox="0 0 8 8"><path d="M4.5 0c-1.21 0-2.27.86-2.5 2-1.1 0-2 .9-2 2 0 .37.11.71.28 1h2.72v-.5c0-.83.67-1.5 1.5-1.5s1.5.67 1.5 1.5v.5h1.91c.06-.16.09-.32.09-.5 0-.65-.42-1.29-1-1.5v-.5c0-1.38-1.12-2.5-2.5-2.5zm-.16 4a.5.5 0 0 0-.34.5v1.5h-1.5l2 2 2-2h-1.5v-1.5a.5.5 0 0 0-.59-.5.5.5 0 0 0-.06 0z"/></symbol><symbol id="icon-cloud-upload" viewBox="0 0 8 8"><path d="M4.5 0c-1.21 0-2.27.86-2.5 2-1.1 0-2 .9-2 2 0 .37.11.71.28 1h2.22l2-2 2 2h1.41c.06-.16.09-.32.09-.5 0-.65-.42-1.29-1-1.5v-.5c0-1.38-1.12-2.5-2.5-2.5zm0 4.5l-2.5 2.5h2v.5a.5.5 0 1 0 1 0v-.5h2l-2.5-2.5z"/></symbol><symbol id="icon-cloud" viewBox="0 0 8 8"><path d="M4.5 0c-1.21 0-2.27.86-2.5 2-1.1 0-2 .9-2 2s.9 2 2 2h4.5c.83 0 1.5-.67 1.5-1.5 0-.65-.42-1.29-1-1.5v-.5c0-1.38-1.12-2.5-2.5-2.5z" transform="translate(0 1)"/></symbol><symbol id="icon-cloudy" viewBox="0 0 8 8"><path d="M2.5 0c-1.38 0-2.5 1.12-2.5 2.5 0 .39.09.74.25 1.06.3-.21.64-.37 1-.47.55-1.25 1.82-2.09 3.25-2.09-.46-.6-1.18-1-2-1zm2 2c-1.21 0-2.27.86-2.5 2-1.1 0-2 .9-2 2s.9 2 2 2h4.5c.83 0 1.5-.67 1.5-1.5 0-.65-.42-1.29-1-1.5v-.5c0-1.38-1.12-2.5-2.5-2.5z"/></symbol><symbol id="icon-code" viewBox="0 0 8 8"><path d="M5 0l-3 6h1l3-6h-1zm-4 1l-1 2 1 2h1l-1-2 1-2h-1zm5 0l1 2-1 2h1l1-2-1-2h-1z" transform="translate(0 1)"/></symbol><symbol id="icon-cog" viewBox="0 0 8 8"><path d="M3.5 0l-.5 1.19c-.1.03-.19.08-.28.13l-1.19-.5-.72.72.5 1.19c-.05.1-.09.18-.13.28l-1.19.5v1l1.19.5c.04.1.08.18.13.28l-.5 1.19.72.72 1.19-.5c.09.04.18.09.28.13l.5 1.19h1l.5-1.19c.09-.04.19-.08.28-.13l1.19.5.72-.72-.5-1.19c.04-.09.09-.19.13-.28l1.19-.5v-1l-1.19-.5c-.03-.09-.08-.19-.13-.28l.5-1.19-.72-.72-1.19.5c-.09-.04-.19-.09-.28-.13l-.5-1.19h-1zm.5 2.5c.83 0 1.5.67 1.5 1.5s-.67 1.5-1.5 1.5-1.5-.67-1.5-1.5.67-1.5 1.5-1.5z"/></symbol><symbol id="icon-collapse-down" viewBox="0 0 8 8"><path d="M0 0v2h8v-2h-8zm2 3l2 2 2-2h-4zm-2 4v1h8v-1h-8z"/></symbol><symbol id="icon-collapse-left" viewBox="0 0 8 8"><path d="M0 0v8h1v-8h-1zm6 0v8h2v-8h-2zm-1 2l-2 2 2 2v-4z"/></symbol><symbol id="icon-collapse-right" viewBox="0 0 8 8"><path d="M0 0v8h2v-8h-2zm7 0v8h1v-8h-1zm-4 2v4l2-2-2-2z"/></symbol><symbol id="icon-collapse-up" viewBox="0 0 8 8"><path d="M0 0v1h8v-1h-8zm4 3l-2 2h4l-2-2zm-4 3v2h8v-2h-8z"/></symbol><symbol id="icon-command" viewBox="0 0 8 8"><path d="M1.5 0c-.83 0-1.5.67-1.5 1.5s.67 1.5 1.5 1.5h.5v1h-.5c-.83 0-1.5.67-1.5 1.5s.67 1.5 1.5 1.5 1.5-.67 1.5-1.5v-.5h1v.5c0 .83.67 1.5 1.5 1.5s1.5-.67 1.5-1.5-.67-1.5-1.5-1.5h-.5v-1h.5c.83 0 1.5-.67 1.5-1.5s-.67-1.5-1.5-1.5-1.5.67-1.5 1.5v.5h-1v-.5c0-.83-.67-1.5-1.5-1.5zm0 1c.28 0 .5.22.5.5v.5h-.5c-.28 0-.5-.22-.5-.5s.22-.5.5-.5zm4 0c.28 0 .5.22.5.5s-.22.5-.5.5h-.5v-.5c0-.28.22-.5.5-.5zm-2.5 2h1v1h-1v-1zm-1.5 2h.5v.5c0 .28-.22.5-.5.5s-.5-.22-.5-.5.22-.5.5-.5zm3.5 0h.5c.28 0 .5.22.5.5s-.22.5-.5.5-.5-.22-.5-.5v-.5z"/></symbol><symbol id="icon-comment-square" viewBox="0 0 8 8"><path d="M.09 0c-.06 0-.09.04-.09.09v5.81c0 .05.04.09.09.09h5.91l2 2v-7.91c0-.06-.04-.09-.09-.09h-7.81z"/></symbol><symbol id="icon-compass" viewBox="0 0 8 8"><path d="M4 0c-2.2 0-4 1.8-4 4s1.8 4 4 4 4-1.8 4-4-1.8-4-4-4zm0 1c1.66 0 3 1.34 3 3s-1.34 3-3 3-3-1.34-3-3 1.34-3 3-3zm2 1l-3 1-1 3 3-1 1-3zm-2 1.5c.28 0 .5.22.5.5s-.22.5-.5.5-.5-.22-.5-.5.22-.5.5-.5z"/></symbol><symbol id="icon-contrast" viewBox="0 0 8 8"><path d="M4 0c-2.2 0-4 1.8-4 4s1.8 4 4 4 4-1.8 4-4-1.8-4-4-4zm0 1c1.66 0 3 1.34 3 3s-1.34 3-3 3v-6z"/></symbol><symbol id="icon-copywriting" viewBox="0 0 8 8"><path d="M0 0v1h8v-1h-8zm0 2v1h5v-1h-5zm0 3v1h8v-1h-8zm0 2v1h6v-1h-6zm7.5 0c-.28 0-.5.22-.5.5s.22.5.5.5.5-.22.5-.5-.22-.5-.5-.5z"/></symbol><symbol id="icon-credit-card" viewBox="0 0 8 8"><path d="M.25 0c-.14 0-.25.11-.25.25v.75h8v-.75c0-.14-.11-.25-.25-.25h-7.5zm-.25 2v3.75c0 .14.11.25.25.25h7.5c.14 0 .25-.11.25-.25v-3.75h-8zm1 2h1v1h-1v-1zm2 0h1v1h-1v-1z" transform="translate(0 1)"/></symbol><symbol id="icon-crop" viewBox="0 0 8 8"><path d="M1 0v1h-1v1h1v5h5v1h1v-1h1v-1h-1v-4.5l1-1-.5-.5-1 1h-4.5v-1h-1zm1 2h3.5l-3.5 3.5v-3.5zm4 .5v3.5h-3.5l3.5-3.5z"/></symbol><symbol id="icon-dashboard" viewBox="0 0 8 8"><path d="M4 0c-2.2 0-4 1.8-4 4s1.8 4 4 4 4-1.8 4-4-1.8-4-4-4zm0 1c1.66 0 3 1.34 3 3s-1.34 3-3 3-3-1.34-3-3 1.34-3 3-3zm0 1c-.28 0-.5.22-.5.5s.22.5.5.5.5-.22.5-.5-.22-.5-.5-.5zm-1.66 1a.5.5 0 0 0-.19.84l.91.91c-.02.08-.06.16-.06.25 0 .55.45 1 1 1s1-.45 1-1-.45-1-1-1c-.09 0-.17.04-.25.06l-.91-.91a.5.5 0 0 0-.44-.16.5.5 0 0 0-.06 0zm3.16 0c-.28 0-.5.22-.5.5s.22.5.5.5.5-.22.5-.5-.22-.5-.5-.5z"/></symbol><symbol id="icon-data-transfer-download" viewBox="0 0 8 8"><path d="M3 0v3h-2l3 3 3-3h-2v-3h-2zm-3 7v1h8v-1h-8z"/></symbol><symbol id="icon-data-transfer-upload" viewBox="0 0 8 8"><path d="M0 0v1h8v-1h-8zm4 2l-3 3h2v3h2v-3h2l-3-3z"/></symbol><symbol id="icon-debates" viewBox="0 0 35 35"><path d="M17.5 35A17.5 17.5 0 1 1 35 17.5 17.52 17.52 0 0 1 17.5 35zm0-33.06A15.56 15.56 0 1 0 33.06 17.5 15.57 15.57 0 0 0 17.5 1.94zm6.44 24.29a1 1 0 0 1-.34-.06l-3.78-1.42a10.75 10.75 0 0 1-2.32.25c-4.95 0-9-3.36-9-7.5s4-7.5 9-7.5 9 3.36 9 7.5a6.75 6.75 0 0 1-1.88 4.6l.32 3.06a1 1 0 0 1-1 1.07zm-4.06-3.47a1 1 0 0 1 .34.06l2.59 1-.2-2a1 1 0 0 1 .3-.8 4.91 4.91 0 0 0 1.62-3.54c0-3.06-3.15-5.55-7-5.55s-7 2.49-7 5.55 3.15 5.55 7 5.55a8.74 8.74 0 0 0 2.14-.26 1 1 0 0 1 .21-.01z"/></symbol><symbol id="icon-delete" viewBox="0 0 8 8"><path d="M2 0l-2 3 2 3h6v-6h-6zm1.5.78l1.5 1.5 1.5-1.5.72.72-1.5 1.5 1.5 1.5-.72.72-1.5-1.5-1.5 1.5-.72-.72 1.5-1.5-1.5-1.5.72-.72z" transform="translate(0 1)"/></symbol><symbol id="icon-dial" viewBox="0 0 8 8"><path d="M4 0c-2.2 0-4 1.8-4 4h1c0-1.66 1.34-3 3-3s3 1.34 3 3h1c0-2.2-1.8-4-4-4zm-.59 2.09c-.81.25-1.41 1.01-1.41 1.91 0 1.11.9 2 2 2 1.11 0 2-.89 2-2 0-.9-.59-1.65-1.41-1.91l-.59.88-.59-.88z" transform="translate(0 1)"/></symbol><symbol id="icon-document" viewBox="0 0 8 8"><path d="M0 0v8h7v-4h-4v-4h-3zm4 0v3h3l-3-3zm-3 2h1v1h-1v-1zm0 2h1v1h-1v-1zm0 2h4v1h-4v-1z"/></symbol><symbol id="icon-dollar" viewBox="0 0 8 8"><path d="M2 0v1h-.75c-.68 0-1.25.57-1.25 1.25v.5c0 .68.44 1.24 1.09 1.41l2.56.66c.14.04.34.29.34.44v.5c0 .14-.11.25-.25.25h-2.5c-.12 0-.21-.04-.25-.06v-.94h-1v1c0 .34.2.63.44.78.23.16.52.22.81.22h.75v1h1v-1h.75c.69 0 1.25-.56 1.25-1.25v-.5c0-.68-.44-1.24-1.09-1.41l-2.56-.66c-.14-.04-.34-.29-.34-.44v-.5c0-.14.11-.25.25-.25h2.5c.11 0 .21.04.25.06v.94h1v-1c0-.34-.2-.63-.44-.78-.23-.16-.52-.22-.81-.22h-.75v-1h-1z" transform="translate(1)"/></symbol><symbol id="icon-double-quote-sans-left" viewBox="0 0 8 8"><path d="M0 0v6l3-3v-3h-3zm5 0v6l3-3v-3h-3z" transform="translate(0 1)"/></symbol><symbol id="icon-double-quote-sans-right" viewBox="0 0 8 8"><path d="M3 0l-3 3v3h3v-6zm5 0l-3 3v3h3v-6z" transform="translate(0 1)"/></symbol><symbol id="icon-double-quote-serif-left" viewBox="0 0 8 8"><path d="M3 0c-1.65 0-3 1.35-3 3v3h3v-3h-2c0-1.11.89-2 2-2v-1zm5 0c-1.65 0-3 1.35-3 3v3h3v-3h-2c0-1.11.89-2 2-2v-1z" transform="translate(0 1)"/></symbol><symbol id="icon-double-quote-serif-right" viewBox="0 0 8 8"><path d="M0 0v3h2c0 1.11-.89 2-2 2v1c1.65 0 3-1.35 3-3v-3h-3zm5 0v3h2c0 1.11-.89 2-2 2v1c1.65 0 3-1.35 3-3v-3h-3z" transform="translate(0 1)"/></symbol><symbol id="icon-droplet" viewBox="0 0 8 8"><path d="M3 0l-.34.34c-.11.11-2.66 2.69-2.66 4.88 0 1.65 1.35 3 3 3s3-1.35 3-3c0-2.18-2.55-4.77-2.66-4.88l-.34-.34zm-1.5 4.72c.28 0 .5.22.5.5 0 .55.45 1 1 1 .28 0 .5.22.5.5s-.22.5-.5.5c-1.1 0-2-.9-2-2 0-.28.22-.5.5-.5z" transform="translate(1)"/></symbol><symbol id="icon-eject" viewBox="0 0 8 8"><path d="M4 0l-4 5h8l-4-5zm-4 6v2h8v-2h-8z"/></symbol><symbol id="icon-elevator" viewBox="0 0 8 8"><path d="M3 0l-3 3h6l-3-3zm-3 5l3 3 3-3h-6z" transform="translate(1)"/></symbol><symbol id="icon-ellipses" viewBox="0 0 8 8"><path d="M0 0v2h2v-2h-2zm3 0v2h2v-2h-2zm3 0v2h2v-2h-2z" transform="translate(0 3)"/></symbol><symbol id="icon-envelope-closed" viewBox="0 0 8 8"><path d="M0 0v1l4 2 4-2v-1h-8zm0 2v4h8v-4l-4 2-4-2z" transform="translate(0 1)"/></symbol><symbol id="icon-envelope-open" viewBox="0 0 8 8"><path d="M4 0l-4 2v6h8v-6l-4-2zm0 1.13l3 1.5v1.88l-3 1.5-3-1.5v-1.88l3-1.5zm-2 1.88v1l2 1 2-1v-1h-4z"/></symbol><symbol id="icon-euro" viewBox="0 0 8 8"><path d="M6 0c-1.86 0-3.4 1.28-3.84 3h-1.91l-.25 1h2.01c0 .35.07.68.16 1h-1.97l-.19 1h2.56c.7 1.19 1.97 2 3.44 2 .73 0 1.41-.21 2-.56v-1.22c-.53.48-1.22.78-2 .78-.89 0-1.67-.39-2.22-1h2.22l.16-1h-2.97c-.11-.32-.19-.64-.19-1h3.34l.16-1h-3.31c.41-1.16 1.51-2 2.81-2 .66 0 1.26.21 1.75.56l.16-1.06c-.57-.31-1.21-.5-1.91-.5z" transform="translate(-1)"/></symbol><symbol id="icon-excerpt" viewBox="0 0 8 8"><path d="M0 0v1h7v-1h-7zm0 2v1h5v-1h-5zm0 2v1h8v-1h-8zm0 2v1h1v-1h-1zm2 0v1h1v-1h-1zm2 0v1h1v-1h-1z"/></symbol><symbol id="icon-expand-down" viewBox="0 0 8 8"><path d="M0 0v1h8v-1h-8zm2 2l2 2 2-2h-4zm-2 4v2h8v-2h-8z"/></symbol><symbol id="icon-expand-left" viewBox="0 0 8 8"><path d="M0 0v8h1v-8h-1zm6 0v8h2v-8h-2zm-4 2v4l2-2-2-2z"/></symbol><symbol id="icon-expand-right" viewBox="0 0 8 8"><path d="M0 0v8h2v-8h-2zm7 0v8h1v-8h-1zm-1 2l-2 2 2 2v-4z"/></symbol><symbol id="icon-expand-up" viewBox="0 0 8 8"><path d="M0 0v2h8v-2h-8zm4 4l-2 2h4l-2-2zm-4 3v1h8v-1h-8z"/></symbol><symbol id="icon-external-link" viewBox="0 0 8 8"><path d="M0 0v8h8v-2h-1v1h-6v-6h1v-1h-2zm4 0l1.5 1.5-2.5 2.5 1 1 2.5-2.5 1.5 1.5v-4h-4z"/></symbol><symbol id="icon-eye" viewBox="0 0 8 8"><path d="M4.03 0c-2.53 0-4.03 3-4.03 3s1.5 3 4.03 3c2.47 0 3.97-3 3.97-3s-1.5-3-3.97-3zm-.03 1c1.11 0 2 .9 2 2 0 1.11-.89 2-2 2-1.1 0-2-.89-2-2 0-1.1.9-2 2-2zm0 1c-.55 0-1 .45-1 1s.45 1 1 1 1-.45 1-1c0-.1-.04-.19-.06-.28-.08.16-.24.28-.44.28-.28 0-.5-.22-.5-.5 0-.2.12-.36.28-.44-.09-.03-.18-.06-.28-.06z" transform="translate(0 1)"/></symbol><symbol id="icon-eyedropper" viewBox="0 0 8 8"><path d="M3.31 0a.5.5 0 0 0-.19.84l.63.63-3.59 3.66-.16.16v2.7199999999999998h2.69l.16-.16 3.66-3.66.63.66a.5.5 0 1 0 .72-.69l-.94-.94.66-.66c.59-.58.59-1.54 0-2.13-.57-.57-1.56-.57-2.13 0l-.66.66-.94-.94a.5.5 0 0 0-.47-.16.5.5 0 0 0-.06 0zm1.16 2.19l1.31 1.31-3.16 3.16-1.28-1.31 3.13-3.16z"/></symbol><symbol id="icon-facebook" viewBox="0 0 10240 10240"><path transform="matrix(1,0,0,-1,0,10240)" d="m 10240,5120 c 0,2827.7 -2292.3,5120 -5120,5120 C 2292.3,10240 0,7947.7 0,5120 0,2564.46 1872.31,446.301 4320,62.1992 V 3640 H 3020 v 1480 h 1300 v 1128 c 0,1283.2 764.38,1992 1933.9,1992 560.17,0 1146.1,-100 1146.1,-100 V 6880 H 6754.38 C 6118.35,6880 5920,6485.33 5920,6080.43 V 5120 H 7340 L 7113,3640 H 5920 V 62.1992 C 8367.69,446.301 10240,2564.46 10240,5120" /></symbol><symbol id="icon-file" viewBox="0 0 8 8"><path d="M0 0v8h7v-4h-4v-4h-3zm4 0v3h3l-3-3z"/></symbol><symbol id="icon-fire" viewBox="0 0 8 8"><path d="M2 0c1 2-2 3-2 5s2 3 2 3c-.98-1.98 2-3 2-5s-2-3-2-3zm3 3c1 2-2 3-2 5h3c.4 0 1-.5 1-2 0-2-2-3-2-3z"/></symbol><symbol id="icon-flag" viewBox="0 0 8 8"><path d="M0 0v8h1v-8h-1zm2 0v4h2v1h4l-2-1.97 2-2.03h-3v-1h-3z"/></symbol><symbol id="icon-flash" viewBox="0 0 8 8"><path d="M1.5 0l-1.5 3h2l-.66 2h-1.34l1 3 3-3h-1.5l1.5-3h-2l1-2h-1.5z" transform="translate(2)"/></symbol><symbol id="icon-folder" viewBox="0 0 8 8"><path d="M0 0v2h8v-1h-5v-1h-3zm0 3v4.5c0 .28.22.5.5.5h7c.28 0 .5-.22.5-.5v-4.5h-8z"/></symbol><symbol id="icon-fork" viewBox="0 0 8 8"><path d="M1.5 0c-.83 0-1.5.67-1.5 1.5 0 .66.41 1.2 1 1.41v2.19c-.59.2-1 .75-1 1.41 0 .83.67 1.5 1.5 1.5s1.5-.67 1.5-1.5c0-.6-.34-1.1-.84-1.34.09-.09.21-.16.34-.16h2c.82 0 1.5-.68 1.5-1.5v-.59c.59-.2 1-.75 1-1.41 0-.83-.67-1.5-1.5-1.5s-1.5.67-1.5 1.5c0 .66.41 1.2 1 1.41v.59c0 .28-.22.5-.5.5h-2c-.17 0-.35.04-.5.09v-1.19c.59-.2 1-.75 1-1.41 0-.83-.67-1.5-1.5-1.5z"/></symbol><symbol id="icon-fullscreen-enter" viewBox="0 0 8 8"><path d="M0 0v4l1.5-1.5 1.5 1.5 1-1-1.5-1.5 1.5-1.5h-4zm5 4l-1 1 1.5 1.5-1.5 1.5h4v-4l-1.5 1.5-1.5-1.5z"/></symbol><symbol id="icon-fullscreen-exit" viewBox="0 0 8 8"><path d="M1 0l-1 1 1.5 1.5-1.5 1.5h4v-4l-1.5 1.5-1.5-1.5zm3 4v4l1.5-1.5 1.5 1.5 1-1-1.5-1.5 1.5-1.5h-4z"/></symbol><symbol id="icon-github" viewBox="0 0 438.549 438.549"><path d="m409.133 114.573c-19.608-33.596-46.205-60.194-79.798-79.8C295.736 15.166 259.057 5.365 219.27 5.365c-39.78 0-76.47 9.804-110.062 29.408-33.596 19.605-60.192 46.204-79.8 79.8C9.803 148.168 0 184.853 0 224.63c0 47.78 13.94 90.745 41.827 128.906 27.884 38.164 63.906 64.572 108.063 79.227 5.14.954 8.945.283 11.42-1.996 2.474-2.282 3.71-5.14 3.71-8.562 0-.57-.05-5.708-.144-15.417-.098-9.71-.144-18.18-.144-25.406l-6.567 1.136c-4.187.767-9.47 1.092-15.846 1-6.38-.09-13-.757-19.85-2-6.855-1.23-13.23-4.085-19.13-8.558-5.9-4.473-10.086-10.328-12.56-17.556l-2.856-6.57c-1.903-4.374-4.9-9.233-8.99-14.56-4.095-5.33-8.234-8.944-12.42-10.847l-2-1.43c-1.33-.952-2.568-2.1-3.71-3.43-1.143-1.33-1.998-2.663-2.57-3.997-.57-1.335-.097-2.43 1.43-3.29 1.523-.858 4.28-1.275 8.28-1.275l5.706.853c3.808.763 8.517 3.042 14.134 6.85 5.614 3.807 10.23 8.755 13.846 14.843 4.38 7.81 9.658 13.76 15.847 17.85 6.183 4.1 12.42 6.14 18.7 6.14 6.28 0 11.702-.474 16.272-1.42 4.562-.95 8.845-2.383 12.844-4.285 1.712-12.76 6.376-22.56 13.987-29.41-10.844-1.14-20.6-2.857-29.26-5.14-8.66-2.286-17.605-5.996-26.835-11.14-9.234-5.137-16.895-11.516-22.984-19.126-6.09-7.615-11.09-17.61-14.99-29.98-3.9-12.374-5.85-26.648-5.85-42.826 0-23.035 7.52-42.637 22.558-58.817-7.044-17.316-6.38-36.73 1.997-58.24 5.52-1.713 13.706-.426 24.554 3.855 10.85 4.285 18.793 7.954 23.84 10.996 5.045 3.04 9.09 5.617 12.134 7.707 17.706-4.948 35.977-7.42 54.82-7.42s37.116 2.472 54.822 7.42l10.85-6.85c7.418-4.57 16.18-8.758 26.26-12.565 10.09-3.806 17.803-4.854 23.135-3.14 8.56 21.51 9.325 40.923 2.28 58.24 15.035 16.18 22.558 35.788 22.558 58.818 0 16.18-1.96 30.5-5.854 42.968-3.9 12.47-8.94 22.46-15.126 29.98-6.19 7.52-13.9 13.85-23.13 18.987-9.233 5.14-18.183 8.85-26.84 11.137-8.663 2.285-18.416 4.003-29.264 5.145 9.894 8.564 14.842 22.08 14.842 40.54v60.23c0 3.42 1.19 6.28 3.572 8.56 2.38 2.28 6.133 2.95 11.273 1.995 44.164-14.653 80.186-41.062 108.07-79.226 27.88-38.16 41.83-81.13 41.83-128.91-.01-39.77-9.82-76.455-29.417-110.05z"/></symbol><symbol id="icon-globe" viewBox="0 0 8 8"><path d="M4 0c-2.21 0-4 1.79-4 4s1.79 4 4 4 4-1.79 4-4-1.79-4-4-4zm0 1c.33 0 .64.09.94.19-.21.2-.45.38-.41.56.04.18.69.13.69.5 0 .27-.42.35-.13.66.35.35-.64.98-.66 1.44-.03.83.84.97 1.53.97.42 0 .53.2.5.44-.54.77-1.46 1.25-2.47 1.25-.38 0-.73-.09-1.06-.22.22-.44-.28-1.31-.75-1.59-.23-.23-.72-.14-1-.25-.09-.27-.18-.54-.19-.84.03-.05.08-.09.16-.09.19 0 .45.38.59.34.18-.04-.74-1.31-.31-1.56.2-.12.6.39.47-.16-.12-.51.36-.28.66-.41.26-.11.45-.41.13-.59-.06-.03-.13-.1-.22-.19.45-.27.97-.44 1.53-.44zm2.31 1.09c.18.22.32.46.44.72 0 .01 0 .02 0 .03-.04.07-.11.11-.22.22-.28.28-.32-.21-.44-.31-.13-.12-.6.02-.66-.13-.07-.18.5-.42.88-.53z"/></symbol><symbol id="icon-google" viewBox="0 0 475.092 475.092"><path d="M273.372 302.498c-5.04-6.762-10.608-13.045-16.7-18.842-6.09-5.804-12.183-11.088-18.27-15.845-6.093-4.75-11.66-9.32-16.703-13.7-5.05-4.374-9.14-8.945-12.28-13.702-3.14-4.756-4.71-9.61-4.71-14.557 0-6.855 2.19-13.28 6.562-19.274 4.376-5.996 9.706-11.8 15.985-17.417 6.28-5.617 12.56-11.753 18.844-18.415 6.276-6.665 11.604-15.465 15.985-26.412 4.372-10.943 6.562-23.457 6.562-37.54 0-16.75-3.713-32.836-11.136-48.25-7.42-15.42-17.89-27.413-31.403-35.977h38.54L303.2 0H178.44c-17.698 0-35.497 1.906-53.383 5.72-26.453 5.9-48.723 19.368-66.806 40.397-18.08 21.033-27.12 44.873-27.12 71.52 0 28.17 10.14 51.583 30.41 70.233 20.27 18.65 44.588 27.978 72.948 27.978 5.71 0 12.37-.478 19.986-1.427-.38 1.53-1.043 3.57-1.997 6.14s-1.715 4.62-2.286 6.14c-.57 1.52-1.047 3.38-1.425 5.57-.38 2.19-.57 4.43-.57 6.71 0 12.564 6.086 26.745 18.27 42.54-14.464.39-28.736 1.67-42.824 3.86-14.083 2.19-28.832 5.618-44.25 10.28-15.417 4.66-29.217 11.42-41.396 20.27-12.182 8.856-21.317 19.368-27.41 31.55C3.534 361.56.01 374.41.01 386.02c0 12.75 2.857 24.313 8.565 34.69 5.708 10.37 13.035 18.84 21.982 25.405 8.945 6.57 19.273 12.083 30.978 16.562 11.704 4.47 23.315 7.66 34.83 9.562 11.515 1.903 22.887 2.854 34.118 2.854 51.007 0 90.98-12.46 119.91-37.39 26.647-23.222 39.97-50.06 39.97-80.516 0-10.855-1.57-20.984-4.712-30.41-3.14-9.43-7.23-17.513-12.27-24.27zm-110.06-103.776c-9.708 0-18.938-2.475-27.695-7.426-8.757-4.95-16.18-11.374-22.27-19.273-6.088-7.898-11.418-16.796-15.987-26.695-4.567-9.896-7.944-19.792-10.135-29.692-2.19-9.895-3.284-19.318-3.284-28.265 0-18.27 4.86-33.97 14.57-47.1 9.706-13.133 23.41-19.7 41.11-19.7 12.565 0 23.937 3.9 34.12 11.704 10.183 7.804 18.177 17.7 23.984 29.69C203.52 73.95 208 86.37 211.14 99.22c3.14 12.847 4.71 24.983 4.71 36.403 0 19.035-4.138 34.316-12.418 45.83-8.283 11.516-21.65 17.274-40.116 17.274zm78.94 214.4c-5.23 8.95-12.32 15.94-21.268 20.982-8.946 5.048-18.51 8.758-28.693 11.14-10.18 2.385-20.88 3.572-32.12 3.572-12.18 0-24.27-1.43-36.25-4.284-11.99-2.85-23.46-7.187-34.402-12.99-10.943-5.8-19.794-13.8-26.55-23.983-6.757-10.19-10.135-21.75-10.135-34.69 0-11.42 2.568-21.61 7.708-30.55 5.143-8.95 11.71-16.09 19.703-21.41 7.992-5.33 17.32-9.72 27.98-13.13 10.66-3.44 20.934-5.81 30.83-7.14 9.894-1.34 19.984-2 30.26-2 6.283 0 11.043.19 14.277.565 1.142.767 4.042 2.76 8.707 5.996s7.804 5.428 9.423 6.57c1.614 1.137 4.566 3.326 8.85 6.563 4.28 3.235 7.326 5.66 9.134 7.28 1.804 1.615 4.422 4.042 7.85 7.276 3.424 3.237 5.948 6.043 7.566 8.422 1.613 2.377 3.614 5.28 5.994 8.7 2.38 3.434 4.043 6.716 4.998 9.856.948 3.14 1.854 6.564 2.707 10.274.85 3.72 1.28 7.57 1.28 11.57.003 11.987-2.615 22.456-7.85 31.397zM401.998 73.09V0h-36.55v73.09h-73.09v36.546h73.09v73.09H402v-73.09h73.083V73.09z"/></symbol><symbol id="icon-graph" viewBox="0 0 8 8"><path d="M7.03 0l-3.03 3-1-1-3 3.03 1 1 2-2.03 1 1 4-4-.97-1zm-7.03 7v1h8v-1h-8z"/></symbol><symbol id="icon-grid-four-up" viewBox="0 0 8 8"><path d="M0 0v1h1v-1h-1zm2 0v1h1v-1h-1zm2 0v1h1v-1h-1zm2 0v1h1v-1h-1zm-6 2v1h1v-1h-1zm2 0v1h1v-1h-1zm2 0v1h1v-1h-1zm2 0v1h1v-1h-1zm-6 2v1h1v-1h-1zm2 0v1h1v-1h-1zm2 0v1h1v-1h-1zm2 0v1h1v-1h-1zm-6 2v1h1v-1h-1zm2 0v1h1v-1h-1zm2 0v1h1v-1h-1zm2 0v1h1v-1h-1z"/></symbol><symbol id="icon-grid-three-up" viewBox="0 0 8 8"><path d="M0 0v2h2v-2h-2zm3 0v2h2v-2h-2zm3 0v2h2v-2h-2zm-6 3v2h2v-2h-2zm3 0v2h2v-2h-2zm3 0v2h2v-2h-2zm-6 3v2h2v-2h-2zm3 0v2h2v-2h-2zm3 0v2h2v-2h-2z"/></symbol><symbol id="icon-grid-two-up" viewBox="0 0 8 8"><path d="M0 0v3h3v-3h-3zm5 0v3h3v-3h-3zm-5 5v3h3v-3h-3zm5 0v3h3v-3h-3z"/></symbol><symbol id="icon-hard-drive" viewBox="0 0 8 8"><path d="M.19 0c-.11 0-.19.08-.19.19v3.31c0 .28.22.5.5.5h6c.28 0 .5-.22.5-.5v-3.31c0-.11-.08-.19-.19-.19h-6.63zm-.19 4.91v2.91c0 .11.08.19.19.19h6.63c.11 0 .19-.08.19-.19v-2.91c-.16.06-.32.09-.5.09h-6c-.18 0-.34-.04-.5-.09zm5.5 1.09c.28 0 .5.22.5.5s-.22.5-.5.5-.5-.22-.5-.5.22-.5.5-.5z"/></symbol><symbol id="icon-header" viewBox="0 0 8 8"><path d="M0 0v1h.5c.28 0 .5.22.5.5v4c0 .28-.22.5-.5.5h-.5v1h3v-1h-.5c-.28 0-.5-.22-.5-.5v-1.5h3v1.5c0 .28-.22.5-.5.5h-.5v1h3v-1h-.5c-.28 0-.5-.22-.5-.5v-4c0-.28.22-.5.5-.5h.5v-1h-3v1h.5c.28 0 .5.22.5.5v1.5h-3v-1.5c0-.28.22-.5.5-.5h.5v-1h-3z"/></symbol><symbol id="icon-headphones" viewBox="0 0 8 8"><path d="M4 0c-1.65 0-3 1.35-3 3v1h-.5a.5.5 0 0 0-.5.5v2a.5.5 0 0 0 .5.5h1a.5.5 0 0 0 .5-.5v-3.5c0-1.11.89-2 2-2 1.11 0 2 .89 2 2v3.5a.5.5 0 0 0 .5.5h1a.5.5 0 0 0 .5-.5v-2a.5.5 0 0 0-.5-.5h-.5v-1c0-1.65-1.35-3-3-3z"/></symbol><symbol id="icon-heart" viewBox="0 0 8 8"><path d="M2 0c-.55 0-1.04.23-1.41.59-.36.36-.59.85-.59 1.41 0 .55.23 1.04.59 1.41l3.41 3.41 3.41-3.41c.36-.36.59-.85.59-1.41 0-.55-.23-1.04-.59-1.41-.36-.36-.85-.59-1.41-.59-.55 0-1.04.23-1.41.59-.36.36-.59.85-.59 1.41 0-.55-.23-1.04-.59-1.41-.36-.36-.85-.59-1.41-.59z" transform="translate(0 1)"/></symbol><symbol id="icon-home" viewBox="0 0 8 8"><path d="M4 0l-4 3h1v4h2v-2h2v2h2v-4.03l1 .03-4-3z"/></symbol><symbol id="icon-image" viewBox="0 0 8 8"><path d="M0 0v8h8v-8h-8zm1 1h6v3l-1-1-1 1 2 2v1h-1l-4-4-1 1v-3z"/></symbol><symbol id="icon-inbox" viewBox="0 0 8 8"><path d="M.19 0c-.11 0-.19.08-.19.19v7.63c0 .11.08.19.19.19h7.63c.11 0 .19-.08.19-.19v-7.63c0-.11-.08-.19-.19-.19h-7.63zm.81 2h6v3h-1l-1 1h-2l-1-1h-1v-3z"/></symbol><symbol id="icon-infinity" viewBox="0 0 8 8"><path d="M2 0c-1.31 0-2 1.01-2 2s.69 2 2 2c.79 0 1.42-.56 2-1.22.58.66 1.19 1.22 2 1.22 1.31 0 2-1.01 2-2s-.69-2-2-2c-.81 0-1.42.56-2 1.22-.58-.66-1.21-1.22-2-1.22zm0 1c.42 0 .88.47 1.34 1-.46.53-.92 1-1.34 1-.74 0-1-.54-1-1 0-.46.26-1 1-1zm4 0c.74 0 1 .54 1 1 0 .46-.26 1-1 1-.43 0-.89-.47-1.34-1 .46-.53.91-1 1.34-1z" transform="translate(0 2)"/></symbol><symbol id="icon-info" viewBox="0 0 8 8"><path d="M3 0c-.55 0-1 .45-1 1s.45 1 1 1 1-.45 1-1-.45-1-1-1zm-1.5 2.5c-.83 0-1.5.67-1.5 1.5h1c0-.28.22-.5.5-.5s.5.22.5.5-1 1.64-1 2.5c0 .86.67 1.5 1.5 1.5s1.5-.67 1.5-1.5h-1c0 .28-.22.5-.5.5s-.5-.22-.5-.5c0-.36 1-1.84 1-2.5 0-.81-.67-1.5-1.5-1.5z" transform="translate(2)"/></symbol><symbol id="icon-instagram" viewBox="0 0 6717.8668 6717.8668"><path transform="matrix(1.3333333,0,0,-1.3333333,0,6717.8667)" d="m 2519.21,1679.47 c -463.78,0 -839.74,375.96 -839.74,839.73 0,463.78 375.96,839.74 839.74,839.74 463.77,0 839.73,-375.96 839.73,-839.74 0,-463.77 -375.96,-839.73 -839.73,-839.73 z m 0,2133.38 c -714.47,0 -1293.65,-579.18 -1293.65,-1293.65 0,-714.46 579.18,-1293.64 1293.65,-1293.64 714.46,0 1293.64,579.18 1293.64,1293.64 0,714.47 -579.18,1293.65 -1293.64,1293.65 M 4166.27,3863.96 c 0,-166.96 -135.35,-302.3 -302.31,-302.3 -166.95,0 -302.3,135.34 -302.3,302.3 0,166.96 135.35,302.31 302.3,302.31 166.96,0 302.31,-135.35 302.31,-302.31 M 2519.21,5038.41 c -684.18,0 -769.97,-2.9 -1038.67,-15.16 C 1212.4,5011.02 1029.27,4968.43 869.027,4906.16 703.367,4841.78 562.879,4755.64 422.824,4615.59 282.773,4475.54 196.633,4335.04 132.254,4169.38 69.9805,4009.14 27.3945,3826.01 15.1563,3557.87 2.89844,3289.17 0,3203.38 0,2519.2 0,1835.03 2.89844,1749.24 15.1563,1480.54 27.3945,1212.4 69.9805,1029.27 132.254,869.031 196.633,703.371 282.773,562.879 422.824,422.82 562.879,282.77 703.367,196.629 869.027,132.25 1029.27,69.9805 1212.4,27.3906 1480.54,15.1602 1749.24,2.90234 1835.03,0 2519.21,0 c 684.17,0 769.96,2.90234 1038.66,15.1602 268.14,12.2304 451.27,54.8203 611.51,117.0898 165.66,64.379 306.15,150.52 446.21,290.57 140.05,140.059 226.19,280.551 290.57,446.211 62.27,160.239 104.86,343.369 117.09,611.509 12.26,268.7 15.16,354.49 15.16,1038.66 0,684.18 -2.9,769.97 -15.16,1038.67 -12.23,268.14 -54.82,451.27 -117.09,611.51 -64.38,165.66 -150.52,306.16 -290.57,446.21 -140.06,140.05 -280.55,226.19 -446.21,290.57 -160.24,62.27 -343.37,104.86 -611.51,117.09 -268.7,12.26 -354.49,15.16 -1038.66,15.16 z m 0,-453.91 c 672.65,0 752.33,-2.57 1017.97,-14.69 245.62,-11.2 379.01,-52.24 467.78,-86.74 117.59,-45.7 201.51,-100.29 289.66,-188.44 88.16,-88.16 142.75,-172.08 188.45,-289.67 34.5,-88.77 75.54,-222.16 86.74,-467.78 12.12,-265.64 14.69,-345.32 14.69,-1017.98 0,-672.65 -2.57,-752.33 -14.69,-1017.97 -11.2,-245.62 -52.24,-379.01 -86.74,-467.78 -45.7,-117.591 -100.29,-201.509 -188.45,-289.661 -88.15,-88.16 -172.07,-142.75 -289.66,-188.449 -88.77,-34.5 -222.16,-75.539 -467.78,-86.738 -265.6,-12.122 -345.27,-14.692 -1017.97,-14.692 -672.71,0 -752.37,2.57 -1017.98,14.692 -245.62,11.199 -379.01,52.238 -467.78,86.738 -117.591,45.699 -201.509,100.289 -289.661,188.449 -88.152,88.152 -142.75,172.07 -188.449,289.661 -34.5,88.77 -75.535,222.16 -86.742,467.78 -12.121,265.64 -14.688,345.32 -14.688,1017.97 0,672.66 2.567,752.34 14.688,1017.98 11.207,245.62 52.242,379.01 86.742,467.78 45.699,117.59 100.293,201.51 188.445,289.66 88.156,88.16 172.074,142.75 289.665,188.45 88.77,34.5 222.16,75.54 467.78,86.74 265.64,12.12 345.32,14.69 1017.98,14.69"/></symbol><symbol id="icon-italic" viewBox="0 0 8 8"><path d="M2 0v1h1.63l-.06.13-2 5-.34.88h-1.22v1h5v-1h-1.63l.06-.13 2-5 .34-.88h1.22v-1h-5z"/></symbol><symbol id="icon-justify-center" viewBox="0 0 8 8"><path d="M0 0v1h8v-1h-8zm0 2v1h8v-1h-8zm0 2v1h8v-1h-8zm1 2v1h6v-1h-6z"/></symbol><symbol id="icon-justify-left" viewBox="0 0 8 8"><path d="M0 0v1h8v-1h-8zm0 2v1h8v-1h-8zm0 2v1h8v-1h-8zm0 2v1h6v-1h-6z"/></symbol><symbol id="icon-justify-right" viewBox="0 0 8 8"><path d="M0 0v1h8v-1h-8zm0 2v1h8v-1h-8zm0 2v1h8v-1h-8zm2 2v1h6v-1h-6z"/></symbol><symbol id="icon-key" viewBox="0 0 8 8"><path d="M5.5 0c-1.38 0-2.5 1.12-2.5 2.5 0 .16 0 .32.03.47l-3.03 3.03v2h3v-2h2v-1l.03-.03c.15.03.31.03.47.03 1.38 0 2.5-1.12 2.5-2.5s-1.12-2.5-2.5-2.5zm.5 1c.55 0 1 .45 1 1s-.45 1-1 1-1-.45-1-1 .45-1 1-1z"/></symbol><symbol id="icon-laptop" viewBox="0 0 8 8"><path d="M1.34 0a.5.5 0 0 0-.34.5v3.5h-1v1.5c0 .28.22.5.5.5h7.010000000000001c.28 0 .5-.22.5-.5v-1.5h-1v-3.5a.5.5 0 0 0-.5-.5h-5a.5.5 0 0 0-.09 0 .5.5 0 0 0-.06 0zm.66 1h4v3h-1v1h-2v-1h-1v-3z" transform="translate(0 1)"/></symbol><symbol id="icon-layers" viewBox="0 0 8 8"><path d="M0 0v4h4v-4h-4zm5 2v3h-3v1h4v-4h-1zm2 2v3h-3v1h4v-4h-1z"/></symbol><symbol id="icon-lightbulb" viewBox="0 0 8 8"><path d="M3.41 0a.5.5 0 0 0-.13.06l-3 1.5a.5.5 0 1 0 .44.88l3-1.5a.5.5 0 0 0-.31-.94zm1 1.5a.5.5 0 0 0-.13.06l-4 2a.5.5 0 1 0 .44.88l4-2a.5.5 0 0 0-.31-.94zm0 2a.5.5 0 0 0-.13.06l-3 1.5a.5.5 0 0 0 .22.94h2a.5.5 0 0 0 .16-1l1.06-.56a.5.5 0 0 0-.31-.94zm-2.56 3.5a.5.5 0 0 0 .16 1h1a.5.5 0 1 0 0-1h-1a.5.5 0 0 0-.09 0 .5.5 0 0 0-.06 0z" transform="translate(1)"/></symbol><symbol id="icon-link-broken" viewBox="0 0 8 8"><path d="M2 0v1h-1v1h2v-2h-1zm3.88.03c-.18.01-.36.03-.53.09-.27.1-.53.25-.75.47l-.44.44a.5.5 0 1 0 .69.69l.44-.44c.11-.11.24-.17.38-.22.35-.12.78-.07 1.06.22.39.39.39 1.04 0 1.44l-1.5 1.5a.5.5 0 1 0 .69.69l1.5-1.5c.78-.78.78-2.04 0-2.81-.28-.28-.61-.45-.97-.53-.18-.04-.38-.04-.56-.03zm-3.59 2.91a.5.5 0 0 0-.19.16l-1.5 1.5c-.78.78-.78 2.04 0 2.81.56.56 1.36.72 2.06.47.27-.1.53-.25.75-.47l.44-.44a.5.5 0 1 0-.69-.69l-.44.44c-.11.11-.24.17-.38.22-.35.12-.78.07-1.06-.22-.39-.39-.39-1.04 0-1.44l1.5-1.5a.5.5 0 0 0-.44-.84.5.5 0 0 0-.06 0zm2.72 3.06v2h1v-1h1v-1h-2z"/></symbol><symbol id="icon-link-intact" viewBox="0 0 8 8"><path d="M5.88.03c-.18.01-.36.03-.53.09-.27.1-.53.25-.75.47a.5.5 0 1 0 .69.69c.11-.11.24-.17.38-.22.35-.12.78-.07 1.06.22.39.39.39 1.04 0 1.44l-1.5 1.5c-.44.44-.8.48-1.06.47-.26-.01-.41-.13-.41-.13a.5.5 0 1 0-.5.88s.34.22.84.25c.5.03 1.2-.16 1.81-.78l1.5-1.5c.78-.78.78-2.04 0-2.81-.28-.28-.61-.45-.97-.53-.18-.04-.38-.04-.56-.03zm-2 2.31c-.5-.02-1.19.15-1.78.75l-1.5 1.5c-.78.78-.78 2.04 0 2.81.56.56 1.36.72 2.06.47.27-.1.53-.25.75-.47a.5.5 0 1 0-.69-.69c-.11.11-.24.17-.38.22-.35.12-.78.07-1.06-.22-.39-.39-.39-1.04 0-1.44l1.5-1.5c.4-.4.75-.45 1.03-.44.28.01.47.09.47.09a.5.5 0 1 0 .44-.88s-.34-.2-.84-.22z"/></symbol><symbol id="icon-list-rich" viewBox="0 0 8 8"><path d="M0 0v3h3v-3h-3zm4 0v1h4v-1h-4zm0 2v1h3v-1h-3zm-4 2v3h3v-3h-3zm4 0v1h4v-1h-4zm0 2v1h3v-1h-3z"/></symbol><symbol id="icon-list" viewBox="0 0 8 8"><path d="M.5 0c-.28 0-.5.22-.5.5s.22.5.5.5.5-.22.5-.5-.22-.5-.5-.5zm1.5 0v1h6v-1h-6zm-1.5 2c-.28 0-.5.22-.5.5s.22.5.5.5.5-.22.5-.5-.22-.5-.5-.5zm1.5 0v1h6v-1h-6zm-1.5 2c-.28 0-.5.22-.5.5s.22.5.5.5.5-.22.5-.5-.22-.5-.5-.5zm1.5 0v1h6v-1h-6zm-1.5 2c-.28 0-.5.22-.5.5s.22.5.5.5.5-.22.5-.5-.22-.5-.5-.5zm1.5 0v1h6v-1h-6z"/></symbol><symbol id="icon-location" viewBox="0 0 8 8"><path d="M8 0l-8 4 3 1 1 3 4-8z"/></symbol><symbol id="icon-lock-locked" viewBox="0 0 8 8"><path d="M3 0c-1.1 0-2 .9-2 2v1h-1v4h6v-4h-1v-1c0-1.1-.9-2-2-2zm0 1c.56 0 1 .44 1 1v1h-2v-1c0-.56.44-1 1-1z" transform="translate(1)"/></symbol><symbol id="icon-lock-unlocked" viewBox="0 0 8 8"><path d="M3 0c-1.1 0-2 .9-2 2h1c0-.56.44-1 1-1s1 .44 1 1v2h-4v4h6v-4h-1v-2c0-1.1-.9-2-2-2z" transform="translate(1)"/></symbol><symbol id="icon-loop-circular" viewBox="0 0 8 8"><path d="M4 0c-1.65 0-3 1.35-3 3h-1l1.5 2 1.5-2h-1c0-1.11.89-2 2-2v-1zm2.5 1l-1.5 2h1c0 1.11-.89 2-2 2v1c1.65 0 3-1.35 3-3h1l-1.5-2z" transform="translate(0 1)"/></symbol><symbol id="icon-loop-square" viewBox="0 0 8 8"><path d="M1 0v2h1v-1h4v2h-1l1.5 2.5 1.5-2.5h-1v-3h-6zm.5 2.5l-1.5 2.5h1v3h6v-2h-1v1h-4v-2h1l-1.5-2.5z"/></symbol><symbol id="icon-loop" viewBox="0 0 8 8"><path d="M6 0v1h-5c-.55 0-1 .45-1 1v1h1v-1h5v1l2-1.5-2-1.5zm-4 4l-2 1.5 2 1.5v-1h5c.55 0 1-.45 1-1v-1h-1v1h-5v-1z"/></symbol><symbol id="icon-magnifying-glass" viewBox="0 0 8 8"><path d="M3.5 0c-1.93 0-3.5 1.57-3.5 3.5s1.57 3.5 3.5 3.5c.59 0 1.17-.14 1.66-.41a1 1 0 0 0 .13.13l1 1a1.02 1.02 0 1 0 1.44-1.44l-1-1a1 1 0 0 0-.16-.13c.27-.49.44-1.06.44-1.66 0-1.93-1.57-3.5-3.5-3.5zm0 1c1.39 0 2.5 1.11 2.5 2.5 0 .66-.24 1.27-.66 1.72-.01.01-.02.02-.03.03a1 1 0 0 0-.13.13c-.44.4-1.04.63-1.69.63-1.39 0-2.5-1.11-2.5-2.5s1.11-2.5 2.5-2.5z"/></symbol><symbol id="icon-map-marker" viewBox="0 0 8 8"><path d="M3 0c-1.66 0-3 1.34-3 3 0 2 3 5 3 5s3-3 3-5c0-1.66-1.34-3-3-3zm0 1c1.11 0 2 .9 2 2 0 1.11-.89 2-2 2-1.1 0-2-.89-2-2 0-1.1.9-2 2-2z" transform="translate(1)"/></symbol><symbol id="icon-map" viewBox="0 0 8 8"><path d="M0 0v8h8v-2.38a.5.5 0 0 0 0-.22v-5.41h-8zm1 1h6v4h-1.5a.5.5 0 0 0-.09 0 .5.5 0 1 0 .09 1h1.5v1h-6v-6zm2.5 1c-.83 0-1.5.67-1.5 1.5 0 1 1.5 2.5 1.5 2.5s1.5-1.5 1.5-2.5c0-.83-.67-1.5-1.5-1.5zm0 1c.28 0 .5.22.5.5s-.22.5-.5.5-.5-.22-.5-.5.22-.5.5-.5z"/></symbol><symbol id="icon-media-pause" viewBox="0 0 8 8"><path d="M0 0v6h2v-6h-2zm4 0v6h2v-6h-2z" transform="translate(1 1)"/></symbol><symbol id="icon-media-play" viewBox="0 0 8 8"><path d="M0 0v6l6-3-6-3z" transform="translate(1 1)"/></symbol><symbol id="icon-media-record" viewBox="0 0 8 8"><path d="M3 0c-1.66 0-3 1.34-3 3s1.34 3 3 3 3-1.34 3-3-1.34-3-3-3z" transform="translate(1 1)"/></symbol><symbol id="icon-media-skip-backward" viewBox="0 0 8 8"><path d="M4 0l-4 3 4 3v-6zm0 3l4 3v-6l-4 3z" transform="translate(0 1)"/></symbol><symbol id="icon-media-skip-forward" viewBox="0 0 8 8"><path d="M0 0v6l4-3-4-3zm4 3v3l4-3-4-3v3z" transform="translate(0 1)"/></symbol><symbol id="icon-media-step-backward" viewBox="0 0 8 8"><path d="M0 0v6h2v-6h-2zm2 3l5 3v-6l-5 3z" transform="translate(0 1)"/></symbol><symbol id="icon-media-step-forward" viewBox="0 0 8 8"><path d="M0 0v6l5-3-5-3zm5 3v3h2v-6h-2v3z" transform="translate(0 1)"/></symbol><symbol id="icon-media-stop" viewBox="0 0 8 8"><path d="M0 0v6h6v-6h-6z" transform="translate(1 1)"/></symbol><symbol id="icon-medical-cross" viewBox="0 0 8 8"><path d="M2 0v2h-2v4h2v2h4v-2h2v-4h-2v-2h-4z"/></symbol><symbol id="icon-meetings" viewBox="0 0 36.02 36.02"><path d="M693.07,543.84a18,18,0,1,1,18-18A18,18,0,0,1,693.07,543.84Zm0-34a16,16,0,1,0,16,16A16,16,0,0,0,693.07,509.83Z" transform="translate(-675.07 -507.83)"/><path d="M693.07,526.93a4.1,4.1,0,1,1,4.1-4.1A4.1,4.1,0,0,1,693.07,526.93Zm0-6.19a2.1,2.1,0,1,0,2.1,2.1A2.1,2.1,0,0,0,693.07,520.74Z" transform="translate(-675.07 -507.83)"/><path d="M693.07,536.65a1,1,0,0,1-.67-0.26c-0.29-.26-7.11-6.5-7.11-14a7.78,7.78,0,0,1,15.57,0c0,7.46-6.82,13.71-7.11,14A1,1,0,0,1,693.07,536.65Zm0-20a5.79,5.79,0,0,0-5.78,5.78c0,5.29,4.13,10.11,5.78,11.82,1.65-1.72,5.78-6.54,5.78-11.82A5.79,5.79,0,0,0,693.07,516.64Z" transform="translate(-675.07 -507.83)"/></symbol><symbol id="icon-menu" viewBox="0 0 8 8"><path d="M0 0v1h8v-1h-8zm0 2.97v1h8v-1h-8zm0 3v1h8v-1h-8z" transform="translate(0 1)"/></symbol><symbol id="icon-microphone" viewBox="0 0 8 8"><path d="M2.91-.03a1 1 0 0 0-.13.03 1 1 0 0 0-.78 1v2a1 1 0 1 0 2 0v-2a1 1 0 0 0-1.09-1.03zm-2.56 2.03a.5.5 0 0 0-.34.5v.5c0 1.48 1.09 2.69 2.5 2.94v1.06h-.5c-.55 0-1 .45-1 1h4.01c0-.55-.45-1-1-1h-.5v-1.06c1.41-.24 2.5-1.46 2.5-2.94v-.5a.5.5 0 1 0-1 0v.5c0 1.11-.89 2-2 2-1.11 0-2-.89-2-2v-.5a.5.5 0 0 0-.59-.5.5.5 0 0 0-.06 0z" transform="translate(1)"/></symbol><symbol id="icon-minus" viewBox="0 0 8 8"><path d="M0 0v2h8v-2h-8z" transform="translate(0 3)"/></symbol><symbol id="icon-monitor" viewBox="0 0 8 8"><path d="M.34 0a.5.5 0 0 0-.34.5v5a.5.5 0 0 0 .5.5h2.5v1h-1c-.55 0-1 .45-1 1h6c0-.55-.45-1-1-1h-1v-1h2.5a.5.5 0 0 0 .5-.5v-5a.5.5 0 0 0-.5-.5h-7a.5.5 0 0 0-.09 0 .5.5 0 0 0-.06 0zm.66 1h6v4h-6v-4z"/></symbol><symbol id="icon-moon" viewBox="0 0 8 8"><path d="M2.72 0c-1.58.53-2.72 2.02-2.72 3.78 0 2.21 1.79 4 4 4 1.76 0 3.25-1.14 3.78-2.72-.4.13-.83.22-1.28.22-2.21 0-4-1.79-4-4 0-.45.08-.88.22-1.28z"/></symbol><symbol id="icon-move" viewBox="0 0 8 8"><path d="M3.5 0l-1.5 1.5h1v1.5h-1.5v-1l-1.5 1.5 1.5 1.5v-1h1.5v1.5h-1l1.5 1.5 1.5-1.5h-1v-1.5h1.5v1l1.5-1.5-1.5-1.5v1h-1.5v-1.5h1l-1.5-1.5z"/></symbol><symbol id="icon-musical-note" viewBox="0 0 8 8"><path d="M8 0c-5 0-6 1-6 1v4.09c-.15-.05-.33-.09-.5-.09-.83 0-1.5.67-1.5 1.5s.67 1.5 1.5 1.5 1.5-.67 1.5-1.5v-3.97c.73-.23 1.99-.44 4-.5v2.06c-.15-.05-.33-.09-.5-.09-.83 0-1.5.67-1.5 1.5s.67 1.5 1.5 1.5 1.5-.67 1.5-1.5v-5.5z"/></symbol><symbol id="icon-paperclip" viewBox="0 0 8 8"><path d="M5 0c-.51 0-1.02.21-1.41.59l-2.78 2.72c-1.07 1.07-1.07 2.8 0 3.88 1.07 1.07 2.8 1.07 3.88 0l1.25-1.25-.69-.69-1.16 1.13-.09.13c-.69.69-1.81.69-2.5 0-.68-.68-.66-1.78 0-2.47l2.78-2.75c.39-.39 1.04-.39 1.44 0 .39.39.37 1.01 0 1.41l-2.5 2.47c-.1.1-.27.1-.38 0-.1-.1-.1-.27 0-.38l.06-.03.91-.94-.69-.69-.97.97c-.48.48-.48 1.27 0 1.75s1.27.49 1.75 0l2.5-2.44c.78-.78.78-2.04 0-2.81-.39-.39-.89-.59-1.41-.59z"/></symbol><symbol id="icon-pencil" viewBox="0 0 8 8"><path d="M6 0l-1 1 2 2 1-1-2-2zm-2 2l-4 4v2h2l4-4-2-2z"/></symbol><symbol id="icon-people" viewBox="0 0 8 8"><path d="M5.5 0c-.51 0-.95.35-1.22.88.45.54.72 1.28.72 2.13 0 .29-.03.55-.09.81.19.11.38.19.59.19.83 0 1.5-.9 1.5-2s-.67-2-1.5-2zm-3 1c-.83 0-1.5.9-1.5 2s.67 2 1.5 2 1.5-.9 1.5-2-.67-2-1.5-2zm4.75 3.16c-.43.51-1.02.82-1.69.84.27.38.44.84.44 1.34v.66h2v-1.66c0-.52-.31-.97-.75-1.19zm-6.5 1c-.44.22-.75.67-.75 1.19v1.66h5v-1.66c0-.52-.31-.97-.75-1.19-.45.53-1.06.84-1.75.84s-1.3-.32-1.75-.84z"/></symbol><symbol id="icon-person" viewBox="0 0 8 8"><path d="M4 0c-1.1 0-2 1.12-2 2.5s.9 2.5 2 2.5 2-1.12 2-2.5-.9-2.5-2-2.5zm-2.09 5c-1.06.05-1.91.92-1.91 2v1h8v-1c0-1.08-.84-1.95-1.91-2-.54.61-1.28 1-2.09 1-.81 0-1.55-.39-2.09-1z"/></symbol><symbol id="icon-phone" viewBox="0 0 8 8"><path d="M.19 0c-.11 0-.19.08-.19.19v7.63c0 .11.08.19.19.19h4.63c.11 0 .19-.08.19-.19v-7.63c0-.11-.08-.19-.19-.19h-4.63zm.81 1h3v5h-3v-5zm1.5 5.5c.28 0 .5.22.5.5s-.22.5-.5.5-.5-.22-.5-.5.22-.5.5-.5z" transform="translate(1)"/></symbol><symbol id="icon-pie-chart" viewBox="0 0 8 8"><path d="M3.5 0c-.97 0-1.84.4-2.47 1.03l2.97 2.97v-3.97c-.16-.02-.33-.03-.5-.03zm1.5 1.06v3.41l-2.72 2.72c.61.5 1.37.81 2.22.81 1.93 0 3.5-1.57 3.5-3.5 0-1.76-1.31-3.19-3-3.44zm-4.09 1.31c-.56.54-.91 1.29-.91 2.13 0 .96.46 1.79 1.16 2.34l2.13-2.13-2.38-2.34z"/></symbol><symbol id="icon-pin" viewBox="0 0 8 8"><path d="M1.34 0a.5.5 0 0 0 .16 1h.5v2h-1c-.55 0-1 .45-1 1h3v3l.44 1 .56-1v-3h3c0-.55-.45-1-1-1h-1v-2h.5a.5.5 0 1 0 0-1h-4a.5.5 0 0 0-.09 0 .5.5 0 0 0-.06 0z"/></symbol><symbol id="icon-play-circle" viewBox="0 0 8 8"><path d="M4 0c-2.21 0-4 1.79-4 4s1.79 4 4 4 4-1.79 4-4-1.79-4-4-4zm-1 2l3 2-3 2v-4z"/></symbol><symbol id="icon-plus" viewBox="0 0 8 8"><path d="M3 0v3h-3v2h3v3h2v-3h3v-2h-3v-3h-2z"/></symbol><symbol id="icon-power-standby" viewBox="0 0 8 8"><path d="M3 0v4h1v-4h-1zm-1.28 1.44l-.38.31c-.81.64-1.34 1.64-1.34 2.75 0 1.93 1.57 3.5 3.5 3.5s3.5-1.57 3.5-3.5c0-1.11-.53-2.11-1.34-2.75l-.38-.31-.63.78.38.31c.58.46.97 1.17.97 1.97 0 1.39-1.11 2.5-2.5 2.5s-2.5-1.11-2.5-2.5c0-.8.36-1.51.94-1.97l.41-.31-.63-.78z"/></symbol><symbol id="icon-print" viewBox="0 0 8 8"><path d="M2 0v2h4v-2h-4zm-1.91 3c-.06 0-.09.04-.09.09v2.81c0 .05.04.09.09.09h.91v-2h6v2h.91c.05 0 .09-.04.09-.09v-2.81c0-.06-.04-.09-.09-.09h-7.81zm1.91 2v3h4v-3h-4z"/></symbol><symbol id="icon-process" viewBox="0 0 36.02 36.02"><path d="M18 36.01c-9.941 0-18-8.059-18-18s8.059-18 18-18 18 8.059 18 18-8.059 18-18 18zm0-34c-8.837 0-16 7.163-16 16s7.163 16 16 16 16-7.163 16-16A16 16 0 0 0 18 2v.01z"/><path d="M15.608 19.423a2.91 2.91 0 1 1 3.975 1.066 2.92 2.92 0 0 1-3.975-1.066zm3.317-1.915a.91.91 0 1 0-.342 1.248.92.92 0 0 0 .342-1.248zM22.164 15.638a2.91 2.91 0 1 1 3.975 1.066 2.92 2.92 0 0 1-3.975-1.066zm3.316-1.915a.91.91 0 1 0-.341 1.248.92.92 0 0 0 .341-1.248zM9.052 23.208a2.92 2.92 0 1 1 5.048-2.937 2.92 2.92 0 0 1-5.048 2.937zm3.317-1.915a.92.92 0 1 0-1.604.903.92.92 0 0 0 1.604-.903z"/><path d="M16.113 16.499a4.795 4.795 0 0 1 8.305-4.795 1 1 0 1 1-1.732 1 2.795 2.795 0 0 0-4.84 2.795 1 1 0 1 1-1.733 1zM11.8 24.267a1 1 0 1 1 1.731-1 2.795 2.795 0 0 0 4.841-2.795 1 1 0 1 1 1.732-1 4.795 4.795 0 0 1-8.305 4.795z"/></symbol><symbol id="icon-project" viewBox="0 0 8 8"><path d="M0 0v7h1v-7h-1zm7 0v7h1v-7h-1zm-5 1v1h2v-1h-2zm1 2v1h2v-1h-2zm1 2v1h2v-1h-2z"/></symbol><symbol id="icon-proposals-old" viewBox="0 0 35 35"><path d="M17.5 35A17.5 17.5 0 1 1 35 17.5 17.52 17.52 0 0 1 17.5 35zm0-33.06A15.56 15.56 0 1 0 33.06 17.5 15.57 15.57 0 0 0 17.5 1.94zm9.5 13.7H8a1 1 0 0 1 0-1.94h19a1 1 0 0 1 0 1.94zm0 3.68H8a1 1 0 0 1 0-1.94h19a1 1 0 0 1 0 1.94zM22.26 23H8a1 1 0 0 1 0-1.94h14.26a1 1 0 0 1 0 1.94z"/></symbol><symbol id="icon-pulse" viewBox="0 0 8 8"><path d="M3.25 0l-.47 1.53-.78 2.56-.03-.06-.09-.34h-1.88v1h1.1600000000000001l.38 1.16.47 1.47.47-1.5.78-2.5.78 2.5.41 1.34.53-1.28.59-1.47.13.28h2.31v-1h-1.69l-.38-.75-.5-.97-.41 1.03-.47 1.19-.84-2.66-.47-1.53z"/></symbol><symbol id="icon-puzzle-piece" viewBox="0 0 8 8"><path d="M3 0c-.28 0-.54.1-.72.28-.18.18-.28.44-.28.72 0 .28.18.48.28.72.03.06.03.16.03.28h-2.31v6h2.31c0-.12-.01-.22-.03-.28-.1-.24-.28-.44-.28-.72 0-.28.1-.54.28-.72.18-.18.44-.28.72-.28.28 0 .54.1.72.28.18.18.28.44.28.72 0 .28-.18.48-.28.72-.03.06-.03.16-.03.28h2.31v-2.31c.12 0 .22.01.28.03.24.1.44.28.72.28.28 0 .54-.1.72-.28.18-.18.28-.44.28-.72 0-.28-.1-.54-.28-.72-.18-.18-.44-.28-.72-.28-.28 0-.48.18-.72.28-.06.03-.16.03-.28.03v-2.31h-2.31c0-.12.01-.22.03-.28.1-.24.28-.44.28-.72 0-.28-.1-.54-.28-.72-.18-.18-.44-.28-.72-.28z"/></symbol><symbol id="icon-question-mark" viewBox="0 0 8 8"><path d="M2.47 0c-.85 0-1.48.26-1.88.66-.4.4-.54.9-.59 1.28l1 .13c.04-.25.12-.5.31-.69.19-.19.49-.38 1.16-.38.66 0 1.02.16 1.22.34.2.18.28.4.28.66 0 .83-.34 1.06-.84 1.5-.5.44-1.16 1.08-1.16 2.25v.25h1v-.25c0-.83.31-1.06.81-1.5.5-.44 1.19-1.08 1.19-2.25 0-.48-.17-1.02-.59-1.41-.43-.39-1.07-.59-1.91-.59zm-.5 7v1h1v-1h-1z" transform="translate(2)"/></symbol><symbol id="icon-rain" viewBox="0 0 8 8"><path d="M4.5 0c-1.21 0-2.27.86-2.5 2-1.1 0-2 .9-2 2 0 .53.2.99.53 1.34.26-.22.6-.34.97-.34.2 0 .39.05.56.13.17-.64.74-1.13 1.44-1.13.69 0 1.27.49 1.44 1.13.17-.07.36-.13.56-.13.63 0 1.15.39 1.38.94.64-.17 1.13-.75 1.13-1.44 0-.65-.42-1.29-1-1.5v-.5c0-1.38-1.12-2.5-2.5-2.5zm-1.16 5a.5.5 0 0 0-.34.5v2a.5.5 0 1 0 1 0v-2a.5.5 0 0 0-.59-.5.5.5 0 0 0-.06 0zm-2 1a.5.5 0 0 0-.34.5v1a.5.5 0 1 0 1 0v-1a.5.5 0 0 0-.59-.5.5.5 0 0 0-.06 0zm4 0a.5.5 0 0 0-.34.5v1a.5.5 0 1 0 1 0v-1a.5.5 0 0 0-.59-.5.5.5 0 0 0-.06 0z"/></symbol><symbol id="icon-random" viewBox="0 0 8 8"><path d="M6 0v1h-.5c-.35 0-.56.1-.78.38l-1.41 1.78-1.53-1.78c-.22-.26-.44-.38-.78-.38h-1v1h1c-.05 0 .01.04.03.03l1.63 1.91-1.66 2.06h-1v1h1c.35 0 .56-.1.78-.38l1.53-1.91 1.66 1.91c.22.26.44.38.78.38h.25v1l2-1.5-2-1.5v1h-.22c-.01-.01-.05-.04-.06-.03l-1.75-2.06 1.53-1.91h.5v1l2-1.5-2-1.5z"/></symbol><symbol id="icon-reload" viewBox="0 0 8 8"><path d="M4 0c-2.2 0-4 1.8-4 4s1.8 4 4 4c1.1 0 2.12-.43 2.84-1.16l-.72-.72c-.54.54-1.29.88-2.13.88-1.66 0-3-1.34-3-3s1.34-3 3-3c.83 0 1.55.36 2.09.91l-1.09 1.09h3v-3l-1.19 1.19c-.72-.72-1.71-1.19-2.81-1.19z"/></symbol><symbol id="icon-resize-both" viewBox="0 0 8 8"><path d="M4 0l1.66 1.66-4 4-1.66-1.66v4h4l-1.66-1.66 4-4 1.66 1.66v-4h-4z"/></symbol><symbol id="icon-resize-height" viewBox="0 0 8 8"><path d="M2.5 0l-2.5 3h2v2h-2l2.5 3 2.5-3h-2v-2h2l-2.5-3z" transform="translate(1)"/></symbol><symbol id="icon-resize-width" viewBox="0 0 8 8"><path d="M3 0l-3 2.5 3 2.5v-2h2v2l3-2.5-3-2.5v2h-2v-2z" transform="translate(0 1)"/></symbol><symbol id="icon-rss-alt" viewBox="0 0 8 8"><path d="M0 0v2c3.33 0 6 2.67 6 6h2c0-4.41-3.59-8-8-8zm0 3v2c1.67 0 3 1.33 3 3h2c0-2.75-2.25-5-5-5zm0 3v2h2c0-1.11-.9-2-2-2z"/></symbol><symbol id="icon-rss" viewBox="0 0 8 8"><path d="M1 0v1c3.32 0 6 2.68 6 6h1c0-3.86-3.14-7-7-7zm0 2v1c2.21 0 4 1.79 4 4h1c0-2.76-2.24-5-5-5zm0 2v1c1.11 0 2 .89 2 2h1c0-1.65-1.35-3-3-3zm0 2c-.55 0-1 .45-1 1s.45 1 1 1 1-.45 1-1-.45-1-1-1z"/></symbol><symbol id="icon-script" viewBox="0 0 8 8"><path d="M3 0c-.55 0-1 .45-1 1v5.5c0 .28-.22.5-.5.5s-.5-.22-.5-.5v-1.5h-1v2c0 .55.45 1 1 1h5c.55 0 1-.45 1-1v-3h-4v-2.5c0-.28.22-.5.5-.5s.5.22.5.5v1.5h4v-2c0-.55-.45-1-1-1h-4z"/></symbol><symbol id="icon-share-boxed" viewBox="0 0 8 8"><path d="M.75 0c-.41 0-.75.34-.75.75v5.5c0 .41.34.75.75.75h4.5c.41 0 .75-.34.75-.75v-1.25h-1v1h-4v-5h2v-1h-2.25zm5.25 0v1c-2.05 0-3.7 1.54-3.94 3.53.21-.88.99-1.53 1.94-1.53h2v1l2-2-2-2z"/></symbol><symbol id="icon-share" viewBox="0 0 8 8"><path d="M5 0v2c-4 0-5 2.05-5 5 .52-1.98 2-3 4-3h1v2l3-3.16-3-2.84z"/></symbol><symbol id="icon-shield" viewBox="0 0 8 8"><path d="M4 0l-.19.09-3.5 1.47-.31.13v.31c0 1.66.67 3.12 1.47 4.19.4.53.83.97 1.25 1.28.42.31.83.53 1.28.53.46 0 .86-.22 1.28-.53.42-.31.85-.75 1.25-1.28.8-1.07 1.47-2.53 1.47-4.19v-.31l-.31-.13-3.5-1.47-.19-.09zm0 1.09v5.91c-.04 0-.33-.07-.66-.31s-.71-.63-1.06-1.09c-.64-.85-1.14-2.03-1.22-3.28l2.94-1.22z"/></symbol><symbol id="icon-signal" viewBox="0 0 8 8"><path d="M6 0v8h1v-8h-1zm-2 1v7h1v-7h-1zm-2 2v5h1v-5h-1zm-2 2v3h1v-3h-1z"/></symbol><symbol id="icon-signpost" viewBox="0 0 8 8"><path d="M3 0v1h-2l-1 1 1 1h2v5h1v-4h2l1-1-1-1h-2v-2h-1z"/></symbol><symbol id="icon-sort-ascending" viewBox="0 0 8 8"><path d="M2 0v6h-2l2.5 2 2.5-2h-2v-6h-1zm2 0v1h2v-1h-2zm0 2v1h3v-1h-3zm0 2v1h4v-1h-4z"/></symbol><symbol id="icon-sort-descending" viewBox="0 0 8 8"><path d="M2 0v6h-2l2.5 2 2.5-2h-2v-6h-1zm2 0v1h4v-1h-4zm0 2v1h3v-1h-3zm0 2v1h2v-1h-2z"/></symbol><symbol id="icon-spreadsheet" viewBox="0 0 8 8"><path d="M.75 0c-.41 0-.75.34-.75.75v5.5c0 .41.34.75.75.75h6.5c.41 0 .75-.34.75-.75v-5.5c0-.41-.34-.75-.75-.75h-6.5zm.25 1h1v1h-1v-1zm2 0h4v1h-4v-1zm-2 2h1v1h-1v-1zm2 0h4v1h-4v-1zm-2 2h1v1h-1v-1zm2 0h4v1h-4v-1z"/></symbol><symbol id="icon-star" viewBox="0 0 8 8"><path d="M4 0l-1 3h-3l2.5 2-1 3 2.5-2 2.5 2-1-3 2.5-2h-3l-1-3z"/></symbol><symbol id="icon-sun" viewBox="0 0 8 8"><path d="M4 0c-.28 0-.5.22-.5.5s.22.5.5.5.5-.22.5-.5-.22-.5-.5-.5zm-2.5 1c-.28 0-.5.22-.5.5s.22.5.5.5.5-.22.5-.5-.22-.5-.5-.5zm5 0c-.28 0-.5.22-.5.5s.22.5.5.5.5-.22.5-.5-.22-.5-.5-.5zm-2.5 1c-1.1 0-2 .9-2 2s.9 2 2 2 2-.9 2-2-.9-2-2-2zm-3.5 1.5c-.28 0-.5.22-.5.5s.22.5.5.5.5-.22.5-.5-.22-.5-.5-.5zm7 0c-.28 0-.5.22-.5.5s.22.5.5.5.5-.22.5-.5-.22-.5-.5-.5zm-6 2.5c-.28 0-.5.22-.5.5s.22.5.5.5.5-.22.5-.5-.22-.5-.5-.5zm5 0c-.28 0-.5.22-.5.5s.22.5.5.5.5-.22.5-.5-.22-.5-.5-.5zm-2.5 1c-.28 0-.5.22-.5.5s.22.5.5.5.5-.22.5-.5-.22-.5-.5-.5z"/></symbol><symbol id="icon-tablet" viewBox="0 0 8 8"><path d="M.34 0c-.18 0-.34.16-.34.34v7.31c0 .18.16.34.34.34h6.31c.18 0 .34-.16.34-.34v-7.31c0-.18-.16-.34-.34-.34h-6.31zm.66 1h5v5h-5v-5zm2.5 5.5c.38 0 .63.42.44.75s-.68.33-.88 0c-.19-.33.05-.75.44-.75z"/></symbol><symbol id="icon-tag" viewBox="0 0 8 8"><path d="M0 0v3l5 5 3-3-5-5h-3zm2 1c.55 0 1 .45 1 1s-.45 1-1 1-1-.45-1-1 .45-1 1-1z"/></symbol><symbol id="icon-tags" viewBox="0 0 8 8"><path d="M0 0v2l3 3 1.5-1.5.5-.5-2-2-1-1h-2zm3.41 0l3 3-1.19 1.22.78.78 2-2-3-3h-1.59zm-1.91 1c.28 0 .5.22.5.5s-.22.5-.5.5-.5-.22-.5-.5.22-.5.5-.5z" transform="translate(0 1)"/></symbol><symbol id="icon-target" viewBox="0 0 8 8"><path d="M4 0c-2.2 0-4 1.8-4 4s1.8 4 4 4 4-1.8 4-4-1.8-4-4-4zm0 1c1.66 0 3 1.34 3 3s-1.34 3-3 3-3-1.34-3-3 1.34-3 3-3zm0 1c-1.1 0-2 .9-2 2s.9 2 2 2 2-.9 2-2-.9-2-2-2zm0 1c.56 0 1 .44 1 1s-.44 1-1 1-1-.44-1-1 .44-1 1-1z"/></symbol><symbol id="icon-task" viewBox="0 0 8 8"><path d="M0 0v7h7v-3.59l-1 1v1.59h-5v-5h3.59l1-1h-5.59zm7 0l-3 3-1-1-1 1 2 2 4-4-1-1z"/></symbol><symbol id="icon-terminal" viewBox="0 0 8 8"><path d="M.09 0c-.06 0-.09.04-.09.09v7.81c0 .05.04.09.09.09h7.81c.05 0 .09-.04.09-.09v-7.81c0-.06-.04-.09-.09-.09h-7.81zm1.41.78l1.72 1.72-1.72 1.72-.72-.72 1-1-1-1 .72-.72zm2.5 2.22h3v1h-3v-1z"/></symbol><symbol id="icon-text" viewBox="0 0 8 8"><path d="M0 0v2h.5c0-.55.45-1 1-1h1.5v5.5c0 .28-.22.5-.5.5h-.5v1h4v-1h-.5c-.28 0-.5-.22-.5-.5v-5.5h1.5c.55 0 1 .45 1 1h.5v-2h-8z"/></symbol><symbol id="icon-thumb-down" viewBox="0 0 8 8"><path d="M0 0v4h1v-4h-1zm2 0v4c.28 0 .53.09.72.28.19.19 1.15 2.12 1.28 2.38.13.26.39.39.66.31.26-.08.4-.36.31-.63-.08-.26-.47-1.59-.47-1.84s.22-.5.5-.5h1.5c.28 0 .5-.22.5-.5s-1.03-3.19-1.03-3.19c-.08-.18-.26-.31-.47-.31h-3.5z"/></symbol><symbol id="icon-thumb-up" viewBox="0 0 8 8"><path d="M4.47 0c-.19.02-.37.15-.47.34-.13.26-1.09 2.19-1.28 2.38-.19.19-.44.28-.72.28v4h3.5c.21 0 .39-.13.47-.31 0 0 1.03-2.91 1.03-3.19 0-.28-.22-.5-.5-.5h-1.5c-.28 0-.5-.25-.5-.5s.39-1.58.47-1.84c.08-.26-.05-.54-.31-.63-.07-.02-.12-.04-.19-.03zm-4.47 3v4h1v-4h-1z"/></symbol><symbol id="icon-timer" viewBox="0 0 8 8"><path d="M2 0v1h1v.03c-1.7.24-3 1.71-3 3.47 0 1.93 1.57 3.5 3.5 3.5s3.5-1.57 3.5-3.5c0-.45-.1-.87-.25-1.25l-.91.38c.11.29.16.57.16.88 0 1.39-1.11 2.5-2.5 2.5s-2.5-1.11-2.5-2.5 1.11-2.5 2.5-2.5c.3 0 .59.05.88.16l.34-.94c-.23-.08-.47-.12-.72-.16v-.06h1v-1h-3zm5 1.16s-3.65 2.81-3.84 3c-.19.2-.19.49 0 .69.19.2.49.2.69 0 .2-.2 3.16-3.69 3.16-3.69z"/></symbol><symbol id="icon-transfer" viewBox="0 0 8 8"><path d="M6 0v1h-6v1h6v1l2-1.5-2-1.5zm-4 4l-2 1.5 2 1.5v-1h6v-1h-6v-1z"/></symbol><symbol id="icon-trash" viewBox="0 0 8 8"><path d="M3 0c-.55 0-1 .45-1 1h-1c-.55 0-1 .45-1 1h7c0-.55-.45-1-1-1h-1c0-.55-.45-1-1-1h-1zm-2 3v4.81c0 .11.08.19.19.19h4.63c.11 0 .19-.08.19-.19v-4.81h-1v3.5c0 .28-.22.5-.5.5s-.5-.22-.5-.5v-3.5h-1v3.5c0 .28-.22.5-.5.5s-.5-.22-.5-.5v-3.5h-1z"/></symbol><symbol id="icon-twitter" viewBox="0 0 449.956 449.956"><path d="M449.956 85.657c-17.702 7.614-35.408 12.37-53.102 14.28 19.985-11.992 33.503-28.932 40.546-50.82-18.28 10.847-37.787 18.268-58.532 22.267-18.274-19.414-40.73-29.125-67.383-29.125-25.502 0-47.246 8.99-65.24 26.98-17.984 17.98-26.977 39.73-26.977 65.23 0 6.85.76 13.892 2.284 21.13-37.688-1.908-73.042-11.37-106.068-28.41-33.024-17.035-61.05-39.73-84.08-68.09-8.376 14.27-12.564 29.785-12.564 46.534 0 15.798 3.71 30.456 11.136 43.97 7.422 13.512 17.417 24.455 29.98 32.83-14.85-.57-28.743-4.474-41.684-11.707v1.14c0 22.27 6.995 41.825 20.983 58.675C53.245 247.395 70.9 258 92.215 262.38c-7.993 2.09-16.084 3.137-24.267 3.137-5.33 0-11.136-.475-17.416-1.42 5.9 18.46 16.75 33.633 32.546 45.535 15.8 11.896 33.69 18.028 53.677 18.418-33.498 26.262-71.66 39.393-114.486 39.393-8.19 0-15.61-.373-22.27-1.14C42.82 393.9 90.03 407.7 141.61 407.7c32.74 0 63.48-5.18 92.21-15.557 28.747-10.368 53.298-24.266 73.666-41.685 20.362-17.415 37.925-37.448 52.674-60.097 14.75-22.65 25.738-46.29 32.977-70.94 7.23-24.65 10.848-49.342 10.848-74.09 0-5.33-.096-9.325-.287-11.99 18.087-13.13 33.504-29.024 46.258-47.673z"/></symbol><symbol id="icon-twitter-x" viewBox="0 0 1227 1227"><path d="M 727.663,519.284 1174.39,0 H 1068.53 L 680.637,450.887 370.828,0 H 13.5 L 481.992,681.821 13.5,1226.37 H 119.366 L 528.991,750.218 856.172,1226.37 H 1213.5 L 727.637,519.284 Z M 582.665,687.828 535.197,619.934 157.511,79.6944 h 162.604 l 304.797,435.9906 47.468,67.894 396.2,566.721 H 905.976 L 582.665,687.854 Z"/></symbol><symbol id="icon-underline" viewBox="0 0 8 8"><path d="M1 0v4c0 1.1 1.12 2 2.5 2h.5c1.1 0 2-.9 2-2v-4h-1v4c0 .55-.45 1-1 1s-1-.45-1-1v-4h-2zm-1 7v1h7v-1h-7z"/></symbol><symbol id="icon-verified-badge" viewBox="0 0 12 12"><path d="M0 6a6 6 0 1 0 12 0A6 6 0 1 0 0 6m5.943 1.689l-1.926.906.267-2.112L2.826 4.93l2.092-.4 1.025-1.865L6.97 4.531l2.091.4-1.457 1.552.267 2.112z"/></symbol><symbol id="icon-vertical-align-bottom" viewBox="0 0 8 8"><path d="M.09 0c-.06 0-.09.04-.09.09v4.81c0 .05.04.09.09.09h1.81c.05 0 .09-.04.09-.09v-4.81c0-.06-.04-.09-.09-.09h-1.81zm6 0c-.05 0-.09.04-.09.09v4.81c0 .05.04.09.09.09h1.81c.05 0 .09-.04.09-.09v-4.81c0-.06-.04-.09-.09-.09h-1.81zm-3 2c-.06 0-.09.04-.09.09v2.81c0 .05.04.09.09.09h1.81c.05 0 .09-.04.09-.09v-2.81c0-.06-.04-.09-.09-.09h-1.81zm-3.09 4v1h8v-1h-8z"/></symbol><symbol id="icon-vertical-align-center" viewBox="0 0 8 8"><path d="M.09 0c-.06 0-.09.04-.09.09v1.91h2v-1.91c0-.06-.04-.09-.09-.09h-1.81zm6 0c-.05 0-.09.04-.09.09v1.91h2v-1.91c0-.06-.04-.09-.09-.09h-1.81zm-3 1c-.06 0-.09.04-.09.09v.91h2v-.91c0-.05-.04-.09-.09-.09h-1.81zm-3.09 2v1h8v-1h-8zm0 2v1.91c0 .05.04.09.09.09h1.81c.05 0 .09-.04.09-.09v-1.91h-2zm3 0v.91c0 .05.04.09.09.09h1.81c.05 0 .09-.04.09-.09v-.91h-2zm3 0v1.91c0 .05.04.09.09.09h1.81c.05 0 .09-.04.09-.09v-1.91h-2z"/></symbol><symbol id="icon-vertical-align-top" viewBox="0 0 8 8"><path d="M0 0v1h8v-1h-8zm.09 2c-.06 0-.09.04-.09.09v4.81c0 .05.04.09.09.09h1.81c.05 0 .09-.04.09-.09v-4.81c0-.06-.04-.09-.09-.09h-1.81zm3 0c-.06 0-.09.04-.09.09v2.81c0 .05.04.09.09.09h1.81c.05 0 .09-.04.09-.09v-2.81c0-.06-.04-.09-.09-.09h-1.81zm3 0c-.05 0-.09.04-.09.09v4.81c0 .05.04.09.09.09h1.81c.05 0 .09-.04.09-.09v-4.81c0-.06-.04-.09-.09-.09h-1.81z"/></symbol><symbol id="icon-video" viewBox="0 0 8 8"><path d="M.5 0c-.28 0-.5.23-.5.5v4c0 .28.23.5.5.5h5c.28 0 .5-.22.5-.5v-1.5l1 1h1v-3h-1l-1 1v-1.5c0-.28-.22-.5-.5-.5h-5z" transform="translate(0 1)"/></symbol><symbol id="icon-volume-high" viewBox="0 0 8 8"><path d="M3.34 0l-1.34 2h-2v4h2l1.34 2h.66v-8h-.66zm1.66 1v1c.17 0 .34.02.5.06.86.22 1.5 1 1.5 1.94s-.63 1.72-1.5 1.94c-.16.04-.33.06-.5.06v1c.25 0 .48-.04.72-.09h.03c1.3-.33 2.25-1.51 2.25-2.91 0-1.4-.95-2.58-2.25-2.91-.23-.06-.49-.09-.75-.09zm0 2v2c.09 0 .18-.01.25-.03.43-.11.75-.51.75-.97 0-.46-.31-.86-.75-.97-.08-.02-.17-.03-.25-.03z"/></symbol><symbol id="icon-volume-low" viewBox="0 0 8 8"><path d="M3.34 0l-1.34 2h-2v4h2l1.34 2h.66v-8h-.66zm1.66 3v2c.09 0 .18-.01.25-.03.43-.11.75-.51.75-.97 0-.46-.31-.86-.75-.97-.08-.02-.17-.03-.25-.03z" transform="translate(1)"/></symbol><symbol id="icon-volume-off" viewBox="0 0 8 8"><path d="M3.34 0l-1.34 2h-2v4h2l1.34 2h.66v-8h-.66z" transform="translate(2)"/></symbol><symbol id="icon-warning" viewBox="0 0 8 8"><path d="M3.09 0c-.06 0-.1.04-.13.09l-2.94 6.81c-.02.05-.03.13-.03.19v.81c0 .05.04.09.09.09h6.81c.05 0 .09-.04.09-.09v-.81c0-.05-.01-.14-.03-.19l-2.94-6.81c-.02-.05-.07-.09-.13-.09h-.81zm-.09 3h1v2h-1v-2zm0 3h1v1h-1v-1z"/></symbol><symbol id="icon-wifi" viewBox="0 0 8 8"><path d="M3.75 0c-1.38 0-2.66.4-3.75 1.09l.53.81c.93-.59 2.03-.91 3.22-.91 1.2 0 2.32.31 3.25.91l.53-.81c-1.09-.7-2.4-1.09-3.78-1.09zm0 3c-.79 0-1.5.23-2.13.63l.53.84c.47-.3 1-.47 1.59-.47.59 0 1.16.17 1.63.47l.53-.84c-.62-.39-1.37-.63-2.16-.63zm0 3c-.55 0-1 .45-1 1s.45 1 1 1 1-.45 1-1-.45-1-1-1z"/></symbol><symbol id="icon-wrench" viewBox="0 0 8 8"><path d="M5.5 0c-1.38 0-2.5 1.12-2.5 2.5 0 .32.08.62.19.91l-2.91 2.88c-.39.39-.39 1.05 0 1.44.2.2.46.28.72.28.26 0 .52-.09.72-.28l2.88-2.91c.28.11.58.19.91.19 1.38 0 2.5-1.12 2.5-2.5 0-.16 0-.32-.03-.47l-.97.97h-2v-2l.97-.97c-.15-.03-.31-.03-.47-.03zm-4.5 6.5c.28 0 .5.22.5.5s-.22.5-.5.5-.5-.22-.5-.5.22-.5.5-.5z"/></symbol><symbol id="icon-x" viewBox="0 0 8 8"><path d="M1.41 0l-1.41 1.41.72.72 1.78 1.81-1.78 1.78-.72.69 1.41 1.44.72-.72 1.81-1.81 1.78 1.81.69.72 1.44-1.44-.72-.69-1.81-1.78 1.81-1.81.72-.72-1.44-1.41-.69.72-1.78 1.78-1.81-1.78-.72-.72z"/></symbol><symbol id="icon-yen" viewBox="0 0 8 8"><path d="M0 0l2.25 3h-2.25v1h3v1h-3v1h3v2h1v-2h3v-1h-3v-1h3v-1h-2.25l2.25-3h-1l-2.31 3h-.38l-2.31-3h-1z"/></symbol><symbol id="icon-youtube" viewBox="0 0 6802 4966"><path transform="matrix(1,0,0,1,0,-700)" d="M 2704,4135 C 2704,3437 2704,2739 2704,2041 3296,2390 3888,2740 4481,3089 3888,3437 3296,3786 2704,4135 Z M 6657,1381 C 6578,1076 6348,835 6056,754 5526,606 4284,655 3399,606 2513,655 1273,606 742,754 450,835 220,1076 141,1381 0,1935 47,2519 0,3089 47,3657 0,4242 141,4794 220,5099 450,5340 742,5422 1273,5569 2513,5520 3399,5569 4284,5520 5526,5569 6056,5422 6348,5340 6578,5099 6657,4794 6799,4242 6752,3657 6799,3089 6752,2519 6799,1935 6657,1381 Z"/></symbol><symbol id="icon-zoom-in" viewBox="0 0 8 8"><path d="M3.5 0c-1.93 0-3.5 1.57-3.5 3.5s1.57 3.5 3.5 3.5c.61 0 1.19-.16 1.69-.44a1 1 0 0 0 .09.13l1 1.03a1.02 1.02 0 1 0 1.44-1.44l-1.03-1a1 1 0 0 0-.13-.09c.27-.5.44-1.08.44-1.69 0-1.93-1.57-3.5-3.5-3.5zm0 1c1.39 0 2.5 1.11 2.5 2.5 0 .59-.2 1.14-.53 1.56-.01.01-.02.02-.03.03a1 1 0 0 0-.06.03 1 1 0 0 0-.25.28c-.44.37-1.01.59-1.63.59-1.39 0-2.5-1.11-2.5-2.5s1.11-2.5 2.5-2.5zm-.5 1v1h-1v1h1v1h1v-1h1v-1h-1v-1h-1z"/></symbol><symbol id="icon-zoom-out" viewBox="0 0 8 8"><path d="M3.5 0c-1.93 0-3.5 1.57-3.5 3.5s1.57 3.5 3.5 3.5c.61 0 1.19-.16 1.69-.44a1 1 0 0 0 .09.13l1 1.03a1.02 1.02 0 1 0 1.44-1.44l-1.03-1a1 1 0 0 0-.13-.09c.27-.5.44-1.08.44-1.69 0-1.93-1.57-3.5-3.5-3.5zm0 1c1.39 0 2.5 1.11 2.5 2.5 0 .59-.2 1.14-.53 1.56-.01.01-.02.02-.03.03a1 1 0 0 0-.06.03 1 1 0 0 0-.25.28c-.44.37-1.01.59-1.63.59-1.39 0-2.5-1.11-2.5-2.5s1.11-2.5 2.5-2.5zm-1.5 2v1h3v-1h-3z"/></symbol><symbol id="icon-random-seed" viewBox="0 0 34 34"><path d="M17 34C7.611 34 0 26.389 0 17S7.611 0 17 0s17 7.611 17 17-7.611 17-17 17zm0-2c8.284 0 15-6.716 15-15 0-8.284-6.716-15-15-15C8.716 2 2 8.716 2 17c0 8.284 6.716 15 15 15zM9 7h16a2 2 0 0 1 2 2v16a2 2 0 0 1-2 2H9a2 2 0 0 1-2-2V9a2 2 0 0 1 2-2zm2 2a2 2 0 0 0-2 2v12a2 2 0 0 0 2 2h12a2 2 0 0 0 2-2V11a2 2 0 0 0-2-2H11zm10.743 5.036a1.779 1.779 0 1 1 0-3.558 1.779 1.779 0 0 1 0 3.558zm-9.486 0a1.779 1.779 0 1 1 0-3.558 1.779 1.779 0 0 1 0 3.558zm0 9.486a1.779 1.779 0 1 1 0-3.558 1.779 1.779 0 0 1 0 3.558zm9.486 0a1.779 1.779 0 1 1 0-3.558 1.779 1.779 0 0 1 0 3.558zM17 18.779a1.779 1.779 0 1 1 0-3.558 1.779 1.779 0 0 1 0 3.558z"/></symbol><symbol id="icon-euro-outline" viewBox="0 0 34 34"><path d="M10.57 15.302a8.323 8.323 0 0 1 8.17-6.738.9.9 0 1 1 0 1.8 6.523 6.523 0 0 0-6.328 4.938h5.503c.234 0 .424.403.424.9s-.19.9-.424.9h-5.693c.015.437.072.862.168 1.273h4.649a.9.9 0 1 1 0 1.8h-3.93a6.517 6.517 0 0 0 5.63 3.23.9.9 0 0 1 0 1.8 8.322 8.322 0 0 1-7.644-5.03H9.618a.9.9 0 1 1 0-1.8h.934a8.353 8.353 0 0 1-.13-1.273h-.88c-.234 0-.424-.403-.424-.9s.19-.9.424-.9h1.027zM17 34C7.611 34 0 26.389 0 17S7.611 0 17 0s17 7.611 17 17-7.611 17-17 17zm0-2c8.284 0 15-6.716 15-15 0-8.284-6.716-15-15-15C8.716 2 2 8.716 2 17c0 8.284 6.716 15 15 15z"/></symbol><symbol id="icon-datetime" viewBox="0 0 36 36"><path d="M18 0c9.941 0 18 8.059 18 18s-8.059 18-18 18S0 27.941 0 18 8.059 0 18 0zm0 2C9.163 2 2 9.163 2 18s7.163 16 16 16 16-7.163 16-16S26.837 2 18 2zm0 17.193l6.66 5.856a1 1 0 1 1-1.32 1.502l-7-6.155a1 1 0 0 1-.34-.751V9a1 1 0 0 1 2 0v10.193z"/></symbol><symbol id="icon-members" viewBox="0 0 34 34"><path d="M17 1.889C8.654 1.889 1.889 8.654 1.889 17S8.654 32.111 17 32.111c8.347 0 15.111-6.764 15.111-15.111 0-8.346-6.765-15.111-15.111-15.111zM17 0c9.39 0 17 7.61 17 17s-7.61 17-17 17S0 26.39 0 17C0 7.611 7.611 0 17 0zm8.162 12.43a3.561 3.561 0 1 0-7.123 0 3.561 3.561 0 0 0 7.123 0zm-1.89 0a1.672 1.672 0 1 1-3.344 0 1.672 1.672 0 0 1 3.345 0zm4.993 9.771a6.77 6.77 0 0 0-10.298-4.518.944.944 0 0 0 1.016 1.593 4.882 4.882 0 0 1 7.423 3.257.944.944 0 0 0 1.86-.332zM16.14 14.043a3.561 3.561 0 1 0-7.122 0 3.561 3.561 0 0 0 7.122 0zm-1.89 0a1.672 1.672 0 1 1-3.344 0 1.672 1.672 0 0 1 3.345 0zm4.994 9.771a6.772 6.772 0 0 0-13.297-.167.944.944 0 1 0 1.85.377 4.882 4.882 0 0 1 9.588.122.944.944 0 1 0 1.86-.332z"/></symbol><symbol id="icon-speakers" viewBox="0 0 34 34"><path d="M17 1.889C8.654 1.889 1.889 8.654 1.889 17S8.654 32.111 17 32.111c8.347 0 15.111-6.764 15.111-15.111 0-8.346-6.765-15.111-15.111-15.111zM17 0c9.39 0 17 7.61 17 17s-7.61 17-17 17S0 26.39 0 17C0 7.611 7.611 0 17 0zm8.162 12.43a3.561 3.561 0 1 0-7.123 0 3.561 3.561 0 0 0 7.123 0zm-1.89 0a1.672 1.672 0 1 1-3.344 0 1.672 1.672 0 0 1 3.345 0zm4.993 9.771a6.77 6.77 0 0 0-10.298-4.518.944.944 0 0 0 1.016 1.593 4.882 4.882 0 0 1 7.423 3.257.944.944 0 0 0 1.86-.332zM16.14 14.043a3.561 3.561 0 1 0-7.122 0 3.561 3.561 0 0 0 7.122 0zm-1.89 0a1.672 1.672 0 1 1-3.344 0 1.672 1.672 0 0 1 3.345 0zm4.994 9.771a6.772 6.772 0 0 0-13.297-.167.944.944 0 1 0 1.85.377 4.882 4.882 0 0 1 9.588.122.944.944 0 1 0 1.86-.332z"/></symbol><symbol id="icon-profile" viewBox="0 0 34 34"><path d="M17 0c9.389 0 17 7.611 17 17 0 9.39-7.61 17-17 17S0 26.39 0 17C0 7.611 7.611 0 17 0zm0 1.889C8.654 1.889 1.889 8.654 1.889 17S8.654 32.111 17 32.111 32.111 25.346 32.111 17 25.346 1.889 17 1.889zm3.99 10.854a4.006 4.006 0 1 1-8.012 0 4.006 4.006 0 0 1 8.012 0zm-1.889 0a2.118 2.118 0 1 0-4.236 0 2.118 2.118 0 0 0 4.236 0zm5.526 11.467a.944.944 0 1 1-1.86.331 5.876 5.876 0 0 0-11.539-.146.944.944 0 0 1-1.85-.379 7.766 7.766 0 0 1 15.249.194z"/></symbol><symbol id="icon-videos" viewBox="0 0 34 34"><path d="M17 1.889C8.654 1.889 1.889 8.654 1.889 17S8.654 32.111 17 32.111 32.111 25.346 32.111 17 25.346 1.889 17 1.889zM17 0c9.389 0 17 7.611 17 17s-7.611 17-17 17S0 26.389 0 17 7.611 0 17 0zm-5.667 13.757l6.848 3.583-6.848 3.565v-7.148zm-1.18 7.763l.076-.04a.704.704 0 0 0-.076.04zm9.517-3.407l-.08-.036a.803.803 0 0 0 .08.036zm.844.14c.75-.447.716-1.504-.092-1.872l-9.395-4.915c-.721-.432-1.583.135-1.583.965v9.798c0 .83.862 1.397 1.629.94l9.393-4.889.048-.026zm2.153-6.92v10.41a.944.944 0 1 0 1.889 0v-10.41a.944.944 0 0 0-1.89 0z"/></symbol><symbol id="icon-consultation" viewBox="0 0 34 34"><path d="M17 1.889C8.654 1.889 1.889 8.654 1.889 17S8.654 32.111 17 32.111 32.111 25.346 32.111 17 25.346 1.889 17 1.889zM17 0c9.389 0 17 7.611 17 17s-7.611 17-17 17S0 26.389 0 17 7.611 0 17 0zm-2.327 14.005c.026-1.153.867-2.08 2.024-2.099h.137c1.901.032 2.584 2.347 1.065 3.915-.12.123-.951.935-1.16 1.17-.688.776-.982 1.563-.982 2.793a.944.944 0 1 0 1.89 0c0-.772.126-1.113.505-1.54.155-.174.942-.942 1.104-1.11 2.59-2.672 1.298-7.055-2.406-7.116h-.168c-2.232.036-3.85 1.817-3.898 3.945a.944.944 0 1 0 1.889.042zm2.029 10.327a1.168 1.168 0 1 0 0-2.336 1.168 1.168 0 0 0 0 2.336zm0-.945a.224.224 0 1 1 0-.447.224.224 0 0 1 0 .447z"/></symbol><symbol id="icon-sortition" viewBox="0 0 34 34"><path d="M17 0c9.389 0 17 7.611 17 17s-7.611 17-17 17S0 26.389 0 17 7.611 0 17 0zm0 1.889C8.654 1.889 1.889 8.654 1.889 17S8.654 32.111 17 32.111 32.111 25.346 32.111 17 25.346 1.889 17 1.889zm11.865 10.74a3.15 3.15 0 1 1-6.3 0 3.15 3.15 0 0 1 6.3 0zm-1.89 0a1.26 1.26 0 1 0-2.521 0 1.26 1.26 0 0 0 2.522 0zM15.25 19.136a.944.944 0 0 1 1.89 0v1.792a5.71 5.71 0 1 1-11.423 0v-1.792a.944.944 0 0 1 1.89 0v1.792a3.822 3.822 0 1 0 7.643 0v-1.792zm5.841-6.974l.018.019a.941.941 0 0 1-.02 1.335l-2.514 2.44a.944.944 0 0 1-1.316-1.355l.843-.818a6.237 6.237 0 0 0-6.177 6.23.944.944 0 0 1-1.889 0c0-4.492 3.653-8.12 8.12-8.12h.041l-.958-.986a.944.944 0 0 1 1.355-1.316l2.497 2.571a.941.941 0 0 0-.66-.268h-2.234z"/></symbol><symbol id="icon-assemblies" viewBox="0 0 34 34"><path d="M31.593 20.937c.338-1.255.518-2.575.518-3.937 0-8.346-6.765-15.111-15.111-15.111S1.889 8.654 1.889 17c0 1.362.18 2.682.518 3.937a10.378 10.378 0 0 1 2.712-.36c2.422 0 4.717.835 6.55 2.328a10.348 10.348 0 0 1 5.177-1.383c1.95 0 3.786.542 5.357 1.49a10.338 10.338 0 0 1 6.678-2.434c.925 0 1.836.121 2.712.359zm-.606 1.793a8.487 8.487 0 0 0-2.106-.263 8.448 8.448 0 0 0-5.107 1.707 10.355 10.355 0 0 1 2.913 4.425 15.151 15.151 0 0 0 4.3-5.869zm-27.974 0c.9 2.195 2.302 4.13 4.062 5.665a10.357 10.357 0 0 1 2.982-4.345 8.45 8.45 0 0 0-4.938-1.583c-.718 0-1.424.089-2.106.263zm23.805 8.15a.94.94 0 0 1-.324.224A16.921 16.921 0 0 1 17 34C7.611 34 0 26.389 0 17S7.611 0 17 0s17 7.611 17 17c0 5.732-2.836 10.8-7.182 13.88zm-1.75-1.1a8.492 8.492 0 0 0-16.398-.17A15.04 15.04 0 0 0 17 32.11a15.04 15.04 0 0 0 8.067-2.331zm-3.042-14.33a5.18 5.18 0 1 1-10.36 0 5.18 5.18 0 0 1 10.36 0zm-1.89 0a3.291 3.291 0 1 0-6.582 0 3.291 3.291 0 0 0 6.583 0zm-11.333.944a3.062 3.062 0 1 1-6.124.001 3.062 3.062 0 0 1 6.124-.001zm-1.888 0a1.173 1.173 0 1 0-2.347 0 1.173 1.173 0 0 0 2.347 0zm18.28 0a3.063 3.063 0 1 1 6.127.002 3.063 3.063 0 0 1-6.126-.002zm1.89 0a1.174 1.174 0 1 0 2.348 0 1.174 1.174 0 0 0-2.348 0z"/></symbol><symbol id="icon-initiatives" viewBox="0 0 34 34"><path d="M17 1.889C8.654 1.889 1.889 8.654 1.889 17S8.654 32.111 17 32.111 32.111 25.346 32.111 17 25.346 1.889 17 1.889zM17 0c9.389 0 17 7.611 17 17s-7.611 17-17 17S0 26.389 0 17 7.611 0 17 0zm4.722 18.082v-2.97a.944.944 0 1 0-1.889 0v2.97a.944.944 0 1 0 1.89 0zm-2.833 0v-2.97a.944.944 0 0 0-1.889 0v2.97a.944.944 0 1 0 1.889 0zm-3.778.488V8.5a.944.944 0 0 0-1.889 0v10.07a.944.944 0 0 0 1.89 0zM8.5 16.92c.814 0 1.593.78 1.593 1.594v.2c0 4.131 3.302 7.432 7.373 7.356 4.114 0 7.415-3.301 7.339-7.373V15.11a.944.944 0 0 0-1.889 0v3.603c.056 3.025-2.385 5.468-5.467 5.468-3.025.056-5.467-2.386-5.467-5.468v-.2c0-1.857-1.625-3.482-3.482-3.482a.944.944 0 0 0 0 1.889z"/></symbol><symbol id="icon-proposals" viewBox="0 0 34 34"><path d="M17 1.889C8.654 1.889 1.889 8.654 1.889 17S8.654 32.111 17 32.111 32.111 25.346 32.111 17 25.346 1.889 17 1.889zm5.658 12.891v9.634H11.342V9.586h6.008v4.25c0 .522.423.944.945.944h4.363zm-3.419-3.893l2.048 2.005h-2.048v-2.005zm-.944-3.19h-7.897a.944.944 0 0 0-.944.945v16.716c0 .522.422.945.944.945h13.204a.944.944 0 0 0 .945-.945V13.836a.944.944 0 0 0-.285-.676v.001c.092.089.163.194.21.309zm.66.27c.176.172.284.41.284.675v2.245zM17 0c9.389 0 17 7.611 17 17s-7.611 17-17 17S0 26.389 0 17 7.611 0 17 0z"/></symbol><symbol id="icon-blog" viewBox="0 0 34 34"><path d="M17 1.889C8.654 1.889 1.889 8.654 1.889 17S8.654 32.111 17 32.111 32.111 25.346 32.111 17 25.346 1.889 17 1.889zM17 0c9.389 0 17 7.611 17 17s-7.611 17-17 17S0 26.389 0 17 7.611 0 17 0zM9.444 16.15h11.334a.944.944 0 1 0 0-1.889H9.444a.944.944 0 1 0 0 1.89zm0-3.589h15.112a.944.944 0 1 0 0-1.888H9.444a.944.944 0 1 0 0 1.888zm0 7.178h15.112a.944.944 0 0 0 0-1.889H9.444a.944.944 0 0 0 0 1.89zm0 3.589h11.334a.944.944 0 0 0 0-1.889H9.444a.944.944 0 0 0 0 1.889z"/></symbol><symbol id="icon-information" viewBox="0 0 34 34"><path d="M16.056 23.488h1.888v-8.377h-1.888v8.377zm-1.89 0v-8.377h-1.633a.944.944 0 1 1 0-1.889h6.356c.521 0 .944.423.944.945v9.321h1.634a.944.944 0 1 1 0 1.89h-8.934a.944.944 0 1 1 0-1.89h1.634zM17 34C7.611 34 0 26.389 0 17S7.611 0 17 0s17 7.611 17 17-7.611 17-17 17zm0-32.111C8.654 1.889 1.889 8.654 1.889 17S8.654 32.111 17 32.111 32.111 25.346 32.111 17A15.111 15.111 0 0 0 17 1.88v.009zm0 10.823a2.833 2.833 0 1 1 0-5.666 2.833 2.833 0 0 1 0 5.666zm0-3.778a.944.944 0 1 0 0 1.89.944.944 0 0 0 0-1.89z"/></symbol><symbol id="icon-arrow-thin-right" viewBox="0 0 8 7"><path d="M7.368 3.306L4.005.343a.2.2 0 0 1-.021-.274.183.183 0 0 1 .264-.023L8 3.352v.296L4.248 6.954a.183.183 0 0 1-.264-.023.2.2 0 0 1 .021-.274l3.363-2.963H.188A.191.191 0 0 1 0 3.5c0-.107.084-.194.188-.194h7.18z"/></symbol><symbol id="icon-arrow-thin-up" viewBox="0 0 7 8"><path d="M3.694.632l2.963 3.363a.2.2 0 0 0 .274.021.183.183 0 0 0 .023-.264L3.648 0h-.296L.046 3.752a.183.183 0 0 0 .023.264.2.2 0 0 0 .274-.021L3.306.632v7.18c0 .104.087.188.194.188a.191.191 0 0 0 .194-.188V.632z"/></symbol><symbol id="icon-arrow-thin-left" viewBox="0 0 8 7"><path d="M.632 3.306L3.995.343a.2.2 0 0 0 .021-.274.183.183 0 0 0-.264-.023L0 3.352v.296l3.752 3.306c.079.07.197.06.264-.023a.2.2 0 0 0-.021-.274L.632 3.694h7.18A.191.191 0 0 0 8 3.5a.191.191 0 0 0-.188-.194H.632z"/></symbol><symbol id="icon-arrow-thin-down" viewBox="0 0 7 8"><path d="M3.306 7.368L.343 4.005a.2.2 0 0 0-.274-.021.183.183 0 0 0-.023.264L3.352 8h.296l3.306-3.752a.183.183 0 0 0-.023-.264.2.2 0 0 0-.274.021L3.694 7.368V.188A.191.191 0 0 0 3.5 0a.191.191 0 0 0-.194.188v7.18z"/></symbol></svg>
