<svg viewBox="0 0 434 250" preserveAspectRatio="xMidYMid slice" id="ri-placeholder-card-g">
  <rect opacity="0.1" fill="fill-current" width="434" height="250"></rect>
  <g opacity="0.1" transform="translate(260.000000, 97.000000)">
      <path fill="fill-current" d="M0,44.6641163 C-0.00252963197,42.2151501 0.485897766,39.7888907 1.43905071,37.5249426 C2.39305015,35.2609944 3.79145927,33.2039301 5.55555407,31.4706474 C7.31964886,29.7365236 9.41472306,28.3615031 11.7214209,27.422957 C14.0281188,26.4844109 16.4998831,26.000841 18.9970422,26 L34.2017786,26 C35.2082607,26.001682 36.1741111,26.3944248 36.8860131,27.0932885 C37.5979151,27.7913111 37.998307,28.7382671 38,29.7264317 L38,104.273568 C38,104.763025 37.9018066,105.247436 37.7104988,105.699889 C37.5200375,106.151501 37.2398478,106.562746 36.8877061,106.908394 C36.5347178,107.254041 36.115703,107.529045 35.6552099,107.715745 C35.1947168,107.903286 34.700364,108 34.2017786,108 L18.9970422,108 C13.9603992,107.998318 9.13030086,106.035445 5.56825149,102.541968 C2.00620211,99.0484903 0.00339583039,94.3111872 0,89.3703643 L0,44.6641163 Z" id="Path"></path>
      <path fill="fill-current" d="M80.201693,0 L49.798307,0 C47.6997995,0 46,1.68351563 46,3.75905959 L46,105.240092 C46,107.316484 47.6997995,109 49.798307,109 L80.201693,109 C82.299354,109 84,107.316484 84,105.240092 L84,3.75905959 C84,1.68351563 82.299354,0 80.201693,0 Z" id="Path"></path>
      <path fill="fill-current" d="M134,89.5059523 C133.998307,93.1643969 132.883302,96.7401884 130.794679,99.7816566 C128.706056,102.82396 125.738636,105.194184 122.266628,106.593443 C118.79462,107.992702 114.974649,108.35838 111.289292,107.643723 C107.604781,106.929065 104.219128,105.166633 101.563267,102.57934 C98.9065581,99.9920464 97.0973211,96.6951049 96.3649907,93.1067902 C95.6318137,89.5184755 96.0085617,85.7990847 97.4469771,82.4186552 C98.8853925,79.0390605 101.320285,76.1495405 104.445177,74.1174423 C107.569222,72.0845093 111.242727,71 115.000048,71 C120.039158,71.0016698 124.872539,72.9519497 128.435136,76.4217114 C131.998579,79.892308 134,84.5985271 134,89.5059523 Z" id="Path"></path>
  </g>
</svg>
