<svg viewBox="0 0 176 170" preserveAspectRatio="xMidYMid slice" id="ri-placeholder-card-l">
  <g opacity="0.1" transform="translate(70.000000, 65.000000)">
      <path fill="fill-current" d="M0,30.2912417 C-0.00176172902,28.6781566 0.319605255,27.080494 0.947007955,25.5896158 C1.57382099,24.0987377 2.49428679,22.7437884 3.65474592,21.6022909 C4.81579472,20.4607933 6.19383993,19.5550896 7.71163556,18.9370178 C9.22884153,18.3188875 10.8551354,18 12.4979398,18 L22.5010032,18 C23.1637857,18.0009969 23.7982644,18.2598364 24.2670474,18.7198131 C24.7352408,19.1797312 24.9988207,19.8032565 25,20.4536978 L25,69.5464781 C25,69.8684149 24.9351369,70.188006 24.8095385,70.4853138 C24.68394,70.7832079 24.4999648,71.053541 24.2682267,71.2816529 C24.035899,71.5091783 23.7605259,71.6897913 23.4574385,71.813523 C23.1543511,71.9366682 22.8294461,72 22.5010032,72 L12.4979398,72 C9.18461671,71.9994136 6.00691638,70.7063888 3.66300122,68.4059188 C1.31967572,66.1054488 0.00236592032,62.9857699 0,59.731804 L0,30.2912417 Z" id="Path"></path>
      <path fill="fill-current" d="M52.5010024,0 L32.4989976,0 C31.1185933,0 30,1.11182109 30,2.48328866 L30,69.5162959 C30,70.8878228 31.1185933,72 32.4989976,72 L52.5010024,72 C53.8814067,72 55,70.8878228 55,69.5162959 L55,2.48328866 C55,1.11182109 53.8814067,0 52.5010024,0 Z" id="Path"></path>
      <path fill="fill-current" d="M88,59.5036169 C87.9988205,61.9757899 87.2651678,64.3924152 85.8910435,66.4476816 C84.5175088,68.5023506 82.5648368,70.1042757 80.2807236,71.0497819 C77.9966105,71.995288 75.4836732,72.2419678 73.0591988,71.7593595 C70.6347244,71.2767511 68.4078173,70.0857598 66.6597895,68.3374993 C64.9117618,66.5892387 63.7216403,64.3619536 63.2398122,61.9369662 C62.757984,59.5125762 63.0056802,56.9991903 63.951644,54.7157601 C64.8981975,52.4317327 66.4999665,50.4797971 68.5558453,49.1066331 C70.6111343,47.7328718 73.0279419,47 75.5001862,47 C78.8151876,47.0011946 81.9951355,48.3188108 84.3388137,50.6637616 C86.6830817,53.0087124 88,56.1880739 88,59.5036169 Z" id="Path"></path>
  </g>
</svg>
