<svg xmlns="http://www.w3.org/2000/svg" xmlns:xlink="http://www.w3.org/1999/xlink" id="Layer_1" x="0" y="0" enable-background="new 0 0 36 36" version="1.1" viewBox="0 0 36 36" xml:space="preserve"><path d="M27,28H9c-0.6,0-1-0.4-1-1V11c0-0.6,0.4-1,1-1h3.1c0.6,0,1,0.4,1,1v1.9h9.7V11c0-0.6,0.4-1,1-1H27c0.6,0,1,0.4,1,1v16 C28,27.6,27.6,28,27,28z M10,26h16V12h-1.2v1.9c0,0.6-0.4,1-1,1H12.1c-0.6,0-1-0.4-1-1V12H10V26z"/><g><g><path d="M21,11h-6c-0.6,0-1-0.4-1-1s0.4-1,1-1h6c0.6,0,1,0.4,1,1S21.6,11,21,11z"/></g><g><path d="M18.7,11h-1.5c-0.6,0-1-0.4-1-1V8c0-0.6,0.4-1,1-1h1.5c0.6,0,1,0.4,1,1v2C19.7,10.5,19.3,11,18.7,11z"/></g></g><g><path d="M18,36.1c-9.9,0-18-8.1-18-18s8.1-18,18-18s18,8.1,18,18S27.9,36.1,18,36.1z M18,2.1c-8.8,0-16,7.2-16,16s7.2,16,16,16 s16-7.2,16-16S26.8,2.1,18,2.1z"/></g></svg>