<svg xmlns="http://www.w3.org/2000/svg" width="8" height="8" data-icon="aperture" version="1.1" viewBox="0 0 34 34"><path d="M17 0c9.389 0 17 7.611 17 17s-7.611 17-17 17S0 26.389 0 17 7.611 0 17 0zm0 1.889C8.654 1.889 1.889 8.654 1.889 17S8.654 32.111 17 32.111 32.111 25.346 32.111 17 25.346 1.889 17 1.889zm11.865 10.74a3.15 3.15 0 1 1-6.3 0 3.15 3.15 0 0 1 6.3 0zm-1.89 0a1.26 1.26 0 1 0-2.521 0 1.26 1.26 0 0 0 2.522 0zM15.25 19.136a.944.944 0 0 1 1.89 0v1.792a5.71 5.71 0 1 1-11.423 0v-1.792a.944.944 0 0 1 1.89 0v1.792a3.822 3.822 0 1 0 7.643 0v-1.792zm5.841-6.974l.018.019a.941.941 0 0 1-.02 1.335l-2.514 2.44a.944.944 0 0 1-1.316-1.355l.843-.818a6.237 6.237 0 0 0-6.177 6.23.944.944 0 0 1-1.889 0c0-4.492 3.653-8.12 8.12-8.12h.041l-.958-.986a.944.944 0 0 1 1.355-1.316l2.497 2.571a.941.941 0 0 0-.66-.268h-2.234z"/></svg>