<svg xmlns="http://www.w3.org/2000/svg" xmlns:xlink="http://www.w3.org/1999/xlink" id="Negativo" width="455.8" height="147.6" x="0" y="0" enable-background="new 0 0 455.8 147.6" version="1.1" viewBox="0 0 455.8 147.6" xml:space="preserve"><style type="text/css">.st0{fill:#d9e7e5}.st1{fill:#ed6a5a}.st2{fill:#31536e}.st3{fill:#a0c3bf}</style><title>decidim-logo</title><path d="M188.6,44.8v5.8c0,14.5-10.3,22.5-22.7,22.5h-19.3V22.2h19.3C178.3,22.2,188.6,30.3,188.6,44.8z M158.1,63.9	h7.8c6.1,0,10.7-4,10.7-11.8v-9c0-7.8-4.6-11.8-10.7-11.8h-7.8V63.9L158.1,63.9z" class="st0"/><path d="M213.8,73.8h-1.2c-10.5,0-18.5-6.8-18.5-18.6v-2.1c0-11.8,8.1-18.6,18.5-18.6h1.2c9,0,17.2,5.7,17.2,15.9v5.6	h-25.9v1.8c0,4.8,3,8.7,8.1,8.7c4.4,0,7.3-2.4,7.3-7.5h10.4C230.9,69.3,222.6,73.8,213.8,73.8z M205.1,50h15c0-4.7-1.9-8.1-7.3-8.1	C208.3,41.9,205.4,45.4,205.1,50z" class="st0"/><path d="M255.2,66.4c4.4,0,7.3-2.7,7.3-8.4h10.2c0,11-7.8,15.8-16.4,15.8h-1.2c-11,0-18.1-6.8-18.1-18.6v-2.1	c0-11.8,7.6-18.6,18.1-18.6h1.2c8.6,0,16.4,5.7,16.4,15.9h-10.7c0-4.9-2.2-8.4-6.7-8.4s-7.2,4.1-7.2,9.3v6.6	C248.1,62.5,250.7,66.4,255.2,66.4z" class="st0"/><path d="M289.8,19.7v8.5h-11v-8.5L289.8,19.7L289.8,19.7z M279,35.2h10.8v37.9H279V35.2z" class="st0"/><path d="M321.8,68.3c-2.4,3.5-6.4,5.5-10.7,5.5c-8.7,0-15.7-6.1-15.7-19.5v-0.8c0-12.7,6.5-19,14.6-19	c4.1-0.1,8.1,1.8,10.6,5.1V19.7h10.8v53.3h-8.5L321.8,68.3z M313.5,66.4c4,0,7.1-3,7.1-9v-6.1c0-6-3.1-9-7.1-9s-7.1,3-7.1,9v6.1	C306.4,63.4,309.5,66.4,313.5,66.4L313.5,66.4z" class="st0"/><path d="M351.2,19.7v8.5h-11v-8.5L351.2,19.7L351.2,19.7z M340.3,35.2h10.8v37.9h-10.8V35.2z" class="st0"/><path d="M391.4,40.5c2.3-3.9,6.5-6.2,11-6.1c6.8,0,12.4,4.2,12.4,12.1v26.5H404V48.8c0-4.1-1.9-6.5-5-6.5	c-3.4,0-6.2,3-6.2,7.3V73H382V48.7c0-4.1-2-6.5-5.1-6.5c-3.4,0-6.1,3-6.1,7.3V73H360V35.2h8.2c0.4,1.9,0.8,3.7,1.2,5.5	c2.3-3.9,6.5-6.3,11.1-6.3C385.2,34.5,389.3,36.5,391.4,40.5z" class="st0"/><path d="M182.5,105.5c0,5.9-2.8,10.1-8.9,11.9v0.4c5.6,0.9,10.1,5.2,10.1,12.3c0,7.6-6.2,13.8-13.8,13.9	c-0.1,0-0.2,0-0.3,0h-23V93h22.5C176.5,93,182.5,98.5,182.5,105.5z M153.9,99.6v15h13.8c4.1,0.3,7.7-2.8,8-7c0.3-4.1-2.8-7.7-7-8	c-0.4,0-0.7,0-1.1,0H153.9L153.9,99.6z M153.9,121.2v16h14.5c4.4,0,8-3.6,8-8s-3.6-8-8-8H153.9L153.9,121.2z" class="st0"/><path d="M219.7,116.8v19.6c0,1.9,1,2.6,2.1,2.6c1.2,0,2.4-0.4,3.4-1v5.1c-1.7,1-3.7,1.5-5.7,1.5c-4.4,0-6.2-2.9-6.4-6.8	c-3,4.5-7.4,6.8-13.3,6.8c-8.1,0-12.4-3.3-12.4-11.3c0-9,6.3-12.2,25.3-12.2v-3.5c0-5.3-3.4-6.8-8.7-6.8s-8.4,2.1-8.4,5.9v0.9h-6.8	c-0.1-0.8-0.2-1.6-0.1-2.4c0-5.3,6.7-9.9,15.6-9.9h0.7C215,105.2,219.7,109.4,219.7,116.8z M194.4,133.9c0,3.4,2.6,5.1,7.8,5.1	c5.9,0,10.6-4.7,10.6-10.6c0-0.1,0-0.3,0-0.4v-1.5C196.8,126.5,194.4,128.9,194.4,133.9z" class="st0"/><path d="M256.7,117.1l-0.2,2.8h-6.1v-1.6c0-4.1-3.3-7.4-7.3-7.5c-4.7,0-7.6,4.1-7.6,10.5v22.6h-7V106h5l1,5.6	c0.9-2.8,5.1-6.4,11-6.4C252.8,105.2,256.7,110.6,256.7,117.1z" class="st0"/><path d="M292,120.9h-6.9c0-5.9-3-10.1-9-10.1s-10,4.3-10,11.5v4c0,8.8,3.9,12.7,10.2,12.7s9-4.1,9-10h6.7	c0,9.6-6.2,15.6-15.6,15.6h-0.6c-10.2,0-16.7-7.5-16.7-18.7v-1.8c0-11.3,6.7-18.8,16.6-18.8h0.6C285.4,105.2,292,111.5,292,120.9z" class="st0"/><path d="M329.2,121.2v5.3h-26.5c0.2,7.9,3.6,12.5,10.7,12.5c6.7,0,9.1-4.8,9.1-9.3h6.6c0,9-6.6,14.8-15.8,14.8H313	c-10.7,0-17.3-7.5-17.3-18.9v-1.5c0-11.3,6.5-19,17-19h0.5C322.6,105.2,329.2,111.5,329.2,121.2z M302.9,121.1h19.4v-0.9	c0-5.6-3.7-9.4-9.3-9.4S303.7,114.2,302.9,121.1L302.9,121.1z" class="st0"/><path d="M339.9,143.8h-7V90.5h7V143.8L339.9,143.8z" class="st0"/><path d="M378.7,123.5v2.7c0,11.3-6.7,18.3-17.4,18.3s-17.4-7-17.4-18.3v-2.7c0-11.5,6.9-18.3,17.4-18.3	S378.7,112.1,378.7,123.5z M350.9,124.2v1.4c0,8.5,3.7,13.4,10.5,13.4c6.4,0,10.5-4.5,10.5-13.4v-1.4c0-8.5-3.7-13.4-10.5-13.4	C354.8,110.8,350.9,115.3,350.9,124.2L350.9,124.2z" class="st0"/><path d="M414.5,118.3v25.5h-7v-24.2c0-6.5-3.3-8.8-8-8.8c-5.7,0.2-10.1,4.9-10.1,10.5v22.5h-7V106h5l1,5.5	c2.9-4.1,7.7-6.4,12.7-6.3C409.3,105.2,414.5,109.6,414.5,118.3z" class="st0"/><path d="M450.3,116.8v19.6c0,1.9,1,2.6,2.1,2.6c1.2,0,2.4-0.4,3.4-1v5.1c-1.7,1-3.7,1.5-5.7,1.5c-4.4,0-6.2-2.9-6.4-6.8	c-3,4.5-7.4,6.8-13.3,6.8c-8.2,0-12.4-3.3-12.4-11.3c0-9,6.3-12.2,25.3-12.2v-3.5c0-5.3-3.4-6.8-8.7-6.8s-8.4,2.1-8.4,5.9v0.9h-6.8	c-0.1-0.8-0.2-1.6-0.2-2.4c0-5.3,6.7-9.9,15.6-9.9h0.7C445.6,105.2,450.3,109.4,450.3,116.8z M425,133.9c0,3.4,2.6,5.1,7.8,5.1	c5.9,0,10.6-4.7,10.6-10.6c0-0.1,0-0.3,0-0.4v-1.5C427.4,126.5,425,128.9,425,133.9L425,133.9z" class="st0"/><path d="M73.8,146.8c19.9-0.2,36-16.3,36.2-36.1V110c-0.2-19.9-16.3-36-36.2-36.2l0,0v-0.7l0,0	c19.9-0.2,36-16.3,36.2-36.2v-0.7C109.7,16.3,93.7,0.2,73.8,0H0v73l0,0v0.7l0,0v73L73.8,146.8L73.8,146.8z M73.1,73.8L73.1,73.8	v-0.7l0,0V73.8z" class="st1"/><path d="M73,73.8c-19.9,0.2-36,16.3-36.2,36.2C56.8,109.8,72.8,93.7,73,73.8z" class="st2"/><path d="M36.9,110.7c0.2,19.9,16.3,35.9,36.2,36.1C72.8,127,56.8,110.9,36.9,110.7z" class="st2"/><path d="M36.2,109.9C36,90.1,19.9,74,0,73.8C0.2,93.7,16.3,109.7,36.2,109.9z" class="st2"/><path d="M36.2,110.7C16.3,110.9,0.2,127,0,146.8C19.9,146.6,36,130.6,36.2,110.7z" class="st2"/><path d="M36.2,36.2C36,16.3,19.9,0.2,0,0C0.2,19.9,16.3,36,36.2,36.2z" class="st2"/><path d="M36.2,36.9C16.3,37.1,0.2,53.2,0,73.1C19.9,72.9,36,56.8,36.2,36.9z" class="st2"/><path d="M73,0c-19.9,0.2-36,16.3-36.1,36.2C56.8,36,72.9,19.9,73,0z" class="st2"/><path d="M36.9,36.9C37.1,56.8,53.2,72.8,73,73.1C72.9,53.2,56.8,37.1,36.9,36.9z" class="st2"/><path d="M0,146.8c0.2-19.9,16.3-36,36.2-36.1V110C16.3,109.7,0.2,93.7,0,73.8V146.8z" class="st3"/><path d="M109.9,109.9c-19.9-0.2-36-16.3-36.2-36.2H73c-0.2,19.9-16.3,36-36.2,36.2v0.7c19.9,0.2,36,16.3,36.2,36.1h0.8	c0.2-19.9,16.3-36,36.2-36.1V109.9z" class="st3"/><path d="M0,73.1c0.2-19.9,16.3-36,36.2-36.2v-0.7C16.3,36,0.2,19.9,0,0V73.1L0,73.1z" class="st3"/><path d="M109.9,36.2C90.1,36,74,19.9,73.8,0H73c-0.2,19.9-16.3,36-36.1,36.2v0.7c19.9,0.2,36,16.3,36.2,36.1h0.7	c0.2-19.9,16.3-36,36.2-36.2V36.2z" class="st3"/></svg>